<?xml version="1.0" encoding="UTF-8" standalone="no"?>
<!DOCTYPE svg PUBLIC "-//W3C//DTD SVG 1.1//EN"
 "http://www.w3.org/Graphics/SVG/1.1/DTD/svg11.dtd">
<!-- Generated by graphviz version 7.0.2 (0)
 -->
<!-- Title: Library.OfertaDeServicio.GetId Pages: 1 -->
<svg width="871pt" height="86pt"
 viewBox="0.00 0.00 871.00 86.00" xmlns="http://www.w3.org/2000/svg" xmlns:xlink="http://www.w3.org/1999/xlink">
<g id="graph0" class="graph" transform="scale(1 1) rotate(0) translate(4 82)">
<title>Library.OfertaDeServicio.GetId</title>
<!-- Node1 -->
<g id="node1" class="node">
<title>Node1</title>
<g id="a_node1"><a xlink:title="Método para obtener id de OfertaDeServicio">
<polygon fill="#999999" stroke="#666666" points="863,-54 729,-54 729,-24 863,-24 863,-54"/>
<text text-anchor="start" x="737" y="-42" font-family="Helvetica,sans-Serif" font-size="10.00">Library.OfertaDeServicio.</text>
<text text-anchor="middle" x="796" y="-31" font-family="Helvetica,sans-Serif" font-size="10.00">GetId</text>
</a>
</g>
</g>
<!-- Node2 -->
<g id="node2" class="node">
<title>Node2</title>
<g id="a_node2"><a xlink:href="classLibrary_1_1Categoria.html#abfee7bcdbeb886b1993fdfaf14efe6d7" target="_top" xlink:title="Filtrar OfertaDeServicio por id">
<polygon fill="white" stroke="#666666" points="693,-48.5 526,-48.5 526,-29.5 693,-29.5 693,-48.5"/>
<text text-anchor="middle" x="609.5" y="-36.5" font-family="Helvetica,sans-Serif" font-size="10.00">Library.Categoria.GetOfertaById</text>
</a>
</g>
</g>
<!-- Node1&#45;&gt;Node2 -->
<g id="edge1" class="edge">
<title>Node1&#45;&gt;Node2</title>
<path fill="none" stroke="#63b8ff" d="M717.2,-39C709.3,-39 701.25,-39 693.3,-39"/>
<polygon fill="#63b8ff" stroke="#63b8ff" points="717.14,-42.5 727.14,-39 717.14,-35.5 717.14,-42.5"/>
</g>
<!-- Node3 -->
<g id="node3" class="node">
<title>Node3</title>
<g id="a_node3"><a xlink:href="classLibrary_1_1CategoriasCatalog.html#a02d667d79dc6c941d7ab276c88259ff2" target="_top" xlink:title="Método para obtener OfertaDeServicio por id">
<polygon fill="white" stroke="#666666" points="490,-78 353,-78 353,-48 490,-48 490,-78"/>
<text text-anchor="start" x="361" y="-66" font-family="Helvetica,sans-Serif" font-size="10.00">Library.CategoriasCatalog.</text>
<text text-anchor="middle" x="421.5" y="-55" font-family="Helvetica,sans-Serif" font-size="10.00">GetOfertaById</text>
</a>
</g>
</g>
<!-- Node2&#45;&gt;Node3 -->
<g id="edge2" class="edge">
<title>Node2&#45;&gt;Node3</title>
<path fill="none" stroke="#63b8ff" d="M520.02,-50.42C510.04,-51.7 499.99,-53 490.33,-54.25"/>
<polygon fill="#63b8ff" stroke="#63b8ff" points="520.26,-53.91 529.73,-49.16 519.37,-46.97 520.26,-53.91"/>
</g>
<!-- Node6 -->
<g id="node6" class="node">
<title>Node6</title>
<g id="a_node6"><a xlink:href="classLibrary_1_1Categoria.html#a395e51b351aeb577b6371110ceec8abd" target="_top" xlink:title="Método para quitar una oferta, en caso de que la misma no exista no hará nada">
<polygon fill="white" stroke="#666666" points="490,-30 353,-30 353,0 490,0 490,-30"/>
<text text-anchor="start" x="361" y="-18" font-family="Helvetica,sans-Serif" font-size="10.00">Library.Categoria.Remove</text>
<text text-anchor="middle" x="421.5" y="-7" font-family="Helvetica,sans-Serif" font-size="10.00">Oferta</text>
</a>
</g>
</g>
<!-- Node2&#45;&gt;Node6 -->
<g id="edge5" class="edge">
<title>Node2&#45;&gt;Node6</title>
<path fill="none" stroke="#63b8ff" d="M520.02,-27.58C510.04,-26.3 499.99,-25 490.33,-23.75"/>
<polygon fill="#63b8ff" stroke="#63b8ff" points="519.37,-31.03 529.73,-28.84 520.26,-24.09 519.37,-31.03"/>
</g>
<!-- Node4 -->
<g id="node4" class="node">
<title>Node4</title>
<g id="a_node4"><a xlink:href="classLibrary_1_1OfertasHandler.html#a77e846642d71cc0848a111e21fd20bbf" target="_top" xlink:title="Método para obtener una OfertaDeServicio por id">
<polygon fill="white" stroke="#666666" points="317,-78 177,-78 177,-48 317,-48 317,-78"/>
<text text-anchor="start" x="185" y="-66" font-family="Helvetica,sans-Serif" font-size="10.00">Library.OfertasHandler.Get</text>
<text text-anchor="middle" x="247" y="-55" font-family="Helvetica,sans-Serif" font-size="10.00">OfertaById</text>
</a>
</g>
</g>
<!-- Node3&#45;&gt;Node4 -->
<g id="edge3" class="edge">
<title>Node3&#45;&gt;Node4</title>
<path fill="none" stroke="#63b8ff" d="M341.55,-63C333.51,-63 325.39,-63 317.47,-63"/>
<polygon fill="#63b8ff" stroke="#63b8ff" points="341.31,-66.5 351.3,-63 341.3,-59.5 341.31,-66.5"/>
</g>
<!-- Node5 -->
<g id="node5" class="node">
<title>Node5</title>
<g id="a_node5"><a xlink:href="classLibrary_1_1OfertasHandler.html#a419fc6b93ef7235e39449f38494d7d1f" target="_top" xlink:title="Método para dar de baja una OfertaDeServicio">
<polygon fill="white" stroke="#666666" points="141,-78 0,-78 0,-48 141,-48 141,-78"/>
<text text-anchor="start" x="8" y="-66" font-family="Helvetica,sans-Serif" font-size="10.00">Library.OfertasHandler.Dar</text>
<text text-anchor="middle" x="70.5" y="-55" font-family="Helvetica,sans-Serif" font-size="10.00">DeBajaOferta</text>
</a>
</g>
</g>
<!-- Node4&#45;&gt;Node5 -->
<g id="edge4" class="edge">
<title>Node4&#45;&gt;Node5</title>
<path fill="none" stroke="#63b8ff" d="M165.28,-63C157.27,-63 149.19,-63 141.3,-63"/>
<polygon fill="#63b8ff" stroke="#63b8ff" points="165.02,-66.5 175.02,-63 165.02,-59.5 165.02,-66.5"/>
</g>
</g>
</svg>
