<?xml version="1.0" encoding="UTF-8" standalone="no"?>
<!DOCTYPE svg PUBLIC "-//W3C//DTD SVG 1.1//EN"
 "http://www.w3.org/Graphics/SVG/1.1/DTD/svg11.dtd">
<!-- Generated by graphviz version 7.0.2 (0)
 -->
<!-- Title: Library.OfertasHandler.GetOfertaById Pages: 1 -->
<svg width="694pt" height="38pt"
 viewBox="0.00 0.00 694.00 38.00" xmlns="http://www.w3.org/2000/svg" xmlns:xlink="http://www.w3.org/1999/xlink">
<g id="graph0" class="graph" transform="scale(1 1) rotate(0) translate(4 34)">
<title>Library.OfertasHandler.GetOfertaById</title>
<!-- Node1 -->
<g id="node1" class="node">
<title>Node1</title>
<g id="a_node1"><a xlink:title="Método para obtener una OfertaDeServicio por id">
<polygon fill="#999999" stroke="#666666" points="140,-30 0,-30 0,0 140,0 140,-30"/>
<text text-anchor="start" x="8" y="-18" font-family="Helvetica,sans-Serif" font-size="10.00">Library.OfertasHandler.Get</text>
<text text-anchor="middle" x="70" y="-7" font-family="Helvetica,sans-Serif" font-size="10.00">OfertaById</text>
</a>
</g>
</g>
<!-- Node2 -->
<g id="node2" class="node">
<title>Node2</title>
<g id="a_node2"><a xlink:href="classLibrary_1_1CategoriasCatalog.html#a02d667d79dc6c941d7ab276c88259ff2" target="_top" xlink:title="Método para obtener OfertaDeServicio por id">
<polygon fill="white" stroke="#666666" points="313,-30 176,-30 176,0 313,0 313,-30"/>
<text text-anchor="start" x="184" y="-18" font-family="Helvetica,sans-Serif" font-size="10.00">Library.CategoriasCatalog.</text>
<text text-anchor="middle" x="244.5" y="-7" font-family="Helvetica,sans-Serif" font-size="10.00">GetOfertaById</text>
</a>
</g>
</g>
<!-- Node1&#45;&gt;Node2 -->
<g id="edge1" class="edge">
<title>Node1&#45;&gt;Node2</title>
<path fill="none" stroke="#63b8ff" d="M140.17,-15C148.13,-15 156.3,-15 164.38,-15"/>
<polygon fill="#63b8ff" stroke="#63b8ff" points="164.21,-18.5 174.21,-15 164.21,-11.5 164.21,-18.5"/>
</g>
<!-- Node3 -->
<g id="node3" class="node">
<title>Node3</title>
<g id="a_node3"><a xlink:href="classLibrary_1_1Categoria.html#abfee7bcdbeb886b1993fdfaf14efe6d7" target="_top" xlink:title="Filtrar OfertaDeServicio por id">
<polygon fill="white" stroke="#666666" points="516,-24.5 349,-24.5 349,-5.5 516,-5.5 516,-24.5"/>
<text text-anchor="middle" x="432.5" y="-12.5" font-family="Helvetica,sans-Serif" font-size="10.00">Library.Categoria.GetOfertaById</text>
</a>
</g>
</g>
<!-- Node2&#45;&gt;Node3 -->
<g id="edge2" class="edge">
<title>Node2&#45;&gt;Node3</title>
<path fill="none" stroke="#63b8ff" d="M313.44,-15C321.2,-15 329.21,-15 337.23,-15"/>
<polygon fill="#63b8ff" stroke="#63b8ff" points="337.04,-18.5 347.04,-15 337.04,-11.5 337.04,-18.5"/>
</g>
<!-- Node4 -->
<g id="node4" class="node">
<title>Node4</title>
<g id="a_node4"><a xlink:href="classLibrary_1_1OfertaDeServicio.html#a3aabf94b79625937babc2196b5ffa71e" target="_top" xlink:title="Método para obtener id de OfertaDeServicio">
<polygon fill="white" stroke="#666666" points="686,-30 552,-30 552,0 686,0 686,-30"/>
<text text-anchor="start" x="560" y="-18" font-family="Helvetica,sans-Serif" font-size="10.00">Library.OfertaDeServicio.</text>
<text text-anchor="middle" x="619" y="-7" font-family="Helvetica,sans-Serif" font-size="10.00">GetId</text>
</a>
</g>
</g>
<!-- Node3&#45;&gt;Node4 -->
<g id="edge3" class="edge">
<title>Node3&#45;&gt;Node4</title>
<path fill="none" stroke="#63b8ff" d="M516.31,-15C524.29,-15 532.36,-15 540.29,-15"/>
<polygon fill="#63b8ff" stroke="#63b8ff" points="540.26,-18.5 550.26,-15 540.26,-11.5 540.26,-18.5"/>
</g>
</g>
</svg>
