<?xml version="1.0" encoding="UTF-8" standalone="no"?>
<!DOCTYPE svg PUBLIC "-//W3C//DTD SVG 1.1//EN"
 "http://www.w3.org/Graphics/SVG/1.1/DTD/svg11.dtd">
<!-- Generated by graphviz version 7.0.2 (0)
 -->
<!-- Title: Library.Empleador.Calificar Pages: 1 -->
<svg width="309pt" height="76pt"
 viewBox="0.00 0.00 309.00 75.50" xmlns="http://www.w3.org/2000/svg" xmlns:xlink="http://www.w3.org/1999/xlink">
<g id="graph0" class="graph" transform="scale(1 1) rotate(0) translate(4 71.5)">
<title>Library.Empleador.Calificar</title>
<!-- Node1 -->
<g id="node1" class="node">
<title>Node1</title>
<g id="a_node1"><a xlink:title="Método para calificar un usuario">
<polygon fill="#999999" stroke="#666666" points="301,-40 164,-40 164,-21 301,-21 301,-40"/>
<text text-anchor="middle" x="232.5" y="-28" font-family="Helvetica,sans-Serif" font-size="10.00">Library.Empleador.Calificar</text>
</a>
</g>
</g>
<!-- Node2 -->
<g id="node2" class="node">
<title>Node2</title>
<g id="a_node2"><a xlink:href="classLibrary_1_1Solicitud.html#a617cf24ed3c6ec6dc2b5e9149966c599" target="_top" xlink:title="Método para calificar un empleador">
<polygon fill="white" stroke="#666666" points="128,-67.5 0,-67.5 0,-37.5 128,-37.5 128,-67.5"/>
<text text-anchor="start" x="8" y="-55.5" font-family="Helvetica,sans-Serif" font-size="10.00">Library.Solicitud.Calificar</text>
<text text-anchor="middle" x="64" y="-44.5" font-family="Helvetica,sans-Serif" font-size="10.00">Empleador</text>
</a>
</g>
</g>
<!-- Node1&#45;&gt;Node2 -->
<g id="edge1" class="edge">
<title>Node1&#45;&gt;Node2</title>
<path fill="none" stroke="#63b8ff" d="M152.43,-40.95C144.36,-42.01 136.23,-43.09 128.36,-44.13"/>
<polygon fill="#63b8ff" stroke="#63b8ff" points="152.82,-44.43 162.28,-39.65 151.91,-37.49 152.82,-44.43"/>
</g>
<!-- Node3 -->
<g id="node3" class="node">
<title>Node3</title>
<g id="a_node3"><a xlink:href="classLibrary_1_1Solicitud.html#a2b9a4efefd35c16aca1099d7997c286e" target="_top" xlink:title="Método para actualizar una calificación en caso que se haga dentro del plazo. Si excede la fecha lími...">
<polygon fill="white" stroke="#666666" points="127,-19 1,-19 1,0 127,0 127,-19"/>
<text text-anchor="middle" x="64" y="-7" font-family="Helvetica,sans-Serif" font-size="10.00">Library.Solicitud.Update</text>
</a>
</g>
</g>
<!-- Node1&#45;&gt;Node3 -->
<g id="edge2" class="edge">
<title>Node1&#45;&gt;Node3</title>
<path fill="none" stroke="#63b8ff" d="M152.37,-20.52C143.95,-19.46 135.48,-18.39 127.29,-17.36"/>
<polygon fill="#63b8ff" stroke="#63b8ff" points="151.92,-23.99 162.28,-21.77 152.79,-17.05 151.92,-23.99"/>
</g>
</g>
</svg>
