<?xml version="1.0" encoding="UTF-8" standalone="no"?>
<!DOCTYPE svg PUBLIC "-//W3C//DTD SVG 1.1//EN"
 "http://www.w3.org/Graphics/SVG/1.1/DTD/svg11.dtd">
<!-- Generated by graphviz version 7.0.2 (0)
 -->
<!-- Title: Library.OfertaDeServicio.GetOfertante Pages: 1 -->
<svg width="309pt" height="76pt"
 viewBox="0.00 0.00 309.00 75.50" xmlns="http://www.w3.org/2000/svg" xmlns:xlink="http://www.w3.org/1999/xlink">
<g id="graph0" class="graph" transform="scale(1 1) rotate(0) translate(4 71.5)">
<title>Library.OfertaDeServicio.GetOfertante</title>
<!-- Node1 -->
<g id="node1" class="node">
<title>Node1</title>
<g id="a_node1"><a xlink:title="Método para obtener NickName de Ofertante">
<polygon fill="#999999" stroke="#666666" points="301,-45.5 167,-45.5 167,-15.5 301,-15.5 301,-45.5"/>
<text text-anchor="start" x="175" y="-33.5" font-family="Helvetica,sans-Serif" font-size="10.00">Library.OfertaDeServicio.</text>
<text text-anchor="middle" x="234" y="-22.5" font-family="Helvetica,sans-Serif" font-size="10.00">GetOfertante</text>
</a>
</g>
</g>
<!-- Node2 -->
<g id="node2" class="node">
<title>Node2</title>
<g id="a_node2"><a xlink:href="classLibrary_1_1ContratoHandler.html#a9da1c5ea2f4b9eb3ebe351fa0dac67d5" target="_top" xlink:title="Método para aceptar una solicitud">
<polygon fill="white" stroke="#666666" points="130,-67.5 1,-67.5 1,-37.5 130,-37.5 130,-67.5"/>
<text text-anchor="start" x="9" y="-55.5" font-family="Helvetica,sans-Serif" font-size="10.00">Library.ContratoHandler.</text>
<text text-anchor="middle" x="65.5" y="-44.5" font-family="Helvetica,sans-Serif" font-size="10.00">AceptarSolicitud</text>
</a>
</g>
</g>
<!-- Node1&#45;&gt;Node2 -->
<g id="edge1" class="edge">
<title>Node1&#45;&gt;Node2</title>
<path fill="none" stroke="#63b8ff" d="M155.38,-40.76C147.01,-41.86 138.57,-42.98 130.39,-44.06"/>
<polygon fill="#63b8ff" stroke="#63b8ff" points="155.76,-44.24 165.22,-39.46 154.84,-37.3 155.76,-44.24"/>
</g>
<!-- Node3 -->
<g id="node3" class="node">
<title>Node3</title>
<g id="a_node3"><a xlink:href="classLibrary_1_1Solicitud.html#a291a5870fcc93cd8aec3af84833956f1" target="_top" xlink:title="Constructor de la clase Solicitud">
<polygon fill="white" stroke="#666666" points="131,-19 0,-19 0,0 131,0 131,-19"/>
<text text-anchor="middle" x="65.5" y="-7" font-family="Helvetica,sans-Serif" font-size="10.00">Library.Solicitud.Solicitud</text>
</a>
</g>
</g>
<!-- Node1&#45;&gt;Node3 -->
<g id="edge2" class="edge">
<title>Node1&#45;&gt;Node3</title>
<path fill="none" stroke="#63b8ff" d="M155.45,-20.72C147.43,-19.71 139.33,-18.69 131.47,-17.69"/>
<polygon fill="#63b8ff" stroke="#63b8ff" points="154.86,-24.17 165.21,-21.95 155.73,-17.23 154.86,-24.17"/>
</g>
</g>
</svg>
