<?xml version="1.0" encoding="UTF-8" standalone="no"?>
<!DOCTYPE svg PUBLIC "-//W3C//DTD SVG 1.1//EN"
 "http://www.w3.org/Graphics/SVG/1.1/DTD/svg11.dtd">
<!-- Generated by graphviz version 7.0.2 (0)
 -->
<!-- Title: Library.SolicitudCatalog Pages: 1 -->
<svg width="136pt" height="170pt"
 viewBox="0.00 0.00 136.00 170.00" xmlns="http://www.w3.org/2000/svg" xmlns:xlink="http://www.w3.org/1999/xlink">
<g id="graph0" class="graph" transform="scale(1 1) rotate(0) translate(4 166)">
<title>Library.SolicitudCatalog</title>
<!-- Node1 -->
<g id="node1" class="node">
<title>Node1</title>
<g id="a_node1"><a xlink:title="Clase para para manejar el catálogo de solicitudes">
<polygon fill="#999999" stroke="#666666" points="128,-85 0,-85 0,0 128,0 128,-85"/>
<text text-anchor="middle" x="64" y="-73" font-family="Helvetica,sans-Serif" font-size="10.00">{Library.SolicitudCatalog</text>
<text text-anchor="start" x="8" y="-62" font-family="Helvetica,sans-Serif" font-size="10.00">|+ Instance</text>
<text text-anchor="start" x="8" y="-51" font-family="Helvetica,sans-Serif" font-size="10.00">|+ AddSolicitud()</text>
<text text-anchor="start" x="8" y="-40" font-family="Helvetica,sans-Serif" font-size="10.00">+ RemoveSolicitud()</text>
<text text-anchor="start" x="8" y="-29" font-family="Helvetica,sans-Serif" font-size="10.00">+ Wipe()</text>
<text text-anchor="start" x="8" y="-18" font-family="Helvetica,sans-Serif" font-size="10.00">+ GetInstance()</text>
<text text-anchor="middle" x="64" y="-7" font-family="Helvetica,sans-Serif" font-size="10.00">}</text>
</a>
</g>
</g>
<!-- Node2 -->
<g id="node2" class="node">
<title>Node2</title>
<g id="a_node2"><a xlink:title=" ">
<polygon fill="white" stroke="#bfbfbf" points="126.5,-162 1.5,-162 1.5,-132 126.5,-132 126.5,-162"/>
<text text-anchor="middle" x="64" y="-150" font-family="Helvetica,sans-Serif" font-size="10.00">{List&lt; Library.Solicitud &gt;</text>
<text text-anchor="middle" x="64" y="-139" font-family="Helvetica,sans-Serif" font-size="10.00">||}</text>
</a>
</g>
</g>
<!-- Node2&#45;&gt;Node1 -->
<g id="edge1" class="edge">
<title>Node2&#45;&gt;Node1</title>
<path fill="none" stroke="#404040" d="M64,-131.75C64,-122.77 64,-110.54 64,-98.05"/>
<polygon fill="none" stroke="#404040" points="64,-97.96 60,-91.96 64,-85.96 68,-91.96 64,-97.96"/>
<text text-anchor="middle" x="93" y="-106" font-family="Helvetica,sans-Serif" font-size="10.00"> +Solicitudes</text>
</g>
</g>
</svg>
