<?xml version="1.0" encoding="UTF-8" standalone="no"?>
<!DOCTYPE svg PUBLIC "-//W3C//DTD SVG 1.1//EN"
 "http://www.w3.org/Graphics/SVG/1.1/DTD/svg11.dtd">
<!-- Generated by graphviz version 7.0.2 (0)
 -->
<!-- Title: Library.RegistryHandler.VerificarNick Pages: 1 -->
<svg width="300pt" height="134pt"
 viewBox="0.00 0.00 300.00 134.00" xmlns="http://www.w3.org/2000/svg" xmlns:xlink="http://www.w3.org/1999/xlink">
<g id="graph0" class="graph" transform="scale(1 1) rotate(0) translate(4 130)">
<title>Library.RegistryHandler.VerificarNick</title>
<!-- Node1 -->
<g id="node1" class="node">
<title>Node1</title>
<g id="a_node1"><a xlink:title="Método para verificar el nickname de un Usuario">
<polygon fill="#999999" stroke="#666666" points="292,-78 164,-78 164,-48 292,-48 292,-78"/>
<text text-anchor="start" x="172" y="-66" font-family="Helvetica,sans-Serif" font-size="10.00">Library.RegistryHandler.</text>
<text text-anchor="middle" x="228" y="-55" font-family="Helvetica,sans-Serif" font-size="10.00">VerificarNick</text>
</a>
</g>
</g>
<!-- Node2 -->
<g id="node2" class="node">
<title>Node2</title>
<g id="a_node2"><a xlink:href="classLibrary_1_1RegistryHandler.html#a3a3c8dbcc470376d7f9082ed727e9cad" target="_top" xlink:title="Método para registrar un administrador">
<polygon fill="white" stroke="#666666" points="128,-126 0,-126 0,-96 128,-96 128,-126"/>
<text text-anchor="start" x="8" y="-114" font-family="Helvetica,sans-Serif" font-size="10.00">Library.RegistryHandler.</text>
<text text-anchor="middle" x="64" y="-103" font-family="Helvetica,sans-Serif" font-size="10.00">RegistrarAdministrador</text>
</a>
</g>
</g>
<!-- Node1&#45;&gt;Node2 -->
<g id="edge1" class="edge">
<title>Node1&#45;&gt;Node2</title>
<path fill="none" stroke="#63b8ff" d="M164.23,-81.6C148.63,-86.22 132.08,-91.13 117.05,-95.58"/>
<polygon fill="#63b8ff" stroke="#63b8ff" points="164.81,-85.08 173.4,-78.88 162.82,-78.37 164.81,-85.08"/>
</g>
<!-- Node3 -->
<g id="node3" class="node">
<title>Node3</title>
<g id="a_node3"><a xlink:href="classLibrary_1_1RegistryHandler.html#a9cea158f44e96feb3ee3b4cf8a2c166c" target="_top" xlink:title="Método para registrar un empleador">
<polygon fill="white" stroke="#666666" points="128,-78 0,-78 0,-48 128,-48 128,-78"/>
<text text-anchor="start" x="8" y="-66" font-family="Helvetica,sans-Serif" font-size="10.00">Library.RegistryHandler.</text>
<text text-anchor="middle" x="64" y="-55" font-family="Helvetica,sans-Serif" font-size="10.00">RegistrarEmpleador</text>
</a>
</g>
</g>
<!-- Node1&#45;&gt;Node3 -->
<g id="edge2" class="edge">
<title>Node1&#45;&gt;Node3</title>
<path fill="none" stroke="#63b8ff" d="M152.59,-63C144.53,-63 136.38,-63 128.46,-63"/>
<polygon fill="#63b8ff" stroke="#63b8ff" points="152.39,-66.5 162.39,-63 152.39,-59.5 152.39,-66.5"/>
</g>
<!-- Node4 -->
<g id="node4" class="node">
<title>Node4</title>
<g id="a_node4"><a xlink:href="classLibrary_1_1RegistryHandler.html#a0bf9704d7dc2ab9bf3cde59b66012d69" target="_top" xlink:title="Método para registrar un trabajador">
<polygon fill="white" stroke="#666666" points="128,-30 0,-30 0,0 128,0 128,-30"/>
<text text-anchor="start" x="8" y="-18" font-family="Helvetica,sans-Serif" font-size="10.00">Library.RegistryHandler.</text>
<text text-anchor="middle" x="64" y="-7" font-family="Helvetica,sans-Serif" font-size="10.00">RegistrarTrabajador</text>
</a>
</g>
</g>
<!-- Node1&#45;&gt;Node4 -->
<g id="edge3" class="edge">
<title>Node1&#45;&gt;Node4</title>
<path fill="none" stroke="#63b8ff" d="M164.23,-44.4C148.63,-39.78 132.08,-34.87 117.05,-30.42"/>
<polygon fill="#63b8ff" stroke="#63b8ff" points="162.82,-47.63 173.4,-47.12 164.81,-40.92 162.82,-47.63"/>
</g>
</g>
</svg>
