<?xml version="1.0" encoding="UTF-8" standalone="no"?>
<!DOCTYPE svg PUBLIC "-//W3C//DTD SVG 1.1//EN"
 "http://www.w3.org/Graphics/SVG/1.1/DTD/svg11.dtd">
<!-- Generated by graphviz version 7.0.2 (0)
 -->
<!-- Title: Library.ContratoHandler.AceptarSolicitud Pages: 1 -->
<svg width="464pt" height="86pt"
 viewBox="0.00 0.00 464.00 86.00" xmlns="http://www.w3.org/2000/svg" xmlns:xlink="http://www.w3.org/1999/xlink">
<g id="graph0" class="graph" transform="scale(1 1) rotate(0) translate(4 82)">
<title>Library.ContratoHandler.AceptarSolicitud</title>
<!-- Node1 -->
<g id="node1" class="node">
<title>Node1</title>
<g id="a_node1"><a xlink:title="Método para aceptar una solicitud">
<polygon fill="#999999" stroke="#666666" points="129,-54 0,-54 0,-24 129,-24 129,-54"/>
<text text-anchor="start" x="8" y="-42" font-family="Helvetica,sans-Serif" font-size="10.00">Library.ContratoHandler.</text>
<text text-anchor="middle" x="64.5" y="-31" font-family="Helvetica,sans-Serif" font-size="10.00">AceptarSolicitud</text>
</a>
</g>
</g>
<!-- Node2 -->
<g id="node2" class="node">
<title>Node2</title>
<g id="a_node2"><a xlink:href="classLibrary_1_1OfertaDeServicio.html#a317a1a53e5d0446eab1627651120cb02" target="_top" xlink:title="Método para obtener NickName de Ofertante">
<polygon fill="white" stroke="#666666" points="299,-78 165,-78 165,-48 299,-48 299,-78"/>
<text text-anchor="start" x="173" y="-66" font-family="Helvetica,sans-Serif" font-size="10.00">Library.OfertaDeServicio.</text>
<text text-anchor="middle" x="232" y="-55" font-family="Helvetica,sans-Serif" font-size="10.00">GetOfertante</text>
</a>
</g>
</g>
<!-- Node1&#45;&gt;Node2 -->
<g id="edge1" class="edge">
<title>Node1&#45;&gt;Node2</title>
<path fill="none" stroke="#63b8ff" d="M129.49,-48.28C137.34,-49.42 145.43,-50.59 153.45,-51.75"/>
<polygon fill="#63b8ff" stroke="#63b8ff" points="152.82,-55.2 163.22,-53.17 153.83,-48.27 152.82,-55.2"/>
</g>
<!-- Node3 -->
<g id="node3" class="node">
<title>Node3</title>
<g id="a_node3"><a xlink:href="classLibrary_1_1Solicitud.html#af5a3701c9bf3a3272239cfdbad4ca44c" target="_top" xlink:title="Método para conocer el estado de una oferta">
<polygon fill="white" stroke="#666666" points="294,-30 170,-30 170,0 294,0 294,-30"/>
<text text-anchor="start" x="178" y="-18" font-family="Helvetica,sans-Serif" font-size="10.00">Library.Solicitud.Recibir</text>
<text text-anchor="middle" x="232" y="-7" font-family="Helvetica,sans-Serif" font-size="10.00">Respuesta</text>
</a>
</g>
</g>
<!-- Node1&#45;&gt;Node3 -->
<g id="edge2" class="edge">
<title>Node1&#45;&gt;Node3</title>
<path fill="none" stroke="#63b8ff" d="M129.49,-29.72C138.97,-28.35 148.79,-26.92 158.43,-25.52"/>
<polygon fill="#63b8ff" stroke="#63b8ff" points="158.74,-29.02 168.13,-24.12 157.73,-22.09 158.74,-29.02"/>
</g>
<!-- Node4 -->
<g id="node4" class="node">
<title>Node4</title>
<g id="a_node4"><a xlink:href="classLibrary_1_1Solicitud.html#abd52f9a5723d6d08e2b3c4b1effc3bb3" target="_top" xlink:title="Método que inicia un trabajo, settea la fecha que fue aceptada y la máxima para calificar También cam...">
<polygon fill="white" stroke="#666666" points="456,-30 335,-30 335,0 456,0 456,-30"/>
<text text-anchor="start" x="343" y="-18" font-family="Helvetica,sans-Serif" font-size="10.00">Library.Solicitud.Iniciar</text>
<text text-anchor="middle" x="395.5" y="-7" font-family="Helvetica,sans-Serif" font-size="10.00">Trabajo</text>
</a>
</g>
</g>
<!-- Node3&#45;&gt;Node4 -->
<g id="edge3" class="edge">
<title>Node3&#45;&gt;Node4</title>
<path fill="none" stroke="#63b8ff" d="M294.06,-15C303.62,-15 313.58,-15 323.35,-15"/>
<polygon fill="#63b8ff" stroke="#63b8ff" points="323.18,-18.5 333.18,-15 323.18,-11.5 323.18,-18.5"/>
</g>
</g>
</svg>
