<?xml version="1.0" encoding="UTF-8" standalone="no"?>
<!DOCTYPE svg PUBLIC "-//W3C//DTD SVG 1.1//EN"
 "http://www.w3.org/Graphics/SVG/1.1/DTD/svg11.dtd">
<!-- Generated by graphviz version 7.0.2 (0)
 -->
<!-- Title: Library.Categoria.DarDeBaja Pages: 1 -->
<svg width="527pt" height="38pt"
 viewBox="0.00 0.00 527.00 38.00" xmlns="http://www.w3.org/2000/svg" xmlns:xlink="http://www.w3.org/1999/xlink">
<g id="graph0" class="graph" transform="scale(1 1) rotate(0) translate(4 34)">
<title>Library.Categoria.DarDeBaja</title>
<!-- Node1 -->
<g id="node1" class="node">
<title>Node1</title>
<g id="a_node1"><a xlink:title="Método para dar de baja la categoría">
<polygon fill="#999999" stroke="#666666" points="519,-24.5 370,-24.5 370,-5.5 519,-5.5 519,-24.5"/>
<text text-anchor="middle" x="444.5" y="-12.5" font-family="Helvetica,sans-Serif" font-size="10.00">Library.Categoria.DarDeBaja</text>
</a>
</g>
</g>
<!-- Node2 -->
<g id="node2" class="node">
<title>Node2</title>
<g id="a_node2"><a xlink:href="classLibrary_1_1CategoriasCatalog.html#a3e0b35f2e1dbf53a7dddd9f46fd038b8" target="_top" xlink:title="Método para eliminar una categoría">
<polygon fill="white" stroke="#666666" points="334,-30 197,-30 197,0 334,0 334,-30"/>
<text text-anchor="start" x="205" y="-18" font-family="Helvetica,sans-Serif" font-size="10.00">Library.CategoriasCatalog.</text>
<text text-anchor="middle" x="265.5" y="-7" font-family="Helvetica,sans-Serif" font-size="10.00">RemoveCategoria</text>
</a>
</g>
</g>
<!-- Node1&#45;&gt;Node2 -->
<g id="edge1" class="edge">
<title>Node1&#45;&gt;Node2</title>
<path fill="none" stroke="#63b8ff" d="M358.33,-15C350.24,-15 342.12,-15 334.22,-15"/>
<polygon fill="#63b8ff" stroke="#63b8ff" points="358.2,-18.5 368.2,-15 358.2,-11.5 358.2,-18.5"/>
</g>
<!-- Node3 -->
<g id="node3" class="node">
<title>Node3</title>
<g id="a_node3"><a xlink:href="classLibrary_1_1OfertasHandler.html#afefa462e1fe30165a2985f3ec5daa760" target="_top" xlink:title="Método para eliminar una categoría">
<polygon fill="white" stroke="#666666" points="161,-30 0,-30 0,0 161,0 161,-30"/>
<text text-anchor="start" x="8" y="-18" font-family="Helvetica,sans-Serif" font-size="10.00">Library.OfertasHandler.Eliminar</text>
<text text-anchor="middle" x="80.5" y="-7" font-family="Helvetica,sans-Serif" font-size="10.00">Categoria</text>
</a>
</g>
</g>
<!-- Node2&#45;&gt;Node3 -->
<g id="edge2" class="edge">
<title>Node2&#45;&gt;Node3</title>
<path fill="none" stroke="#63b8ff" d="M185.16,-15C177.26,-15 169.23,-15 161.33,-15"/>
<polygon fill="#63b8ff" stroke="#63b8ff" points="185.1,-18.5 195.1,-15 185.1,-11.5 185.1,-18.5"/>
</g>
</g>
</svg>
