<?xml version="1.0" encoding="UTF-8" standalone="no"?>
<!DOCTYPE svg PUBLIC "-//W3C//DTD SVG 1.1//EN"
 "http://www.w3.org/Graphics/SVG/1.1/DTD/svg11.dtd">
<!-- Generated by graphviz version 7.0.2 (0)
 -->
<!-- Title: Library.Usuario Pages: 1 -->
<svg width="375pt" height="478pt"
 viewBox="0.00 0.00 374.50 478.00" xmlns="http://www.w3.org/2000/svg" xmlns:xlink="http://www.w3.org/1999/xlink">
<g id="graph0" class="graph" transform="scale(1 1) rotate(0) translate(4 474)">
<title>Library.Usuario</title>
<!-- Node1 -->
<g id="node1" class="node">
<title>Node1</title>
<g id="a_node1"><a xlink:title="Clase abstracta Usuario para que luego hereden Administrador, Trabajador y Empleador">
<polygon fill="#999999" stroke="#666666" points="247,-371 136,-371 136,-132 247,-132 247,-371"/>
<text text-anchor="middle" x="191.5" y="-359" font-family="Helvetica,sans-Serif" font-size="10.00">{Library.Usuario</text>
<text text-anchor="start" x="144" y="-348" font-family="Helvetica,sans-Serif" font-size="10.00">|+ Nick</text>
<text text-anchor="start" x="144" y="-337" font-family="Helvetica,sans-Serif" font-size="10.00">+ Nombre</text>
<text text-anchor="start" x="144" y="-326" font-family="Helvetica,sans-Serif" font-size="10.00">+ Apellido</text>
<text text-anchor="start" x="144" y="-315" font-family="Helvetica,sans-Serif" font-size="10.00">+ FechaNacimiento</text>
<text text-anchor="start" x="144" y="-304" font-family="Helvetica,sans-Serif" font-size="10.00">+ Cedula</text>
<text text-anchor="start" x="144" y="-293" font-family="Helvetica,sans-Serif" font-size="10.00">+ Telefono</text>
<text text-anchor="start" x="144" y="-282" font-family="Helvetica,sans-Serif" font-size="10.00">+ Ubicacion</text>
<text text-anchor="start" x="144" y="-271" font-family="Helvetica,sans-Serif" font-size="10.00">+ Correo</text>
<text text-anchor="start" x="144" y="-260" font-family="Helvetica,sans-Serif" font-size="10.00">+ Activo</text>
<text text-anchor="start" x="144" y="-249" font-family="Helvetica,sans-Serif" font-size="10.00">+ Contraseña</text>
<text text-anchor="start" x="144" y="-238" font-family="Helvetica,sans-Serif" font-size="10.00">+ Tipo</text>
<text text-anchor="start" x="144" y="-227" font-family="Helvetica,sans-Serif" font-size="10.00">|+ GetTipo()</text>
<text text-anchor="start" x="144" y="-216" font-family="Helvetica,sans-Serif" font-size="10.00">+ GetContacto()</text>
<text text-anchor="start" x="144" y="-205" font-family="Helvetica,sans-Serif" font-size="10.00">+ GetPublicInfo()</text>
<text text-anchor="start" x="144" y="-194" font-family="Helvetica,sans-Serif" font-size="10.00">+ VerifyContraseña()</text>
<text text-anchor="start" x="144" y="-183" font-family="Helvetica,sans-Serif" font-size="10.00">+ IsActive()</text>
<text text-anchor="start" x="144" y="-172" font-family="Helvetica,sans-Serif" font-size="10.00">+ DarDeBaja()</text>
<text text-anchor="start" x="144" y="-161" font-family="Helvetica,sans-Serif" font-size="10.00">+ Reactivar()</text>
<text text-anchor="start" x="144" y="-150" font-family="Helvetica,sans-Serif" font-size="10.00"># SetContraseña()</text>
<text text-anchor="middle" x="191.5" y="-139" font-family="Helvetica,sans-Serif" font-size="10.00">}</text>
</a>
</g>
</g>
<!-- Node3 -->
<g id="node3" class="node">
<title>Node3</title>
<g id="a_node3"><a xlink:href="classLibrary_1_1Administrador.html" target="_top" xlink:title="Clase Administrador que hereda de Usuario">
<polygon fill="white" stroke="#666666" points="121,-68.5 0,-68.5 0,-27.5 121,-27.5 121,-68.5"/>
<text text-anchor="middle" x="60.5" y="-56.5" font-family="Helvetica,sans-Serif" font-size="10.00">{Library.Administrador</text>
<text text-anchor="start" x="8" y="-45.5" font-family="Helvetica,sans-Serif" font-size="10.00">||+ Administrador()</text>
<text text-anchor="middle" x="60.5" y="-34.5" font-family="Helvetica,sans-Serif" font-size="10.00">}</text>
</a>
</g>
</g>
<!-- Node1&#45;&gt;Node3 -->
<g id="edge2" class="edge">
<title>Node1&#45;&gt;Node3</title>
<path fill="none" stroke="#63b8ff" d="M129.31,-154.84C108.12,-122.25 86.46,-88.94 73.25,-68.61"/>
<polygon fill="none" stroke="#63b8ff" points="126.35,-156.72 134.74,-163.19 132.22,-152.9 126.35,-156.72"/>
</g>
<!-- Node4 -->
<g id="node4" class="node">
<title>Node4</title>
<g id="a_node4"><a xlink:href="classLibrary_1_1Empleador.html" target="_top" xlink:title="Clase Empleador que hereda de Usuario">
<polygon fill="white" stroke="#666666" points="244,-85 139,-85 139,-11 244,-11 244,-85"/>
<text text-anchor="middle" x="191.5" y="-73" font-family="Helvetica,sans-Serif" font-size="10.00">{Library.Empleador</text>
<text text-anchor="start" x="147" y="-62" font-family="Helvetica,sans-Serif" font-size="10.00">|+ Reputacion</text>
<text text-anchor="start" x="147" y="-51" font-family="Helvetica,sans-Serif" font-size="10.00">|+ Empleador()</text>
<text text-anchor="start" x="147" y="-40" font-family="Helvetica,sans-Serif" font-size="10.00">+ Calificar()</text>
<text text-anchor="start" x="147" y="-29" font-family="Helvetica,sans-Serif" font-size="10.00">+ GetReputacion()</text>
<text text-anchor="middle" x="191.5" y="-18" font-family="Helvetica,sans-Serif" font-size="10.00">}</text>
</a>
</g>
</g>
<!-- Node1&#45;&gt;Node4 -->
<g id="edge3" class="edge">
<title>Node1&#45;&gt;Node4</title>
<path fill="none" stroke="#63b8ff" d="M191.5,-120.32C191.5,-107.72 191.5,-95.79 191.5,-85.43"/>
<polygon fill="none" stroke="#63b8ff" points="188,-120.03 191.5,-130.03 195,-120.03 188,-120.03"/>
</g>
<!-- Node5 -->
<g id="node5" class="node">
<title>Node5</title>
<g id="a_node5"><a xlink:href="classLibrary_1_1Trabajador.html" target="_top" xlink:title="Clase que hereda de">
<polygon fill="white" stroke="#666666" points="366.5,-96 262.5,-96 262.5,0 366.5,0 366.5,-96"/>
<text text-anchor="middle" x="314.5" y="-84" font-family="Helvetica,sans-Serif" font-size="10.00">{Library.Trabajador</text>
<text text-anchor="start" x="270.5" y="-73" font-family="Helvetica,sans-Serif" font-size="10.00">|+ Reputacion</text>
<text text-anchor="start" x="270.5" y="-62" font-family="Helvetica,sans-Serif" font-size="10.00">+ Activo</text>
<text text-anchor="start" x="270.5" y="-51" font-family="Helvetica,sans-Serif" font-size="10.00">|+ Trabajador()</text>
<text text-anchor="start" x="270.5" y="-40" font-family="Helvetica,sans-Serif" font-size="10.00">+ Calificar()</text>
<text text-anchor="start" x="270.5" y="-29" font-family="Helvetica,sans-Serif" font-size="10.00">+ GetReputacion()</text>
<text text-anchor="start" x="270.5" y="-18" font-family="Helvetica,sans-Serif" font-size="10.00">+ GetContecto()</text>
<text text-anchor="middle" x="314.5" y="-7" font-family="Helvetica,sans-Serif" font-size="10.00">}</text>
</a>
</g>
</g>
<!-- Node1&#45;&gt;Node5 -->
<g id="edge4" class="edge">
<title>Node1&#45;&gt;Node5</title>
<path fill="none" stroke="#63b8ff" d="M253.31,-149.24C264.6,-130.75 275.86,-112.29 285.6,-96.35"/>
<polygon fill="none" stroke="#63b8ff" points="250.43,-147.24 248.21,-157.6 256.41,-150.89 250.43,-147.24"/>
</g>
<!-- Node2 -->
<g id="node2" class="node">
<title>Node2</title>
<g id="a_node2"><a xlink:href="interfaceLibrary_1_1IDesactivable.html" target="_top" xlink:title="Interfaz para el manejo de actividad de un usuario, una categoría, etc.">
<polygon fill="white" stroke="#666666" points="237.5,-470 145.5,-470 145.5,-407 237.5,-407 237.5,-470"/>
<text text-anchor="middle" x="191.5" y="-458" font-family="Helvetica,sans-Serif" font-size="10.00">{IDesactivable</text>
<text text-anchor="start" x="153.5" y="-447" font-family="Helvetica,sans-Serif" font-size="10.00">||+ DarDeBaja()</text>
<text text-anchor="start" x="153.5" y="-436" font-family="Helvetica,sans-Serif" font-size="10.00">+ Reactivar()</text>
<text text-anchor="start" x="153.5" y="-425" font-family="Helvetica,sans-Serif" font-size="10.00">+ IsActive()</text>
<text text-anchor="middle" x="191.5" y="-414" font-family="Helvetica,sans-Serif" font-size="10.00">}</text>
</a>
</g>
</g>
<!-- Node2&#45;&gt;Node1 -->
<g id="edge1" class="edge">
<title>Node2&#45;&gt;Node1</title>
<path fill="none" stroke="#63b8ff" d="M191.5,-395.05C191.5,-387.62 191.5,-379.58 191.5,-371.22"/>
<polygon fill="none" stroke="#63b8ff" points="188,-395.02 191.5,-405.02 195,-395.02 188,-395.02"/>
</g>
</g>
</svg>
