<?xml version="1.0" encoding="UTF-8" standalone="no"?>
<!DOCTYPE svg PUBLIC "-//W3C//DTD SVG 1.1//EN"
 "http://www.w3.org/Graphics/SVG/1.1/DTD/svg11.dtd">
<!-- Generated by graphviz version 7.0.2 (0)
 -->
<!-- Title: Library.OfertasHandler.CrearCategoria Pages: 1 -->
<svg width="491pt" height="60pt"
 viewBox="0.00 0.00 491.00 60.00" xmlns="http://www.w3.org/2000/svg" xmlns:xlink="http://www.w3.org/1999/xlink">
<g id="graph0" class="graph" transform="scale(1 1) rotate(0) translate(4 56)">
<title>Library.OfertasHandler.CrearCategoria</title>
<!-- Node1 -->
<g id="node1" class="node">
<title>Node1</title>
<g id="a_node1"><a xlink:title="Método para crear una categoria">
<polygon fill="#999999" stroke="#666666" points="149,-30 0,-30 0,0 149,0 149,-30"/>
<text text-anchor="start" x="8" y="-18" font-family="Helvetica,sans-Serif" font-size="10.00">Library.OfertasHandler.Crear</text>
<text text-anchor="middle" x="74.5" y="-7" font-family="Helvetica,sans-Serif" font-size="10.00">Categoria</text>
</a>
</g>
</g>
<!-- Node2 -->
<g id="node2" class="node">
<title>Node2</title>
<g id="a_node2"><a xlink:href="classLibrary_1_1CategoriasCatalog.html#a9cfffa528cb849e731015b40d8040672" target="_top" xlink:title="Método para agregar una nueva categoría al catálogo">
<polygon fill="white" stroke="#666666" points="322,-52 185,-52 185,-22 322,-22 322,-52"/>
<text text-anchor="start" x="193" y="-40" font-family="Helvetica,sans-Serif" font-size="10.00">Library.CategoriasCatalog.</text>
<text text-anchor="middle" x="253.5" y="-29" font-family="Helvetica,sans-Serif" font-size="10.00">AddCategoria</text>
</a>
</g>
</g>
<!-- Node1&#45;&gt;Node2 -->
<g id="edge1" class="edge">
<title>Node1&#45;&gt;Node2</title>
<path fill="none" stroke="#63b8ff" d="M149.28,-24.17C157.28,-25.16 165.44,-26.18 173.49,-27.18"/>
<polygon fill="#63b8ff" stroke="#63b8ff" points="172.92,-30.64 183.27,-28.4 173.78,-23.69 172.92,-30.64"/>
</g>
<!-- Node3 -->
<g id="node3" class="node">
<title>Node3</title>
<g id="a_node3"><a xlink:href="classLibrary_1_1Usuario.html#a33099664c3da6b61454db7c3343deceb" target="_top" xlink:title="Checkea que tipo de usuario es, puede ser Administrador, Trabajador o Empleador">
<polygon fill="white" stroke="#666666" points="483,-24.5 358,-24.5 358,-5.5 483,-5.5 483,-24.5"/>
<text text-anchor="middle" x="420.5" y="-12.5" font-family="Helvetica,sans-Serif" font-size="10.00">Library.Usuario.GetTipo</text>
</a>
</g>
</g>
<!-- Node1&#45;&gt;Node3 -->
<g id="edge3" class="edge">
<title>Node1&#45;&gt;Node3</title>
<path fill="none" stroke="#63b8ff" d="M149.42,-13.47C161.32,-13.27 173.5,-13.11 185,-13 245.89,-12.44 261.11,-12.38 322,-13 329.82,-13.08 338,-13.2 346.15,-13.33"/>
<polygon fill="#63b8ff" stroke="#63b8ff" points="346.03,-16.83 356.1,-13.51 346.16,-9.83 346.03,-16.83"/>
</g>
<!-- Node2&#45;&gt;Node3 -->
<g id="edge2" class="edge">
<title>Node2&#45;&gt;Node3</title>
<path fill="none" stroke="#63b8ff" d="M322.09,-27.99C330.07,-26.92 338.25,-25.83 346.31,-24.76"/>
<polygon fill="#63b8ff" stroke="#63b8ff" points="346.64,-28.25 356.09,-23.46 345.71,-21.31 346.64,-28.25"/>
</g>
</g>
</svg>
