<?xml version="1.0" encoding="UTF-8" standalone="no"?>
<!DOCTYPE svg PUBLIC "-//W3C//DTD SVG 1.1//EN"
 "http://www.w3.org/Graphics/SVG/1.1/DTD/svg11.dtd">
<!-- Generated by graphviz version 7.0.2 (0)
 -->
<!-- Title: Library.RegistryHandler.GetUsuario Pages: 1 -->
<svg width="341pt" height="76pt"
 viewBox="0.00 0.00 341.00 75.50" xmlns="http://www.w3.org/2000/svg" xmlns:xlink="http://www.w3.org/1999/xlink">
<g id="graph0" class="graph" transform="scale(1 1) rotate(0) translate(4 71.5)">
<title>Library.RegistryHandler.GetUsuario</title>
<!-- Node1 -->
<g id="node1" class="node">
<title>Node1</title>
<g id="a_node1"><a xlink:title="Método para obtener los datos de un Usuario">
<polygon fill="#999999" stroke="#666666" points="128,-45.5 0,-45.5 0,-15.5 128,-15.5 128,-45.5"/>
<text text-anchor="start" x="8" y="-33.5" font-family="Helvetica,sans-Serif" font-size="10.00">Library.RegistryHandler.</text>
<text text-anchor="middle" x="64" y="-22.5" font-family="Helvetica,sans-Serif" font-size="10.00">GetUsuario</text>
</a>
</g>
</g>
<!-- Node2 -->
<g id="node2" class="node">
<title>Node2</title>
<g id="a_node2"><a xlink:href="classLibrary_1_1UsuariosCatalog.html#a6a3f81b438afc68cd3809e603728f9bb" target="_top" xlink:title="Método para conocer los usuarios">
<polygon fill="white" stroke="#666666" points="312.5,-67.5 184.5,-67.5 184.5,-37.5 312.5,-37.5 312.5,-67.5"/>
<text text-anchor="start" x="192.5" y="-55.5" font-family="Helvetica,sans-Serif" font-size="10.00">Library.UsuariosCatalog.</text>
<text text-anchor="middle" x="248.5" y="-44.5" font-family="Helvetica,sans-Serif" font-size="10.00">GetUsuarios</text>
</a>
</g>
</g>
<!-- Node1&#45;&gt;Node2 -->
<g id="edge1" class="edge">
<title>Node1&#45;&gt;Node2</title>
<path fill="none" stroke="#63b8ff" d="M128.32,-38.13C142.76,-39.87 158.23,-41.74 173.08,-43.53"/>
<polygon fill="#63b8ff" stroke="#63b8ff" points="172.44,-46.98 182.79,-44.7 173.28,-40.03 172.44,-46.98"/>
</g>
<!-- Node3 -->
<g id="node3" class="node">
<title>Node3</title>
<g id="a_node3"><a xlink:href="classLibrary_1_1Usuario.html#acbdfa6138482340a11d788735778f6ec" target="_top" xlink:title="Método verificar que la contraseña sea igual a la anteriormente ingresada al iniciar sesión">
<polygon fill="white" stroke="#666666" points="333,-19 164,-19 164,0 333,0 333,-19"/>
<text text-anchor="middle" x="248.5" y="-7" font-family="Helvetica,sans-Serif" font-size="10.00">Library.Usuario.VerifyContraseña</text>
</a>
</g>
</g>
<!-- Node1&#45;&gt;Node3 -->
<g id="edge2" class="edge">
<title>Node1&#45;&gt;Node3</title>
<path fill="none" stroke="#63b8ff" d="M128.32,-23.21C136.17,-22.31 144.34,-21.37 152.54,-20.43"/>
<polygon fill="#63b8ff" stroke="#63b8ff" points="152.68,-23.93 162.22,-19.31 151.88,-16.98 152.68,-23.93"/>
</g>
</g>
</svg>
