<?xml version="1.0" encoding="UTF-8" standalone="no"?>
<!DOCTYPE svg PUBLIC "-//W3C//DTD SVG 1.1//EN"
 "http://www.w3.org/Graphics/SVG/1.1/DTD/svg11.dtd">
<!-- Generated by graphviz version 7.0.2 (0)
 -->
<!-- Title: Library.Solicitud.CalificarTrabajador Pages: 1 -->
<svg width="478pt" height="124pt"
 viewBox="0.00 0.00 478.00 124.00" xmlns="http://www.w3.org/2000/svg" xmlns:xlink="http://www.w3.org/1999/xlink">
<g id="graph0" class="graph" transform="scale(1 1) rotate(0) translate(4 120)">
<title>Library.Solicitud.CalificarTrabajador</title>
<!-- Node1 -->
<g id="node1" class="node">
<title>Node1</title>
<g id="a_node1"><a xlink:title="Método para calificar un trabajador">
<polygon fill="#999999" stroke="#666666" points="128,-94 0,-94 0,-64 128,-64 128,-94"/>
<text text-anchor="start" x="8" y="-82" font-family="Helvetica,sans-Serif" font-size="10.00">Library.Solicitud.Calificar</text>
<text text-anchor="middle" x="64" y="-71" font-family="Helvetica,sans-Serif" font-size="10.00">Trabajador</text>
</a>
</g>
</g>
<!-- Node2 -->
<g id="node2" class="node">
<title>Node2</title>
<g id="a_node2"><a xlink:href="classLibrary_1_1Solicitud.html#a3f28506b2bd1231cf55a2652d876d2ea" target="_top" xlink:title="Método para conocer si una oferta fue calificada">
<polygon fill="white" stroke="#666666" points="295,-110.5 167,-110.5 167,-91.5 295,-91.5 295,-110.5"/>
<text text-anchor="middle" x="231" y="-98.5" font-family="Helvetica,sans-Serif" font-size="10.00">Library.Solicitud.IsRated</text>
</a>
</g>
</g>
<!-- Node1&#45;&gt;Node2 -->
<g id="edge1" class="edge">
<title>Node1&#45;&gt;Node2</title>
<path fill="none" stroke="#63b8ff" d="M128.32,-87.44C137.14,-88.62 146.27,-89.84 155.27,-91.04"/>
<polygon fill="#63b8ff" stroke="#63b8ff" points="154.7,-94.49 165.08,-92.34 155.63,-87.55 154.7,-94.49"/>
</g>
<!-- Node4 -->
<g id="node4" class="node">
<title>Node4</title>
<g id="a_node4"><a xlink:href="classLibrary_1_1OfertaDeServicio.html#aeed25698e68c88cf5374dd5afe732b5f" target="_top" xlink:title="Método para calificar la oferta en cuestión">
<polygon fill="white" stroke="#666666" points="298,-73 164,-73 164,-43 298,-43 298,-73"/>
<text text-anchor="start" x="172" y="-61" font-family="Helvetica,sans-Serif" font-size="10.00">Library.OfertaDeServicio.</text>
<text text-anchor="middle" x="231" y="-50" font-family="Helvetica,sans-Serif" font-size="10.00">RateMe</text>
</a>
</g>
</g>
<!-- Node1&#45;&gt;Node4 -->
<g id="edge3" class="edge">
<title>Node1&#45;&gt;Node4</title>
<path fill="none" stroke="#63b8ff" d="M128.32,-70.94C136.17,-69.94 144.26,-68.91 152.29,-67.89"/>
<polygon fill="#63b8ff" stroke="#63b8ff" points="152.58,-71.38 162.06,-66.65 151.7,-64.44 152.58,-71.38"/>
</g>
<!-- Node3 -->
<g id="node3" class="node">
<title>Node3</title>
<g id="a_node3"><a xlink:href="classLibrary_1_1OfertaDeServicio.html#a7d3b09276de28b53109097ca44c76ac8" target="_top" xlink:title="Método para obtener la calificación dada a la oferta tras ser finalizada">
<polygon fill="white" stroke="#666666" points="469,-116 335,-116 335,-86 469,-86 469,-116"/>
<text text-anchor="start" x="343" y="-104" font-family="Helvetica,sans-Serif" font-size="10.00">Library.OfertaDeServicio.</text>
<text text-anchor="middle" x="402" y="-93" font-family="Helvetica,sans-Serif" font-size="10.00">GetCalificacion</text>
</a>
</g>
</g>
<!-- Node2&#45;&gt;Node3 -->
<g id="edge2" class="edge">
<title>Node2&#45;&gt;Node3</title>
<path fill="none" stroke="#63b8ff" d="M295.41,-101C304.53,-101 314.01,-101 323.37,-101"/>
<polygon fill="#63b8ff" stroke="#63b8ff" points="323.18,-104.5 333.18,-101 323.18,-97.5 323.18,-104.5"/>
</g>
<!-- Node5 -->
<g id="node5" class="node">
<title>Node5</title>
<g id="a_node5"><a xlink:href="classLibrary_1_1Trabajador.html#a6f55f5fa1d9bdd301639a0ac3d87b58e" target="_top" xlink:title="Método para calificar un usuario">
<polygon fill="white" stroke="#666666" points="470,-67.5 334,-67.5 334,-48.5 470,-48.5 470,-67.5"/>
<text text-anchor="middle" x="402" y="-55.5" font-family="Helvetica,sans-Serif" font-size="10.00">Library.Trabajador.Calificar</text>
</a>
</g>
</g>
<!-- Node4&#45;&gt;Node5 -->
<g id="edge4" class="edge">
<title>Node4&#45;&gt;Node5</title>
<path fill="none" stroke="#63b8ff" d="M298.31,-58C306.23,-58 314.37,-58 322.44,-58"/>
<polygon fill="#63b8ff" stroke="#63b8ff" points="322.26,-61.5 332.26,-58 322.26,-54.5 322.26,-61.5"/>
</g>
<!-- Node6 -->
<g id="node6" class="node">
<title>Node6</title>
<g id="a_node6"><a xlink:href="classLibrary_1_1OfertaDeServicio.html#a492d374e602fdcdc4053c1dc182ad32c" target="_top" xlink:title="Método para verificar si fue calificada la oferta">
<polygon fill="white" stroke="#666666" points="469,-30 335,-30 335,0 469,0 469,-30"/>
<text text-anchor="start" x="343" y="-18" font-family="Helvetica,sans-Serif" font-size="10.00">Library.OfertaDeServicio.</text>
<text text-anchor="middle" x="402" y="-7" font-family="Helvetica,sans-Serif" font-size="10.00">IsRated</text>
</a>
</g>
</g>
<!-- Node4&#45;&gt;Node6 -->
<g id="edge5" class="edge">
<title>Node4&#45;&gt;Node6</title>
<path fill="none" stroke="#63b8ff" d="M292.54,-42.6C304.43,-39.57 317.01,-36.37 329.23,-33.26"/>
<polygon fill="#63b8ff" stroke="#63b8ff" points="330.02,-36.67 338.85,-30.81 328.3,-29.89 330.02,-36.67"/>
</g>
</g>
</svg>
