<?xml version="1.0" encoding="UTF-8" standalone="no"?>
<!DOCTYPE svg PUBLIC "-//W3C//DTD SVG 1.1//EN"
 "http://www.w3.org/Graphics/SVG/1.1/DTD/svg11.dtd">
<!-- Generated by graphviz version 7.0.2 (0)
 -->
<!-- Title: Library.RegistryHandler.GetEmpleadores Pages: 1 -->
<svg width="300pt" height="76pt"
 viewBox="0.00 0.00 300.00 75.50" xmlns="http://www.w3.org/2000/svg" xmlns:xlink="http://www.w3.org/1999/xlink">
<g id="graph0" class="graph" transform="scale(1 1) rotate(0) translate(4 71.5)">
<title>Library.RegistryHandler.GetEmpleadores</title>
<!-- Node1 -->
<g id="node1" class="node">
<title>Node1</title>
<g id="a_node1"><a xlink:title="Método para obtener la lista de empleadores">
<polygon fill="#999999" stroke="#666666" points="128,-51 0,-51 0,-21 128,-21 128,-51"/>
<text text-anchor="start" x="8" y="-39" font-family="Helvetica,sans-Serif" font-size="10.00">Library.RegistryHandler.</text>
<text text-anchor="middle" x="64" y="-28" font-family="Helvetica,sans-Serif" font-size="10.00">GetEmpleadores</text>
</a>
</g>
</g>
<!-- Node2 -->
<g id="node2" class="node">
<title>Node2</title>
<g id="a_node2"><a xlink:href="classLibrary_1_1Usuario.html#a33099664c3da6b61454db7c3343deceb" target="_top" xlink:title="Checkea que tipo de usuario es, puede ser Administrador, Trabajador o Empleador">
<polygon fill="white" stroke="#666666" points="290.5,-67.5 165.5,-67.5 165.5,-48.5 290.5,-48.5 290.5,-67.5"/>
<text text-anchor="middle" x="228" y="-55.5" font-family="Helvetica,sans-Serif" font-size="10.00">Library.Usuario.GetTipo</text>
</a>
</g>
</g>
<!-- Node1&#45;&gt;Node2 -->
<g id="edge1" class="edge">
<title>Node1&#45;&gt;Node2</title>
<path fill="none" stroke="#63b8ff" d="M128.1,-44.57C136.56,-45.72 145.3,-46.9 153.91,-48.07"/>
<polygon fill="#63b8ff" stroke="#63b8ff" points="153.26,-51.52 163.64,-49.4 154.2,-44.58 153.26,-51.52"/>
</g>
<!-- Node3 -->
<g id="node3" class="node">
<title>Node3</title>
<g id="a_node3"><a xlink:href="classLibrary_1_1UsuariosCatalog.html#a6a3f81b438afc68cd3809e603728f9bb" target="_top" xlink:title="Método para conocer los usuarios">
<polygon fill="white" stroke="#666666" points="292,-30 164,-30 164,0 292,0 292,-30"/>
<text text-anchor="start" x="172" y="-18" font-family="Helvetica,sans-Serif" font-size="10.00">Library.UsuariosCatalog.</text>
<text text-anchor="middle" x="228" y="-7" font-family="Helvetica,sans-Serif" font-size="10.00">GetUsuarios</text>
</a>
</g>
</g>
<!-- Node1&#45;&gt;Node3 -->
<g id="edge2" class="edge">
<title>Node1&#45;&gt;Node3</title>
<path fill="none" stroke="#63b8ff" d="M128.1,-27.82C136.01,-26.8 144.16,-25.74 152.23,-24.69"/>
<polygon fill="#63b8ff" stroke="#63b8ff" points="152.57,-28.18 162.04,-23.42 151.67,-21.24 152.57,-28.18"/>
</g>
</g>
</svg>
