<?xml version="1.0" encoding="UTF-8" standalone="no"?>
<!DOCTYPE svg PUBLIC "-//W3C//DTD SVG 1.1//EN"
 "http://www.w3.org/Graphics/SVG/1.1/DTD/svg11.dtd">
<!-- Generated by graphviz version 7.0.2 (0)
 -->
<!-- Title: Library.OfertaDeServicio.IsRated Pages: 1 -->
<svg width="476pt" height="76pt"
 viewBox="0.00 0.00 476.00 75.50" xmlns="http://www.w3.org/2000/svg" xmlns:xlink="http://www.w3.org/1999/xlink">
<g id="graph0" class="graph" transform="scale(1 1) rotate(0) translate(4 71.5)">
<title>Library.OfertaDeServicio.IsRated</title>
<!-- Node1 -->
<g id="node1" class="node">
<title>Node1</title>
<g id="a_node1"><a xlink:title="Método para verificar si fue calificada la oferta">
<polygon fill="#999999" stroke="#666666" points="468,-45.5 334,-45.5 334,-15.5 468,-15.5 468,-45.5"/>
<text text-anchor="start" x="342" y="-33.5" font-family="Helvetica,sans-Serif" font-size="10.00">Library.OfertaDeServicio.</text>
<text text-anchor="middle" x="401" y="-22.5" font-family="Helvetica,sans-Serif" font-size="10.00">IsRated</text>
</a>
</g>
</g>
<!-- Node2 -->
<g id="node2" class="node">
<title>Node2</title>
<g id="a_node2"><a xlink:href="classLibrary_1_1OfertaDeServicio.html#aeed25698e68c88cf5374dd5afe732b5f" target="_top" xlink:title="Método para calificar la oferta en cuestión">
<polygon fill="white" stroke="#666666" points="298,-45.5 164,-45.5 164,-15.5 298,-15.5 298,-45.5"/>
<text text-anchor="start" x="172" y="-33.5" font-family="Helvetica,sans-Serif" font-size="10.00">Library.OfertaDeServicio.</text>
<text text-anchor="middle" x="231" y="-22.5" font-family="Helvetica,sans-Serif" font-size="10.00">RateMe</text>
</a>
</g>
</g>
<!-- Node1&#45;&gt;Node2 -->
<g id="edge1" class="edge">
<title>Node1&#45;&gt;Node2</title>
<path fill="none" stroke="#63b8ff" d="M322.11,-30.5C314.21,-30.5 306.23,-30.5 298.47,-30.5"/>
<polygon fill="#63b8ff" stroke="#63b8ff" points="322.09,-34 332.09,-30.5 322.09,-27 322.09,-34"/>
</g>
<!-- Node3 -->
<g id="node3" class="node">
<title>Node3</title>
<g id="a_node3"><a xlink:href="classLibrary_1_1Solicitud.html#a7f50425869d0aad5d0c0f7e6abe42492" target="_top" xlink:title="Método para calificar un trabajador">
<polygon fill="white" stroke="#666666" points="128,-67.5 0,-67.5 0,-37.5 128,-37.5 128,-67.5"/>
<text text-anchor="start" x="8" y="-55.5" font-family="Helvetica,sans-Serif" font-size="10.00">Library.Solicitud.Calificar</text>
<text text-anchor="middle" x="64" y="-44.5" font-family="Helvetica,sans-Serif" font-size="10.00">Trabajador</text>
</a>
</g>
</g>
<!-- Node2&#45;&gt;Node3 -->
<g id="edge2" class="edge">
<title>Node2&#45;&gt;Node3</title>
<path fill="none" stroke="#63b8ff" d="M152.53,-40.83C144.48,-41.9 136.37,-42.98 128.49,-44.03"/>
<polygon fill="#63b8ff" stroke="#63b8ff" points="152.89,-44.31 162.34,-39.52 151.96,-37.37 152.89,-44.31"/>
</g>
<!-- Node4 -->
<g id="node4" class="node">
<title>Node4</title>
<g id="a_node4"><a xlink:href="classLibrary_1_1Solicitud.html#a2b9a4efefd35c16aca1099d7997c286e" target="_top" xlink:title="Método para actualizar una calificación en caso que se haga dentro del plazo. Si excede la fecha lími...">
<polygon fill="white" stroke="#666666" points="127,-19 1,-19 1,0 127,0 127,-19"/>
<text text-anchor="middle" x="64" y="-7" font-family="Helvetica,sans-Serif" font-size="10.00">Library.Solicitud.Update</text>
</a>
</g>
</g>
<!-- Node2&#45;&gt;Node4 -->
<g id="edge3" class="edge">
<title>Node2&#45;&gt;Node4</title>
<path fill="none" stroke="#63b8ff" d="M152.47,-20.63C144.07,-19.56 135.61,-18.49 127.43,-17.45"/>
<polygon fill="#63b8ff" stroke="#63b8ff" points="151.98,-24.1 162.34,-21.89 152.86,-17.15 151.98,-24.1"/>
</g>
</g>
</svg>
