<?xml version="1.0" encoding="UTF-8" standalone="no"?>
<!DOCTYPE svg PUBLIC "-//W3C//DTD SVG 1.1//EN"
 "http://www.w3.org/Graphics/SVG/1.1/DTD/svg11.dtd">
<!-- Generated by graphviz version 7.0.2 (0)
 -->
<!-- Title: Library.Usuario.DarDeBaja Pages: 1 -->
<svg width="476pt" height="38pt"
 viewBox="0.00 0.00 476.00 38.00" xmlns="http://www.w3.org/2000/svg" xmlns:xlink="http://www.w3.org/1999/xlink">
<g id="graph0" class="graph" transform="scale(1 1) rotate(0) translate(4 34)">
<title>Library.Usuario.DarDeBaja</title>
<!-- Node1 -->
<g id="node1" class="node">
<title>Node1</title>
<g id="a_node1"><a xlink:title="Método para desactivar un usuario">
<polygon fill="#999999" stroke="#666666" points="468,-24.5 328,-24.5 328,-5.5 468,-5.5 468,-24.5"/>
<text text-anchor="middle" x="398" y="-12.5" font-family="Helvetica,sans-Serif" font-size="10.00">Library.Usuario.DarDeBaja</text>
</a>
</g>
</g>
<!-- Node2 -->
<g id="node2" class="node">
<title>Node2</title>
<g id="a_node2"><a xlink:href="classLibrary_1_1UsuariosCatalog.html#af152d7cc2e78b41cd23e27834cb69dbd" target="_top" xlink:title="Método para eliminar un usuario">
<polygon fill="white" stroke="#666666" points="292,-30 164,-30 164,0 292,0 292,-30"/>
<text text-anchor="start" x="172" y="-18" font-family="Helvetica,sans-Serif" font-size="10.00">Library.UsuariosCatalog.</text>
<text text-anchor="middle" x="228" y="-7" font-family="Helvetica,sans-Serif" font-size="10.00">RemoveUsuario</text>
</a>
</g>
</g>
<!-- Node1&#45;&gt;Node2 -->
<g id="edge1" class="edge">
<title>Node1&#45;&gt;Node2</title>
<path fill="none" stroke="#63b8ff" d="M316.4,-15C308.38,-15 300.3,-15 292.49,-15"/>
<polygon fill="#63b8ff" stroke="#63b8ff" points="316.18,-18.5 326.18,-15 316.18,-11.5 316.18,-18.5"/>
</g>
<!-- Node3 -->
<g id="node3" class="node">
<title>Node3</title>
<g id="a_node3"><a xlink:href="classLibrary_1_1RegistryHandler.html#a5437661b3a2bc53db95ce02947b4a59a" target="_top" xlink:title="Método para eliminar un Usuario">
<polygon fill="white" stroke="#666666" points="128,-30 0,-30 0,0 128,0 128,-30"/>
<text text-anchor="start" x="8" y="-18" font-family="Helvetica,sans-Serif" font-size="10.00">Library.RegistryHandler.</text>
<text text-anchor="middle" x="64" y="-7" font-family="Helvetica,sans-Serif" font-size="10.00">RemoveUsuario</text>
</a>
</g>
</g>
<!-- Node2&#45;&gt;Node3 -->
<g id="edge2" class="edge">
<title>Node2&#45;&gt;Node3</title>
<path fill="none" stroke="#63b8ff" d="M152.59,-15C144.53,-15 136.38,-15 128.46,-15"/>
<polygon fill="#63b8ff" stroke="#63b8ff" points="152.39,-18.5 162.39,-15 152.39,-11.5 152.39,-18.5"/>
</g>
</g>
</svg>
