<?xml version="1.0" encoding="UTF-8" standalone="no"?>
<!DOCTYPE svg PUBLIC "-//W3C//DTD SVG 1.1//EN"
 "http://www.w3.org/Graphics/SVG/1.1/DTD/svg11.dtd">
<!-- Generated by graphviz version 7.0.2 (0)
 -->
<!-- Title: Library.OfertaDeServicio.DarDeBaja Pages: 1 -->
<svg width="319pt" height="86pt"
 viewBox="0.00 0.00 319.00 86.00" xmlns="http://www.w3.org/2000/svg" xmlns:xlink="http://www.w3.org/1999/xlink">
<g id="graph0" class="graph" transform="scale(1 1) rotate(0) translate(4 82)">
<title>Library.OfertaDeServicio.DarDeBaja</title>
<!-- Node1 -->
<g id="node1" class="node">
<title>Node1</title>
<g id="a_node1"><a xlink:title="Método para dar de baja un Usuario">
<polygon fill="#999999" stroke="#666666" points="311,-54 177,-54 177,-24 311,-24 311,-54"/>
<text text-anchor="start" x="185" y="-42" font-family="Helvetica,sans-Serif" font-size="10.00">Library.OfertaDeServicio.</text>
<text text-anchor="middle" x="244" y="-31" font-family="Helvetica,sans-Serif" font-size="10.00">DarDeBaja</text>
</a>
</g>
</g>
<!-- Node2 -->
<g id="node2" class="node">
<title>Node2</title>
<g id="a_node2"><a xlink:href="classLibrary_1_1OfertasHandler.html#a419fc6b93ef7235e39449f38494d7d1f" target="_top" xlink:title="Método para dar de baja una OfertaDeServicio">
<polygon fill="white" stroke="#666666" points="141,-78 0,-78 0,-48 141,-48 141,-78"/>
<text text-anchor="start" x="8" y="-66" font-family="Helvetica,sans-Serif" font-size="10.00">Library.OfertasHandler.Dar</text>
<text text-anchor="middle" x="70.5" y="-55" font-family="Helvetica,sans-Serif" font-size="10.00">DeBajaOferta</text>
</a>
</g>
</g>
<!-- Node1&#45;&gt;Node2 -->
<g id="edge1" class="edge">
<title>Node1&#45;&gt;Node2</title>
<path fill="none" stroke="#63b8ff" d="M165.43,-49.86C157.39,-50.98 149.26,-52.12 141.32,-53.23"/>
<polygon fill="#63b8ff" stroke="#63b8ff" points="165.78,-53.34 175.19,-48.49 164.81,-46.41 165.78,-53.34"/>
</g>
<!-- Node3 -->
<g id="node3" class="node">
<title>Node3</title>
<g id="a_node3"><a xlink:href="classLibrary_1_1Categoria.html#a395e51b351aeb577b6371110ceec8abd" target="_top" xlink:title="Método para quitar una oferta, en caso de que la misma no exista no hará nada">
<polygon fill="white" stroke="#666666" points="139,-30 2,-30 2,0 139,0 139,-30"/>
<text text-anchor="start" x="10" y="-18" font-family="Helvetica,sans-Serif" font-size="10.00">Library.Categoria.Remove</text>
<text text-anchor="middle" x="70.5" y="-7" font-family="Helvetica,sans-Serif" font-size="10.00">Oferta</text>
</a>
</g>
</g>
<!-- Node1&#45;&gt;Node3 -->
<g id="edge2" class="edge">
<title>Node1&#45;&gt;Node3</title>
<path fill="none" stroke="#63b8ff" d="M165.37,-28.14C156.68,-26.92 147.88,-25.69 139.33,-24.49"/>
<polygon fill="#63b8ff" stroke="#63b8ff" points="164.81,-31.59 175.19,-29.51 165.78,-24.66 164.81,-31.59"/>
</g>
</g>
</svg>
