<?xml version="1.0" encoding="UTF-8" standalone="no"?>
<!DOCTYPE svg PUBLIC "-//W3C//DTD SVG 1.1//EN"
 "http://www.w3.org/Graphics/SVG/1.1/DTD/svg11.dtd">
<!-- Generated by graphviz version 7.0.2 (0)
 -->
<!-- Title: Library.Solicitud.RecibirRespuesta Pages: 1 -->
<svg width="297pt" height="86pt"
 viewBox="0.00 0.00 297.00 86.00" xmlns="http://www.w3.org/2000/svg" xmlns:xlink="http://www.w3.org/1999/xlink">
<g id="graph0" class="graph" transform="scale(1 1) rotate(0) translate(4 82)">
<title>Library.Solicitud.RecibirRespuesta</title>
<!-- Node1 -->
<g id="node1" class="node">
<title>Node1</title>
<g id="a_node1"><a xlink:title="Método para conocer el estado de una oferta">
<polygon fill="#999999" stroke="#666666" points="289,-54 165,-54 165,-24 289,-24 289,-54"/>
<text text-anchor="start" x="173" y="-42" font-family="Helvetica,sans-Serif" font-size="10.00">Library.Solicitud.Recibir</text>
<text text-anchor="middle" x="227" y="-31" font-family="Helvetica,sans-Serif" font-size="10.00">Respuesta</text>
</a>
</g>
</g>
<!-- Node2 -->
<g id="node2" class="node">
<title>Node2</title>
<g id="a_node2"><a xlink:href="classLibrary_1_1ContratoHandler.html#a9da1c5ea2f4b9eb3ebe351fa0dac67d5" target="_top" xlink:title="Método para aceptar una solicitud">
<polygon fill="white" stroke="#666666" points="129,-78 0,-78 0,-48 129,-48 129,-78"/>
<text text-anchor="start" x="8" y="-66" font-family="Helvetica,sans-Serif" font-size="10.00">Library.ContratoHandler.</text>
<text text-anchor="middle" x="64.5" y="-55" font-family="Helvetica,sans-Serif" font-size="10.00">AceptarSolicitud</text>
</a>
</g>
</g>
<!-- Node1&#45;&gt;Node2 -->
<g id="edge1" class="edge">
<title>Node1&#45;&gt;Node2</title>
<path fill="none" stroke="#63b8ff" d="M153.57,-49.83C145.51,-51.04 137.34,-52.26 129.4,-53.44"/>
<polygon fill="#63b8ff" stroke="#63b8ff" points="153.99,-53.31 163.37,-48.37 152.96,-46.38 153.99,-53.31"/>
</g>
<!-- Node3 -->
<g id="node3" class="node">
<title>Node3</title>
<g id="a_node3"><a xlink:href="classLibrary_1_1ContratoHandler.html#ac49cc6208574122af37865556c55e2c9" target="_top" xlink:title="Método para rechazar una solicitud">
<polygon fill="white" stroke="#666666" points="129,-30 0,-30 0,0 129,0 129,-30"/>
<text text-anchor="start" x="8" y="-18" font-family="Helvetica,sans-Serif" font-size="10.00">Library.ContratoHandler.</text>
<text text-anchor="middle" x="64.5" y="-7" font-family="Helvetica,sans-Serif" font-size="10.00">RechazarSolicitud</text>
</a>
</g>
</g>
<!-- Node1&#45;&gt;Node3 -->
<g id="edge2" class="edge">
<title>Node1&#45;&gt;Node3</title>
<path fill="none" stroke="#63b8ff" d="M153.57,-28.17C145.51,-26.96 137.34,-25.74 129.4,-24.56"/>
<polygon fill="#63b8ff" stroke="#63b8ff" points="152.96,-31.62 163.37,-29.63 153.99,-24.69 152.96,-31.62"/>
</g>
</g>
</svg>
