<?xml version="1.0" encoding="UTF-8" standalone="no"?>
<!DOCTYPE svg PUBLIC "-//W3C//DTD SVG 1.1//EN"
 "http://www.w3.org/Graphics/SVG/1.1/DTD/svg11.dtd">
<!-- Generated by graphviz version 7.0.2 (0)
 -->
<!-- Title: RegistrarHandler Pages: 1 -->
<svg width="212pt" height="181pt"
 viewBox="0.00 0.00 212.00 181.00" xmlns="http://www.w3.org/2000/svg" xmlns:xlink="http://www.w3.org/1999/xlink">
<g id="graph0" class="graph" transform="scale(1 1) rotate(0) translate(4 177)">
<title>RegistrarHandler</title>
<!-- Node1 -->
<g id="node1" class="node">
<title>Node1</title>
<g id="a_node1"><a xlink:title=" ">
<polygon fill="#999999" stroke="#666666" points="153,-85 37,-85 37,0 153,0 153,-85"/>
<text text-anchor="middle" x="95" y="-73" font-family="Helvetica,sans-Serif" font-size="10.00">{RegistrarHandler</text>
<text text-anchor="start" x="45" y="-62" font-family="Helvetica,sans-Serif" font-size="10.00">|+ TempTipo</text>
<text text-anchor="start" x="45" y="-51" font-family="Helvetica,sans-Serif" font-size="10.00">+ State</text>
<text text-anchor="start" x="45" y="-40" font-family="Helvetica,sans-Serif" font-size="10.00">|+ RegistrarHandler()</text>
<text text-anchor="start" x="45" y="-29" font-family="Helvetica,sans-Serif" font-size="10.00"># CanHandle()</text>
<text text-anchor="start" x="45" y="-18" font-family="Helvetica,sans-Serif" font-size="10.00"># InternalHandle()</text>
<text text-anchor="middle" x="95" y="-7" font-family="Helvetica,sans-Serif" font-size="10.00">}</text>
</a>
</g>
</g>
<!-- Node2 -->
<g id="node2" class="node">
<title>Node2</title>
<g id="a_node2"><a xlink:href="classBaseHandler.html" target="_top" xlink:title=" ">
<polygon fill="white" stroke="#bfbfbf" points="80,-167.5 0,-167.5 0,-137.5 80,-137.5 80,-167.5"/>
<text text-anchor="middle" x="40" y="-155.5" font-family="Helvetica,sans-Serif" font-size="10.00">{BaseHandler</text>
<text text-anchor="middle" x="40" y="-144.5" font-family="Helvetica,sans-Serif" font-size="10.00">||}</text>
</a>
</g>
</g>
<!-- Node2&#45;&gt;Node1 -->
<g id="edge1" class="edge">
<title>Node2&#45;&gt;Node1</title>
<path fill="none" stroke="#63b8ff" d="M52.3,-127.36C58.63,-114.92 66.53,-99.41 73.8,-85.12"/>
<polygon fill="none" stroke="#63b8ff" points="49.3,-125.53 47.88,-136.03 55.53,-128.71 49.3,-125.53"/>
</g>
<!-- Node3 -->
<g id="node3" class="node">
<title>Node3</title>
<g id="a_node3"><a xlink:title=" ">
<polygon fill="white" stroke="#bfbfbf" points="204,-173 98,-173 98,-132 204,-132 204,-173"/>
<text text-anchor="start" x="106" y="-161" font-family="Helvetica,sans-Serif" font-size="10.00">{Dictionary&lt; string,</text>
<text text-anchor="middle" x="151" y="-150" font-family="Helvetica,sans-Serif" font-size="10.00"> string &gt;</text>
<text text-anchor="middle" x="151" y="-139" font-family="Helvetica,sans-Serif" font-size="10.00">||}</text>
</a>
</g>
</g>
<!-- Node3&#45;&gt;Node1 -->
<g id="edge2" class="edge">
<title>Node3&#45;&gt;Node1</title>
<path fill="none" stroke="#404040" d="M140.73,-131.69C135.56,-121.71 129.01,-109.09 122.5,-96.54"/>
<polygon fill="none" stroke="#404040" points="122.51,-96.56 116.2,-93.07 116.99,-85.91 123.3,-89.39 122.51,-96.56"/>
<text text-anchor="middle" x="158" y="-106" font-family="Helvetica,sans-Serif" font-size="10.00"> +TempInfo</text>
</g>
</g>
</svg>
