<?xml version="1.0" encoding="UTF-8" standalone="no"?>
<!DOCTYPE svg PUBLIC "-//W3C//DTD SVG 1.1//EN"
 "http://www.w3.org/Graphics/SVG/1.1/DTD/svg11.dtd">
<!-- Generated by graphviz version 7.0.2 (0)
 -->
<!-- Title: Library.UsuariosCatalog.GetUsuarios Pages: 1 -->
<svg width="464pt" height="326pt"
 viewBox="0.00 0.00 464.00 326.00" xmlns="http://www.w3.org/2000/svg" xmlns:xlink="http://www.w3.org/1999/xlink">
<g id="graph0" class="graph" transform="scale(1 1) rotate(0) translate(4 322)">
<title>Library.UsuariosCatalog.GetUsuarios</title>
<!-- Node1 -->
<g id="node1" class="node">
<title>Node1</title>
<g id="a_node1"><a xlink:title="Método para conocer los usuarios">
<polygon fill="#999999" stroke="#666666" points="456,-198 328,-198 328,-168 456,-168 456,-198"/>
<text text-anchor="start" x="336" y="-186" font-family="Helvetica,sans-Serif" font-size="10.00">Library.UsuariosCatalog.</text>
<text text-anchor="middle" x="392" y="-175" font-family="Helvetica,sans-Serif" font-size="10.00">GetUsuarios</text>
</a>
</g>
</g>
<!-- Node2 -->
<g id="node2" class="node">
<title>Node2</title>
<g id="a_node2"><a xlink:href="classLibrary_1_1RegistryHandler.html#a1a2cd2aa0e0c52e9edf3f7fa1d532d9e" target="_top" xlink:title="Método para obtener la lista de empleadores">
<polygon fill="white" stroke="#666666" points="292,-318 164,-318 164,-288 292,-288 292,-318"/>
<text text-anchor="start" x="172" y="-306" font-family="Helvetica,sans-Serif" font-size="10.00">Library.RegistryHandler.</text>
<text text-anchor="middle" x="228" y="-295" font-family="Helvetica,sans-Serif" font-size="10.00">GetEmpleadores</text>
</a>
</g>
</g>
<!-- Node1&#45;&gt;Node2 -->
<g id="edge1" class="edge">
<title>Node1&#45;&gt;Node2</title>
<path fill="none" stroke="#63b8ff" d="M371.5,-206.78C352.94,-228.13 323.28,-259.08 292,-279 286.96,-282.21 281.44,-285.09 275.81,-287.65"/>
<polygon fill="#63b8ff" stroke="#63b8ff" points="373.94,-209.31 377.77,-199.43 368.62,-204.77 373.94,-209.31"/>
</g>
<!-- Node3 -->
<g id="node3" class="node">
<title>Node3</title>
<g id="a_node3"><a xlink:href="classLibrary_1_1RegistryHandler.html#a3f0d200ef62a50bebf5f6c91ea7a4e36" target="_top" xlink:title="Método para obtener reputación de un trabajador o empleador">
<polygon fill="white" stroke="#666666" points="292,-270 164,-270 164,-240 292,-240 292,-270"/>
<text text-anchor="start" x="172" y="-258" font-family="Helvetica,sans-Serif" font-size="10.00">Library.RegistryHandler.</text>
<text text-anchor="middle" x="228" y="-247" font-family="Helvetica,sans-Serif" font-size="10.00">GetReputacion</text>
</a>
</g>
</g>
<!-- Node1&#45;&gt;Node3 -->
<g id="edge2" class="edge">
<title>Node1&#45;&gt;Node3</title>
<path fill="none" stroke="#63b8ff" d="M350.92,-203.42C333.05,-212.27 311.64,-222.52 292,-231 285.23,-233.92 277.98,-236.86 270.89,-239.63"/>
<polygon fill="#63b8ff" stroke="#63b8ff" points="352.25,-206.67 359.63,-199.07 349.12,-200.4 352.25,-206.67"/>
</g>
<!-- Node4 -->
<g id="node4" class="node">
<title>Node4</title>
<g id="a_node4"><a xlink:href="classLibrary_1_1RegistryHandler.html#ae52d7593bb8a63139a1d4aed856a61c6" target="_top" xlink:title="Método para obtener la lista de trabajadores">
<polygon fill="white" stroke="#666666" points="292,-222 164,-222 164,-192 292,-192 292,-222"/>
<text text-anchor="start" x="172" y="-210" font-family="Helvetica,sans-Serif" font-size="10.00">Library.RegistryHandler.</text>
<text text-anchor="middle" x="228" y="-199" font-family="Helvetica,sans-Serif" font-size="10.00">GetTrabajadores</text>
</a>
</g>
</g>
<!-- Node1&#45;&gt;Node4 -->
<g id="edge3" class="edge">
<title>Node1&#45;&gt;Node4</title>
<path fill="none" stroke="#63b8ff" d="M316.59,-194.02C308.53,-195.22 300.38,-196.43 292.46,-197.6"/>
<polygon fill="#63b8ff" stroke="#63b8ff" points="317.03,-197.5 326.41,-192.57 316,-190.57 317.03,-197.5"/>
</g>
<!-- Node5 -->
<g id="node5" class="node">
<title>Node5</title>
<g id="a_node5"><a xlink:href="classLibrary_1_1RegistryHandler.html#ab102a5d3011a478c5e6b60401941d429" target="_top" xlink:title="Método para obtener los datos de un Usuario">
<polygon fill="white" stroke="#666666" points="292,-174 164,-174 164,-144 292,-144 292,-174"/>
<text text-anchor="start" x="172" y="-162" font-family="Helvetica,sans-Serif" font-size="10.00">Library.RegistryHandler.</text>
<text text-anchor="middle" x="228" y="-151" font-family="Helvetica,sans-Serif" font-size="10.00">GetUsuario</text>
</a>
</g>
</g>
<!-- Node1&#45;&gt;Node5 -->
<g id="edge4" class="edge">
<title>Node1&#45;&gt;Node5</title>
<path fill="none" stroke="#63b8ff" d="M316.59,-171.98C308.53,-170.78 300.38,-169.57 292.46,-168.4"/>
<polygon fill="#63b8ff" stroke="#63b8ff" points="316,-175.43 326.41,-173.43 317.03,-168.5 316,-175.43"/>
</g>
<!-- Node6 -->
<g id="node6" class="node">
<title>Node6</title>
<g id="a_node6"><a xlink:href="classLibrary_1_1RegistryHandler.html#a5437661b3a2bc53db95ce02947b4a59a" target="_top" xlink:title="Método para eliminar un Usuario">
<polygon fill="white" stroke="#666666" points="292,-126 164,-126 164,-96 292,-96 292,-126"/>
<text text-anchor="start" x="172" y="-114" font-family="Helvetica,sans-Serif" font-size="10.00">Library.RegistryHandler.</text>
<text text-anchor="middle" x="228" y="-103" font-family="Helvetica,sans-Serif" font-size="10.00">RemoveUsuario</text>
</a>
</g>
</g>
<!-- Node1&#45;&gt;Node6 -->
<g id="edge5" class="edge">
<title>Node1&#45;&gt;Node6</title>
<path fill="none" stroke="#63b8ff" d="M350.92,-162.58C333.05,-153.73 311.64,-143.48 292,-135 285.23,-132.08 277.98,-129.14 270.89,-126.37"/>
<polygon fill="#63b8ff" stroke="#63b8ff" points="349.12,-165.6 359.63,-166.93 352.25,-159.33 349.12,-165.6"/>
</g>
<!-- Node7 -->
<g id="node7" class="node">
<title>Node7</title>
<g id="a_node7"><a xlink:href="classLibrary_1_1RegistryHandler.html#ab807cbae1dac0a1a8d26a3d3dab44b20" target="_top" xlink:title="Método para verificar el nickname de un Usuario">
<polygon fill="white" stroke="#666666" points="292,-78 164,-78 164,-48 292,-48 292,-78"/>
<text text-anchor="start" x="172" y="-66" font-family="Helvetica,sans-Serif" font-size="10.00">Library.RegistryHandler.</text>
<text text-anchor="middle" x="228" y="-55" font-family="Helvetica,sans-Serif" font-size="10.00">VerificarNick</text>
</a>
</g>
</g>
<!-- Node1&#45;&gt;Node7 -->
<g id="edge6" class="edge">
<title>Node1&#45;&gt;Node7</title>
<path fill="none" stroke="#63b8ff" d="M371.5,-159.22C352.94,-137.87 323.28,-106.92 292,-87 286.96,-83.79 281.44,-80.91 275.81,-78.35"/>
<polygon fill="#63b8ff" stroke="#63b8ff" points="368.62,-161.23 377.77,-166.57 373.94,-156.69 368.62,-161.23"/>
</g>
<!-- Node8 -->
<g id="node8" class="node">
<title>Node8</title>
<g id="a_node8"><a xlink:href="classLibrary_1_1RegistryHandler.html#a3a3c8dbcc470376d7f9082ed727e9cad" target="_top" xlink:title="Método para registrar un administrador">
<polygon fill="white" stroke="#666666" points="128,-126 0,-126 0,-96 128,-96 128,-126"/>
<text text-anchor="start" x="8" y="-114" font-family="Helvetica,sans-Serif" font-size="10.00">Library.RegistryHandler.</text>
<text text-anchor="middle" x="64" y="-103" font-family="Helvetica,sans-Serif" font-size="10.00">RegistrarAdministrador</text>
</a>
</g>
</g>
<!-- Node7&#45;&gt;Node8 -->
<g id="edge7" class="edge">
<title>Node7&#45;&gt;Node8</title>
<path fill="none" stroke="#63b8ff" d="M164.23,-81.6C148.63,-86.22 132.08,-91.13 117.05,-95.58"/>
<polygon fill="#63b8ff" stroke="#63b8ff" points="164.81,-85.08 173.4,-78.88 162.82,-78.37 164.81,-85.08"/>
</g>
<!-- Node9 -->
<g id="node9" class="node">
<title>Node9</title>
<g id="a_node9"><a xlink:href="classLibrary_1_1RegistryHandler.html#a9cea158f44e96feb3ee3b4cf8a2c166c" target="_top" xlink:title="Método para registrar un empleador">
<polygon fill="white" stroke="#666666" points="128,-78 0,-78 0,-48 128,-48 128,-78"/>
<text text-anchor="start" x="8" y="-66" font-family="Helvetica,sans-Serif" font-size="10.00">Library.RegistryHandler.</text>
<text text-anchor="middle" x="64" y="-55" font-family="Helvetica,sans-Serif" font-size="10.00">RegistrarEmpleador</text>
</a>
</g>
</g>
<!-- Node7&#45;&gt;Node9 -->
<g id="edge8" class="edge">
<title>Node7&#45;&gt;Node9</title>
<path fill="none" stroke="#63b8ff" d="M152.59,-63C144.53,-63 136.38,-63 128.46,-63"/>
<polygon fill="#63b8ff" stroke="#63b8ff" points="152.39,-66.5 162.39,-63 152.39,-59.5 152.39,-66.5"/>
</g>
<!-- Node10 -->
<g id="node10" class="node">
<title>Node10</title>
<g id="a_node10"><a xlink:href="classLibrary_1_1RegistryHandler.html#a0bf9704d7dc2ab9bf3cde59b66012d69" target="_top" xlink:title="Método para registrar un trabajador">
<polygon fill="white" stroke="#666666" points="128,-30 0,-30 0,0 128,0 128,-30"/>
<text text-anchor="start" x="8" y="-18" font-family="Helvetica,sans-Serif" font-size="10.00">Library.RegistryHandler.</text>
<text text-anchor="middle" x="64" y="-7" font-family="Helvetica,sans-Serif" font-size="10.00">RegistrarTrabajador</text>
</a>
</g>
</g>
<!-- Node7&#45;&gt;Node10 -->
<g id="edge9" class="edge">
<title>Node7&#45;&gt;Node10</title>
<path fill="none" stroke="#63b8ff" d="M164.23,-44.4C148.63,-39.78 132.08,-34.87 117.05,-30.42"/>
<polygon fill="#63b8ff" stroke="#63b8ff" points="162.82,-47.63 173.4,-47.12 164.81,-40.92 162.82,-47.63"/>
</g>
</g>
</svg>
