<?xml version="1.0" encoding="UTF-8" standalone="no"?>
<!DOCTYPE svg PUBLIC "-//W3C//DTD SVG 1.1//EN"
 "http://www.w3.org/Graphics/SVG/1.1/DTD/svg11.dtd">
<!-- Generated by graphviz version 7.0.2 (0)
 -->
<!-- Title: Library.Categoria.GetId Pages: 1 -->
<svg width="676pt" height="76pt"
 viewBox="0.00 0.00 676.00 75.50" xmlns="http://www.w3.org/2000/svg" xmlns:xlink="http://www.w3.org/1999/xlink">
<g id="graph0" class="graph" transform="scale(1 1) rotate(0) translate(4 71.5)">
<title>Library.Categoria.GetId</title>
<!-- Node1 -->
<g id="node1" class="node">
<title>Node1</title>
<g id="a_node1"><a xlink:title="Método para obtener el ID de una Categoria">
<polygon fill="#999999" stroke="#666666" points="668,-40 543,-40 543,-21 668,-21 668,-40"/>
<text text-anchor="middle" x="605.5" y="-28" font-family="Helvetica,sans-Serif" font-size="10.00">Library.Categoria.GetId</text>
</a>
</g>
</g>
<!-- Node2 -->
<g id="node2" class="node">
<title>Node2</title>
<g id="a_node2"><a xlink:href="classLibrary_1_1CategoriasCatalog.html#a9bedf1f8b23af24ef3515c48b7d05200" target="_top" xlink:title="Método para obtener una categoría por id">
<polygon fill="white" stroke="#666666" points="507,-45.5 370,-45.5 370,-15.5 507,-15.5 507,-45.5"/>
<text text-anchor="start" x="378" y="-33.5" font-family="Helvetica,sans-Serif" font-size="10.00">Library.CategoriasCatalog.</text>
<text text-anchor="middle" x="438.5" y="-22.5" font-family="Helvetica,sans-Serif" font-size="10.00">GetCategoriaById</text>
</a>
</g>
</g>
<!-- Node1&#45;&gt;Node2 -->
<g id="edge1" class="edge">
<title>Node1&#45;&gt;Node2</title>
<path fill="none" stroke="#63b8ff" d="M531.1,-30.5C523.18,-30.5 515.14,-30.5 507.29,-30.5"/>
<polygon fill="#63b8ff" stroke="#63b8ff" points="531.08,-34 541.08,-30.5 531.08,-27 531.08,-34"/>
</g>
<!-- Node3 -->
<g id="node3" class="node">
<title>Node3</title>
<g id="a_node3"><a xlink:href="classLibrary_1_1OfertasHandler.html#a6de3d8aae171fe68766039aefcbd5bb4" target="_top" xlink:title="Método para obtener una Categoria por id">
<polygon fill="white" stroke="#666666" points="325,-67.5 185,-67.5 185,-37.5 325,-37.5 325,-67.5"/>
<text text-anchor="start" x="193" y="-55.5" font-family="Helvetica,sans-Serif" font-size="10.00">Library.OfertasHandler.Get</text>
<text text-anchor="middle" x="255" y="-44.5" font-family="Helvetica,sans-Serif" font-size="10.00">CategoriaById</text>
</a>
</g>
</g>
<!-- Node2&#45;&gt;Node3 -->
<g id="edge2" class="edge">
<title>Node2&#45;&gt;Node3</title>
<path fill="none" stroke="#63b8ff" d="M358.31,-40.1C347.3,-41.43 336.07,-42.79 325.27,-44.1"/>
<polygon fill="#63b8ff" stroke="#63b8ff" points="358.65,-43.58 368.16,-38.91 357.81,-36.63 358.65,-43.58"/>
</g>
<!-- Node5 -->
<g id="node5" class="node">
<title>Node5</title>
<g id="a_node5"><a xlink:href="classLibrary_1_1OfertasHandler.html#a9179cfbeb903dbc77128b40d77782d82" target="_top" xlink:title="Constructor de la clase">
<polygon fill="white" stroke="#666666" points="334,-19 176,-19 176,0 334,0 334,-19"/>
<text text-anchor="middle" x="255" y="-7" font-family="Helvetica,sans-Serif" font-size="10.00">Library.OfertasHandler.Ofertar</text>
</a>
</g>
</g>
<!-- Node2&#45;&gt;Node5 -->
<g id="edge4" class="edge">
<title>Node2&#45;&gt;Node5</title>
<path fill="none" stroke="#63b8ff" d="M358.49,-21.36C350.52,-20.44 342.42,-19.5 334.46,-18.58"/>
<polygon fill="#63b8ff" stroke="#63b8ff" points="357.82,-24.8 368.15,-22.48 358.62,-17.85 357.82,-24.8"/>
</g>
<!-- Node4 -->
<g id="node4" class="node">
<title>Node4</title>
<g id="a_node4"><a xlink:href="classLibrary_1_1OfertasHandler.html#a4b8c9e0b2ae1720933457f3862c0a231" target="_top" xlink:title="Método para obtener OfertaDeServicio">
<polygon fill="white" stroke="#666666" points="140,-67.5 0,-67.5 0,-37.5 140,-37.5 140,-67.5"/>
<text text-anchor="start" x="8" y="-55.5" font-family="Helvetica,sans-Serif" font-size="10.00">Library.OfertasHandler.Get</text>
<text text-anchor="middle" x="70" y="-44.5" font-family="Helvetica,sans-Serif" font-size="10.00">Ofertas</text>
</a>
</g>
</g>
<!-- Node3&#45;&gt;Node4 -->
<g id="edge3" class="edge">
<title>Node3&#45;&gt;Node4</title>
<path fill="none" stroke="#63b8ff" d="M173.24,-52.5C162.29,-52.5 151.13,-52.5 140.4,-52.5"/>
<polygon fill="#63b8ff" stroke="#63b8ff" points="173.04,-56 183.04,-52.5 173.04,-49 173.04,-56"/>
</g>
</g>
</svg>
