<?xml version="1.0" encoding="UTF-8" standalone="no"?>
<!DOCTYPE svg PUBLIC "-//W3C//DTD SVG 1.1//EN"
 "http://www.w3.org/Graphics/SVG/1.1/DTD/svg11.dtd">
<!-- Generated by graphviz version 7.0.2 (0)
 -->
<!-- Title: Library.TelegramBot.HandleErrorAsync Pages: 1 -->
<svg width="507pt" height="60pt"
 viewBox="0.00 0.00 507.00 60.00" xmlns="http://www.w3.org/2000/svg" xmlns:xlink="http://www.w3.org/1999/xlink">
<g id="graph0" class="graph" transform="scale(1 1) rotate(0) translate(4 56)">
<title>Library.TelegramBot.HandleErrorAsync</title>
<!-- Node1 -->
<g id="node1" class="node">
<title>Node1</title>
<g id="a_node1"><a xlink:title="Manejo de excepciones. Por ahora simplemente la imprimimos en la consola.">
<polygon fill="#999999" stroke="#666666" points="499,-30 353,-30 353,0 499,0 499,-30"/>
<text text-anchor="start" x="361" y="-18" font-family="Helvetica,sans-Serif" font-size="10.00">Library.TelegramBot.Handle</text>
<text text-anchor="middle" x="426" y="-7" font-family="Helvetica,sans-Serif" font-size="10.00">ErrorAsync</text>
</a>
</g>
</g>
<!-- Node2 -->
<g id="node2" class="node">
<title>Node2</title>
<g id="a_node2"><a xlink:href="classLibrary_1_1TelegramBot.html#a393bed01cc1264f45f5d03af79c8dd0f" target="_top" xlink:title="Maneja las actualizaciones del bot (todo lo que llega), incluyendo mensajes, ediciones de mensajes,...">
<polygon fill="white" stroke="#666666" points="317,-52 171,-52 171,-22 317,-22 317,-52"/>
<text text-anchor="start" x="179" y="-40" font-family="Helvetica,sans-Serif" font-size="10.00">Library.TelegramBot.Handle</text>
<text text-anchor="middle" x="244" y="-29" font-family="Helvetica,sans-Serif" font-size="10.00">UpdateAsync</text>
</a>
</g>
</g>
<!-- Node1&#45;&gt;Node2 -->
<g id="edge1" class="edge">
<title>Node1&#45;&gt;Node2</title>
<path fill="none" stroke="#63b8ff" d="M341.3,-25.23C333.27,-26.21 325.19,-27.2 317.29,-28.16"/>
<polygon fill="#63b8ff" stroke="#63b8ff" points="341.56,-28.72 351.06,-24.04 340.71,-21.78 341.56,-28.72"/>
</g>
<!-- Node3 -->
<g id="node3" class="node">
<title>Node3</title>
<g id="a_node3"><a xlink:href="classLibrary_1_1TelegramBot.html#a9b235532974f823235e1fccba5ee2f91" target="_top" xlink:title="Punto de entrada al programa.">
<polygon fill="white" stroke="#666666" points="135,-24.5 0,-24.5 0,-5.5 135,-5.5 135,-24.5"/>
<text text-anchor="middle" x="67.5" y="-12.5" font-family="Helvetica,sans-Serif" font-size="10.00">Library.TelegramBot.Main</text>
</a>
</g>
</g>
<!-- Node1&#45;&gt;Node3 -->
<g id="edge3" class="edge">
<title>Node1&#45;&gt;Node3</title>
<path fill="none" stroke="#63b8ff" d="M341.44,-13.3C333.18,-13.18 324.93,-13.07 317,-13 252.11,-12.4 235.89,-12.37 171,-13 159.52,-13.11 147.32,-13.29 135.49,-13.5"/>
<polygon fill="#63b8ff" stroke="#63b8ff" points="341.11,-16.79 351.16,-13.45 341.22,-9.8 341.11,-16.79"/>
</g>
<!-- Node2&#45;&gt;Node3 -->
<g id="edge2" class="edge">
<title>Node2&#45;&gt;Node3</title>
<path fill="none" stroke="#63b8ff" d="M159.27,-26.44C151.28,-25.44 143.25,-24.42 135.46,-23.44"/>
<polygon fill="#63b8ff" stroke="#63b8ff" points="158.65,-29.89 169.01,-27.67 159.53,-22.95 158.65,-29.89"/>
</g>
</g>
</svg>
