<?xml version="1.0" encoding="UTF-8" standalone="no"?>
<!DOCTYPE svg PUBLIC "-//W3C//DTD SVG 1.1//EN"
 "http://www.w3.org/Graphics/SVG/1.1/DTD/svg11.dtd">
<!-- Generated by graphviz version 7.0.2 (0)
 -->
<!-- Title: Library.ContratoHandler.GetSolicitudes Pages: 1 -->
<svg width="332pt" height="64pt"
 viewBox="0.00 0.00 332.00 64.00" xmlns="http://www.w3.org/2000/svg" xmlns:xlink="http://www.w3.org/1999/xlink">
<g id="graph0" class="graph" transform="scale(1 1) rotate(0) translate(4 60)">
<title>Library.ContratoHandler.GetSolicitudes</title>
<!-- Node1 -->
<g id="node1" class="node">
<title>Node1</title>
<g id="a_node1"><a xlink:title="Método para mostrar solicitudes">
<polygon fill="#999999" stroke="#666666" points="129,-42.5 0,-42.5 0,-12.5 129,-12.5 129,-42.5"/>
<text text-anchor="start" x="8" y="-30.5" font-family="Helvetica,sans-Serif" font-size="10.00">Library.ContratoHandler.</text>
<text text-anchor="middle" x="64.5" y="-19.5" font-family="Helvetica,sans-Serif" font-size="10.00">GetSolicitudes</text>
</a>
</g>
</g>
<!-- Node2 -->
<g id="node2" class="node">
<title>Node2</title>
<g id="a_node2"><a xlink:href="classLibrary_1_1Solicitud.html#acfd0867b18bdf7dffacbcfa8ecad0b5b" target="_top" xlink:title="Método para obtener Empleador que busca la Solicitud">
<polygon fill="white" stroke="#666666" points="324,-56 165,-56 165,-37 324,-37 324,-56"/>
<text text-anchor="middle" x="244.5" y="-44" font-family="Helvetica,sans-Serif" font-size="10.00">Library.Solicitud.GetEmpleador</text>
</a>
</g>
</g>
<!-- Node1&#45;&gt;Node2 -->
<g id="edge1" class="edge">
<title>Node1&#45;&gt;Node2</title>
<path fill="none" stroke="#63b8ff" d="M129.26,-34.31C137.06,-35.14 145.14,-36 153.23,-36.86"/>
<polygon fill="#63b8ff" stroke="#63b8ff" points="152.83,-40.34 163.15,-37.92 153.58,-33.38 152.83,-40.34"/>
</g>
<!-- Node3 -->
<g id="node3" class="node">
<title>Node3</title>
<g id="a_node3"><a xlink:href="classLibrary_1_1Usuario.html#a33099664c3da6b61454db7c3343deceb" target="_top" xlink:title="Checkea que tipo de usuario es, puede ser Administrador, Trabajador o Empleador">
<polygon fill="white" stroke="#666666" points="307,-19 182,-19 182,0 307,0 307,-19"/>
<text text-anchor="middle" x="244.5" y="-7" font-family="Helvetica,sans-Serif" font-size="10.00">Library.Usuario.GetTipo</text>
</a>
</g>
</g>
<!-- Node1&#45;&gt;Node3 -->
<g id="edge2" class="edge">
<title>Node1&#45;&gt;Node3</title>
<path fill="none" stroke="#63b8ff" d="M129.26,-21.05C142.59,-19.7 156.74,-18.27 170.37,-16.89"/>
<polygon fill="#63b8ff" stroke="#63b8ff" points="170.57,-20.39 180.17,-15.9 169.87,-13.43 170.57,-20.39"/>
</g>
</g>
</svg>
