<?xml version="1.0" encoding="UTF-8" standalone="no"?>
<!DOCTYPE svg PUBLIC "-//W3C//DTD SVG 1.1//EN"
 "http://www.w3.org/Graphics/SVG/1.1/DTD/svg11.dtd">
<!-- Generated by graphviz version 7.0.2 (0)
 -->
<!-- Title: Library.CategoriasCatalog.GetOfertaById Pages: 1 -->
<svg width="518pt" height="38pt"
 viewBox="0.00 0.00 518.00 38.00" xmlns="http://www.w3.org/2000/svg" xmlns:xlink="http://www.w3.org/1999/xlink">
<g id="graph0" class="graph" transform="scale(1 1) rotate(0) translate(4 34)">
<title>Library.CategoriasCatalog.GetOfertaById</title>
<!-- Node1 -->
<g id="node1" class="node">
<title>Node1</title>
<g id="a_node1"><a xlink:title="Método para obtener OfertaDeServicio por id">
<polygon fill="#999999" stroke="#666666" points="137,-30 0,-30 0,0 137,0 137,-30"/>
<text text-anchor="start" x="8" y="-18" font-family="Helvetica,sans-Serif" font-size="10.00">Library.CategoriasCatalog.</text>
<text text-anchor="middle" x="68.5" y="-7" font-family="Helvetica,sans-Serif" font-size="10.00">GetOfertaById</text>
</a>
</g>
</g>
<!-- Node2 -->
<g id="node2" class="node">
<title>Node2</title>
<g id="a_node2"><a xlink:href="classLibrary_1_1Categoria.html#abfee7bcdbeb886b1993fdfaf14efe6d7" target="_top" xlink:title="Filtrar OfertaDeServicio por id">
<polygon fill="white" stroke="#666666" points="340,-24.5 173,-24.5 173,-5.5 340,-5.5 340,-24.5"/>
<text text-anchor="middle" x="256.5" y="-12.5" font-family="Helvetica,sans-Serif" font-size="10.00">Library.Categoria.GetOfertaById</text>
</a>
</g>
</g>
<!-- Node1&#45;&gt;Node2 -->
<g id="edge1" class="edge">
<title>Node1&#45;&gt;Node2</title>
<path fill="none" stroke="#63b8ff" d="M137.44,-15C145.2,-15 153.21,-15 161.23,-15"/>
<polygon fill="#63b8ff" stroke="#63b8ff" points="161.04,-18.5 171.04,-15 161.04,-11.5 161.04,-18.5"/>
</g>
<!-- Node3 -->
<g id="node3" class="node">
<title>Node3</title>
<g id="a_node3"><a xlink:href="classLibrary_1_1OfertaDeServicio.html#a3aabf94b79625937babc2196b5ffa71e" target="_top" xlink:title="Método para obtener id de OfertaDeServicio">
<polygon fill="white" stroke="#666666" points="510,-30 376,-30 376,0 510,0 510,-30"/>
<text text-anchor="start" x="384" y="-18" font-family="Helvetica,sans-Serif" font-size="10.00">Library.OfertaDeServicio.</text>
<text text-anchor="middle" x="443" y="-7" font-family="Helvetica,sans-Serif" font-size="10.00">GetId</text>
</a>
</g>
</g>
<!-- Node2&#45;&gt;Node3 -->
<g id="edge2" class="edge">
<title>Node2&#45;&gt;Node3</title>
<path fill="none" stroke="#63b8ff" d="M340.31,-15C348.29,-15 356.36,-15 364.29,-15"/>
<polygon fill="#63b8ff" stroke="#63b8ff" points="364.26,-18.5 374.26,-15 364.26,-11.5 364.26,-18.5"/>
</g>
</g>
</svg>
