<?xml version="1.0" encoding="UTF-8" standalone="no"?>
<!DOCTYPE svg PUBLIC "-//W3C//DTD SVG 1.1//EN"
 "http://www.w3.org/Graphics/SVG/1.1/DTD/svg11.dtd">
<!-- Generated by graphviz version 7.0.2 (0)
 -->
<!-- Title: Library.RegistryHandler.RegistrarEmpleador Pages: 1 -->
<svg width="464pt" height="182pt"
 viewBox="0.00 0.00 464.00 182.00" xmlns="http://www.w3.org/2000/svg" xmlns:xlink="http://www.w3.org/1999/xlink">
<g id="graph0" class="graph" transform="scale(1 1) rotate(0) translate(4 178)">
<title>Library.RegistryHandler.RegistrarEmpleador</title>
<!-- Node1 -->
<g id="node1" class="node">
<title>Node1</title>
<g id="a_node1"><a xlink:title="Método para registrar un empleador">
<polygon fill="#999999" stroke="#666666" points="128,-102 0,-102 0,-72 128,-72 128,-102"/>
<text text-anchor="start" x="8" y="-90" font-family="Helvetica,sans-Serif" font-size="10.00">Library.RegistryHandler.</text>
<text text-anchor="middle" x="64" y="-79" font-family="Helvetica,sans-Serif" font-size="10.00">RegistrarEmpleador</text>
</a>
</g>
</g>
<!-- Node2 -->
<g id="node2" class="node">
<title>Node2</title>
<g id="a_node2"><a xlink:href="classLibrary_1_1UsuariosCatalog.html#afda536f591a331a1c6ece35ce24cdd9b" target="_top" xlink:title="Método que agrega un usuario">
<polygon fill="white" stroke="#666666" points="292,-174 164,-174 164,-144 292,-144 292,-174"/>
<text text-anchor="start" x="172" y="-162" font-family="Helvetica,sans-Serif" font-size="10.00">Library.UsuariosCatalog.</text>
<text text-anchor="middle" x="228" y="-151" font-family="Helvetica,sans-Serif" font-size="10.00">AddUsuario</text>
</a>
</g>
</g>
<!-- Node1&#45;&gt;Node2 -->
<g id="edge1" class="edge">
<title>Node1&#45;&gt;Node2</title>
<path fill="none" stroke="#63b8ff" d="M95.01,-102.4C114.48,-112.18 140.5,-124.85 164,-135 167.38,-136.46 170.89,-137.93 174.44,-139.37"/>
<polygon fill="#63b8ff" stroke="#63b8ff" points="173.12,-142.62 183.7,-143.07 175.71,-136.11 173.12,-142.62"/>
</g>
<!-- Node3 -->
<g id="node3" class="node">
<title>Node3</title>
<g id="a_node3"><a xlink:href="classLibrary_1_1RegistryHandler.html#a0c15a9f4f299b78bdacc69dedb427a7d" target="_top" xlink:title="Método para verificar la cédula de un Usuario">
<polygon fill="white" stroke="#666666" points="292,-126 164,-126 164,-96 292,-96 292,-126"/>
<text text-anchor="start" x="172" y="-114" font-family="Helvetica,sans-Serif" font-size="10.00">Library.RegistryHandler.</text>
<text text-anchor="middle" x="228" y="-103" font-family="Helvetica,sans-Serif" font-size="10.00">VerificarCedula</text>
</a>
</g>
</g>
<!-- Node1&#45;&gt;Node3 -->
<g id="edge2" class="edge">
<title>Node1&#45;&gt;Node3</title>
<path fill="none" stroke="#63b8ff" d="M128.1,-96.35C136.01,-97.52 144.16,-98.73 152.23,-99.92"/>
<polygon fill="#63b8ff" stroke="#63b8ff" points="151.64,-103.37 162.04,-101.38 152.67,-96.45 151.64,-103.37"/>
</g>
<!-- Node4 -->
<g id="node4" class="node">
<title>Node4</title>
<g id="a_node4"><a xlink:href="classLibrary_1_1RegistryHandler.html#a8a92d13456238efd340e8e3c678763e0" target="_top" xlink:title="Método para verificar un correo">
<polygon fill="white" stroke="#666666" points="292,-78 164,-78 164,-48 292,-48 292,-78"/>
<text text-anchor="start" x="172" y="-66" font-family="Helvetica,sans-Serif" font-size="10.00">Library.RegistryHandler.</text>
<text text-anchor="middle" x="228" y="-55" font-family="Helvetica,sans-Serif" font-size="10.00">VerificarCorreo</text>
</a>
</g>
</g>
<!-- Node1&#45;&gt;Node4 -->
<g id="edge3" class="edge">
<title>Node1&#45;&gt;Node4</title>
<path fill="none" stroke="#63b8ff" d="M128.1,-77.65C136.01,-76.48 144.16,-75.27 152.23,-74.08"/>
<polygon fill="#63b8ff" stroke="#63b8ff" points="152.67,-77.55 162.04,-72.62 151.64,-70.63 152.67,-77.55"/>
</g>
<!-- Node5 -->
<g id="node5" class="node">
<title>Node5</title>
<g id="a_node5"><a xlink:href="classLibrary_1_1RegistryHandler.html#ab807cbae1dac0a1a8d26a3d3dab44b20" target="_top" xlink:title="Método para verificar el nickname de un Usuario">
<polygon fill="white" stroke="#666666" points="292,-30 164,-30 164,0 292,0 292,-30"/>
<text text-anchor="start" x="172" y="-18" font-family="Helvetica,sans-Serif" font-size="10.00">Library.RegistryHandler.</text>
<text text-anchor="middle" x="228" y="-7" font-family="Helvetica,sans-Serif" font-size="10.00">VerificarNick</text>
</a>
</g>
</g>
<!-- Node1&#45;&gt;Node5 -->
<g id="edge4" class="edge">
<title>Node1&#45;&gt;Node5</title>
<path fill="none" stroke="#63b8ff" d="M95.01,-71.6C114.48,-61.82 140.5,-49.15 164,-39 167.38,-37.54 170.89,-36.07 174.44,-34.63"/>
<polygon fill="#63b8ff" stroke="#63b8ff" points="175.71,-37.89 183.7,-30.93 173.12,-31.38 175.71,-37.89"/>
</g>
<!-- Node6 -->
<g id="node6" class="node">
<title>Node6</title>
<g id="a_node6"><a xlink:href="classLibrary_1_1UsuariosCatalog.html#a6a3f81b438afc68cd3809e603728f9bb" target="_top" xlink:title="Método para conocer los usuarios">
<polygon fill="white" stroke="#666666" points="456,-30 328,-30 328,0 456,0 456,-30"/>
<text text-anchor="start" x="336" y="-18" font-family="Helvetica,sans-Serif" font-size="10.00">Library.UsuariosCatalog.</text>
<text text-anchor="middle" x="392" y="-7" font-family="Helvetica,sans-Serif" font-size="10.00">GetUsuarios</text>
</a>
</g>
</g>
<!-- Node5&#45;&gt;Node6 -->
<g id="edge5" class="edge">
<title>Node5&#45;&gt;Node6</title>
<path fill="none" stroke="#63b8ff" d="M292.1,-15C300.01,-15 308.16,-15 316.23,-15"/>
<polygon fill="#63b8ff" stroke="#63b8ff" points="316.03,-18.5 326.03,-15 316.03,-11.5 316.03,-18.5"/>
</g>
</g>
</svg>
