<?xml version="1.0" encoding="UTF-8" standalone="no"?>
<!DOCTYPE svg PUBLIC "-//W3C//DTD SVG 1.1//EN"
 "http://www.w3.org/Graphics/SVG/1.1/DTD/svg11.dtd">
<!-- Generated by graphviz version 7.0.2 (0)
 -->
<!-- Title: Library.TelegramBot.Main Pages: 1 -->
<svg width="507pt" height="59pt"
 viewBox="0.00 0.00 507.00 59.00" xmlns="http://www.w3.org/2000/svg" xmlns:xlink="http://www.w3.org/1999/xlink">
<g id="graph0" class="graph" transform="scale(1 1) rotate(0) translate(4 55)">
<title>Library.TelegramBot.Main</title>
<!-- Node1 -->
<g id="node1" class="node">
<title>Node1</title>
<g id="a_node1"><a xlink:title="Punto de entrada al programa.">
<polygon fill="#999999" stroke="#666666" points="135,-45.5 0,-45.5 0,-26.5 135,-26.5 135,-45.5"/>
<text text-anchor="middle" x="67.5" y="-33.5" font-family="Helvetica,sans-Serif" font-size="10.00">Library.TelegramBot.Main</text>
</a>
</g>
</g>
<!-- Node2 -->
<g id="node2" class="node">
<title>Node2</title>
<g id="a_node2"><a xlink:href="classLibrary_1_1TelegramBot.html#a0e26289e5cab7a4939474602d34830dc" target="_top" xlink:title="Manejo de excepciones. Por ahora simplemente la imprimimos en la consola.">
<polygon fill="white" stroke="#666666" points="499,-51 353,-51 353,-21 499,-21 499,-51"/>
<text text-anchor="start" x="361" y="-39" font-family="Helvetica,sans-Serif" font-size="10.00">Library.TelegramBot.Handle</text>
<text text-anchor="middle" x="426" y="-28" font-family="Helvetica,sans-Serif" font-size="10.00">ErrorAsync</text>
</a>
</g>
</g>
<!-- Node1&#45;&gt;Node2 -->
<g id="edge1" class="edge">
<title>Node1&#45;&gt;Node2</title>
<path fill="none" stroke="#63b8ff" d="M135.48,-38.24C147.32,-38.56 159.52,-38.83 171,-39 235.88,-39.95 252.12,-39.9 317,-39 324.93,-38.89 333.19,-38.73 341.45,-38.55"/>
<polygon fill="#63b8ff" stroke="#63b8ff" points="341.25,-42.06 351.17,-38.32 341.09,-35.06 341.25,-42.06"/>
</g>
<!-- Node3 -->
<g id="node3" class="node">
<title>Node3</title>
<g id="a_node3"><a xlink:href="classLibrary_1_1TelegramBot.html#a393bed01cc1264f45f5d03af79c8dd0f" target="_top" xlink:title="Maneja las actualizaciones del bot (todo lo que llega), incluyendo mensajes, ediciones de mensajes,...">
<polygon fill="white" stroke="#666666" points="317,-30 171,-30 171,0 317,0 317,-30"/>
<text text-anchor="start" x="179" y="-18" font-family="Helvetica,sans-Serif" font-size="10.00">Library.TelegramBot.Handle</text>
<text text-anchor="middle" x="244" y="-7" font-family="Helvetica,sans-Serif" font-size="10.00">UpdateAsync</text>
</a>
</g>
</g>
<!-- Node1&#45;&gt;Node3 -->
<g id="edge2" class="edge">
<title>Node1&#45;&gt;Node3</title>
<path fill="none" stroke="#63b8ff" d="M135.47,-27.94C143.31,-27 151.38,-26.03 159.41,-25.06"/>
<polygon fill="#63b8ff" stroke="#63b8ff" points="159.69,-28.55 169.2,-23.88 158.85,-21.6 159.69,-28.55"/>
</g>
<!-- Node3&#45;&gt;Node2 -->
<g id="edge3" class="edge">
<title>Node3&#45;&gt;Node2</title>
<path fill="none" stroke="#63b8ff" d="M317.43,-23.45C325.34,-24.37 333.43,-25.32 341.45,-26.25"/>
<polygon fill="#63b8ff" stroke="#63b8ff" points="340.87,-29.71 351.21,-27.39 341.68,-22.76 340.87,-29.71"/>
</g>
</g>
</svg>
