<?xml version="1.0" encoding="UTF-8" standalone="no"?>
<!DOCTYPE svg PUBLIC "-//W3C//DTD SVG 1.1//EN"
 "http://www.w3.org/Graphics/SVG/1.1/DTD/svg11.dtd">
<!-- Generated by graphviz version 7.0.2 (0)
 -->
<!-- Title: Library.OfertasHandler.DarDeBajaOferta Pages: 1 -->
<svg width="871pt" height="86pt"
 viewBox="0.00 0.00 871.00 86.00" xmlns="http://www.w3.org/2000/svg" xmlns:xlink="http://www.w3.org/1999/xlink">
<g id="graph0" class="graph" transform="scale(1 1) rotate(0) translate(4 82)">
<title>Library.OfertasHandler.DarDeBajaOferta</title>
<!-- Node1 -->
<g id="node1" class="node">
<title>Node1</title>
<g id="a_node1"><a xlink:title="Método para dar de baja una OfertaDeServicio">
<polygon fill="#999999" stroke="#666666" points="141,-54 0,-54 0,-24 141,-24 141,-54"/>
<text text-anchor="start" x="8" y="-42" font-family="Helvetica,sans-Serif" font-size="10.00">Library.OfertasHandler.Dar</text>
<text text-anchor="middle" x="70.5" y="-31" font-family="Helvetica,sans-Serif" font-size="10.00">DeBajaOferta</text>
</a>
</g>
</g>
<!-- Node2 -->
<g id="node2" class="node">
<title>Node2</title>
<g id="a_node2"><a xlink:href="classLibrary_1_1OfertaDeServicio.html#a05fd36175b1f8f268eca50f06be8931f" target="_top" xlink:title="Método para dar de baja un Usuario">
<polygon fill="white" stroke="#666666" points="314,-78 180,-78 180,-48 314,-48 314,-78"/>
<text text-anchor="start" x="188" y="-66" font-family="Helvetica,sans-Serif" font-size="10.00">Library.OfertaDeServicio.</text>
<text text-anchor="middle" x="247" y="-55" font-family="Helvetica,sans-Serif" font-size="10.00">DarDeBaja</text>
</a>
</g>
</g>
<!-- Node1&#45;&gt;Node2 -->
<g id="edge1" class="edge">
<title>Node1&#45;&gt;Node2</title>
<path fill="none" stroke="#63b8ff" d="M141.47,-48.62C150.34,-49.84 159.45,-51.1 168.43,-52.33"/>
<polygon fill="#63b8ff" stroke="#63b8ff" points="167.81,-55.78 178.2,-53.67 168.77,-48.84 167.81,-55.78"/>
</g>
<!-- Node4 -->
<g id="node4" class="node">
<title>Node4</title>
<g id="a_node4"><a xlink:href="classLibrary_1_1OfertasHandler.html#a77e846642d71cc0848a111e21fd20bbf" target="_top" xlink:title="Método para obtener una OfertaDeServicio por id">
<polygon fill="white" stroke="#666666" points="317,-30 177,-30 177,0 317,0 317,-30"/>
<text text-anchor="start" x="185" y="-18" font-family="Helvetica,sans-Serif" font-size="10.00">Library.OfertasHandler.Get</text>
<text text-anchor="middle" x="247" y="-7" font-family="Helvetica,sans-Serif" font-size="10.00">OfertaById</text>
</a>
</g>
</g>
<!-- Node1&#45;&gt;Node4 -->
<g id="edge3" class="edge">
<title>Node1&#45;&gt;Node4</title>
<path fill="none" stroke="#63b8ff" d="M141.47,-29.38C149.33,-28.3 157.39,-27.19 165.37,-26.09"/>
<polygon fill="#63b8ff" stroke="#63b8ff" points="165.65,-29.58 175.08,-24.75 164.7,-22.65 165.65,-29.58"/>
</g>
<!-- Node3 -->
<g id="node3" class="node">
<title>Node3</title>
<g id="a_node3"><a xlink:href="classLibrary_1_1Usuario.html#a33099664c3da6b61454db7c3343deceb" target="_top" xlink:title="Checkea que tipo de usuario es, puede ser Administrador, Trabajador o Empleador">
<polygon fill="white" stroke="#666666" points="484,-72.5 359,-72.5 359,-53.5 484,-53.5 484,-72.5"/>
<text text-anchor="middle" x="421.5" y="-60.5" font-family="Helvetica,sans-Serif" font-size="10.00">Library.Usuario.GetTipo</text>
</a>
</g>
</g>
<!-- Node2&#45;&gt;Node3 -->
<g id="edge2" class="edge">
<title>Node2&#45;&gt;Node3</title>
<path fill="none" stroke="#63b8ff" d="M314.2,-63C325.06,-63 336.37,-63 347.38,-63"/>
<polygon fill="#63b8ff" stroke="#63b8ff" points="347.21,-66.5 357.21,-63 347.21,-59.5 347.21,-66.5"/>
</g>
<!-- Node5 -->
<g id="node5" class="node">
<title>Node5</title>
<g id="a_node5"><a xlink:href="classLibrary_1_1CategoriasCatalog.html#a02d667d79dc6c941d7ab276c88259ff2" target="_top" xlink:title="Método para obtener OfertaDeServicio por id">
<polygon fill="white" stroke="#666666" points="490,-30 353,-30 353,0 490,0 490,-30"/>
<text text-anchor="start" x="361" y="-18" font-family="Helvetica,sans-Serif" font-size="10.00">Library.CategoriasCatalog.</text>
<text text-anchor="middle" x="421.5" y="-7" font-family="Helvetica,sans-Serif" font-size="10.00">GetOfertaById</text>
</a>
</g>
</g>
<!-- Node4&#45;&gt;Node5 -->
<g id="edge4" class="edge">
<title>Node4&#45;&gt;Node5</title>
<path fill="none" stroke="#63b8ff" d="M317.17,-15C325.13,-15 333.3,-15 341.38,-15"/>
<polygon fill="#63b8ff" stroke="#63b8ff" points="341.21,-18.5 351.21,-15 341.21,-11.5 341.21,-18.5"/>
</g>
<!-- Node6 -->
<g id="node6" class="node">
<title>Node6</title>
<g id="a_node6"><a xlink:href="classLibrary_1_1Categoria.html#abfee7bcdbeb886b1993fdfaf14efe6d7" target="_top" xlink:title="Filtrar OfertaDeServicio por id">
<polygon fill="white" stroke="#666666" points="693,-24.5 526,-24.5 526,-5.5 693,-5.5 693,-24.5"/>
<text text-anchor="middle" x="609.5" y="-12.5" font-family="Helvetica,sans-Serif" font-size="10.00">Library.Categoria.GetOfertaById</text>
</a>
</g>
</g>
<!-- Node5&#45;&gt;Node6 -->
<g id="edge5" class="edge">
<title>Node5&#45;&gt;Node6</title>
<path fill="none" stroke="#63b8ff" d="M490.44,-15C498.2,-15 506.21,-15 514.23,-15"/>
<polygon fill="#63b8ff" stroke="#63b8ff" points="514.04,-18.5 524.04,-15 514.04,-11.5 514.04,-18.5"/>
</g>
<!-- Node7 -->
<g id="node7" class="node">
<title>Node7</title>
<g id="a_node7"><a xlink:href="classLibrary_1_1OfertaDeServicio.html#a3aabf94b79625937babc2196b5ffa71e" target="_top" xlink:title="Método para obtener id de OfertaDeServicio">
<polygon fill="white" stroke="#666666" points="863,-30 729,-30 729,0 863,0 863,-30"/>
<text text-anchor="start" x="737" y="-18" font-family="Helvetica,sans-Serif" font-size="10.00">Library.OfertaDeServicio.</text>
<text text-anchor="middle" x="796" y="-7" font-family="Helvetica,sans-Serif" font-size="10.00">GetId</text>
</a>
</g>
</g>
<!-- Node6&#45;&gt;Node7 -->
<g id="edge6" class="edge">
<title>Node6&#45;&gt;Node7</title>
<path fill="none" stroke="#63b8ff" d="M693.31,-15C701.29,-15 709.36,-15 717.29,-15"/>
<polygon fill="#63b8ff" stroke="#63b8ff" points="717.26,-18.5 727.26,-15 717.26,-11.5 717.26,-18.5"/>
</g>
</g>
</svg>
