<?xml version="1.0" encoding="UTF-8" standalone="no"?>
<!DOCTYPE svg PUBLIC "-//W3C//DTD SVG 1.1//EN"
 "http://www.w3.org/Graphics/SVG/1.1/DTD/svg11.dtd">
<!-- Generated by graphviz version 7.0.2 (0)
 -->
<!-- Title: Library.OfertaDeServicio.RateMe Pages: 1 -->
<svg width="314pt" height="76pt"
 viewBox="0.00 0.00 314.00 75.50" xmlns="http://www.w3.org/2000/svg" xmlns:xlink="http://www.w3.org/1999/xlink">
<g id="graph0" class="graph" transform="scale(1 1) rotate(0) translate(4 71.5)">
<title>Library.OfertaDeServicio.RateMe</title>
<!-- Node1 -->
<g id="node1" class="node">
<title>Node1</title>
<g id="a_node1"><a xlink:title="Método para calificar la oferta en cuestión">
<polygon fill="#999999" stroke="#666666" points="134,-51 0,-51 0,-21 134,-21 134,-51"/>
<text text-anchor="start" x="8" y="-39" font-family="Helvetica,sans-Serif" font-size="10.00">Library.OfertaDeServicio.</text>
<text text-anchor="middle" x="67" y="-28" font-family="Helvetica,sans-Serif" font-size="10.00">RateMe</text>
</a>
</g>
</g>
<!-- Node2 -->
<g id="node2" class="node">
<title>Node2</title>
<g id="a_node2"><a xlink:href="classLibrary_1_1Trabajador.html#a6f55f5fa1d9bdd301639a0ac3d87b58e" target="_top" xlink:title="Método para calificar un usuario">
<polygon fill="white" stroke="#666666" points="306,-67.5 170,-67.5 170,-48.5 306,-48.5 306,-67.5"/>
<text text-anchor="middle" x="238" y="-55.5" font-family="Helvetica,sans-Serif" font-size="10.00">Library.Trabajador.Calificar</text>
</a>
</g>
</g>
<!-- Node1&#45;&gt;Node2 -->
<g id="edge1" class="edge">
<title>Node1&#45;&gt;Node2</title>
<path fill="none" stroke="#63b8ff" d="M134.31,-44.63C142.23,-45.66 150.37,-46.72 158.44,-47.77"/>
<polygon fill="#63b8ff" stroke="#63b8ff" points="157.9,-51.23 168.27,-49.05 158.81,-44.29 157.9,-51.23"/>
</g>
<!-- Node3 -->
<g id="node3" class="node">
<title>Node3</title>
<g id="a_node3"><a xlink:href="classLibrary_1_1OfertaDeServicio.html#a492d374e602fdcdc4053c1dc182ad32c" target="_top" xlink:title="Método para verificar si fue calificada la oferta">
<polygon fill="white" stroke="#666666" points="305,-30 171,-30 171,0 305,0 305,-30"/>
<text text-anchor="start" x="179" y="-18" font-family="Helvetica,sans-Serif" font-size="10.00">Library.OfertaDeServicio.</text>
<text text-anchor="middle" x="238" y="-7" font-family="Helvetica,sans-Serif" font-size="10.00">IsRated</text>
</a>
</g>
</g>
<!-- Node1&#45;&gt;Node3 -->
<g id="edge2" class="edge">
<title>Node1&#45;&gt;Node3</title>
<path fill="none" stroke="#63b8ff" d="M134.31,-27.76C142.51,-26.74 150.95,-25.69 159.3,-24.65"/>
<polygon fill="#63b8ff" stroke="#63b8ff" points="159.61,-28.14 169.1,-23.44 158.75,-21.2 159.61,-28.14"/>
</g>
</g>
</svg>
