<?xml version="1.0" encoding="UTF-8" standalone="no"?>
<!DOCTYPE svg PUBLIC "-//W3C//DTD SVG 1.1//EN"
 "http://www.w3.org/Graphics/SVG/1.1/DTD/svg11.dtd">
<!-- Generated by graphviz version 7.0.2 (0)
 -->
<!-- Title: Library.ContratoHandler Pages: 1 -->
<svg width="140pt" height="335pt"
 viewBox="0.00 0.00 140.00 335.00" xmlns="http://www.w3.org/2000/svg" xmlns:xlink="http://www.w3.org/1999/xlink">
<g id="graph0" class="graph" transform="scale(1 1) rotate(0) translate(4 331)">
<title>Library.ContratoHandler</title>
<!-- Node1 -->
<g id="node1" class="node">
<title>Node1</title>
<g id="a_node1"><a xlink:title="Clase para manejar el catalogo">
<polygon fill="#999999" stroke="#666666" points="132,-118 0,-118 0,0 132,0 132,-118"/>
<text text-anchor="middle" x="66" y="-106" font-family="Helvetica,sans-Serif" font-size="10.00">{Library.ContratoHandler</text>
<text text-anchor="start" x="8" y="-95" font-family="Helvetica,sans-Serif" font-size="10.00">|+ Instance</text>
<text text-anchor="start" x="8" y="-84" font-family="Helvetica,sans-Serif" font-size="10.00">|+ SolicitarTrabajador()</text>
<text text-anchor="start" x="8" y="-73" font-family="Helvetica,sans-Serif" font-size="10.00">+ AceptarSolicitud()</text>
<text text-anchor="start" x="8" y="-62" font-family="Helvetica,sans-Serif" font-size="10.00">+ RechazarSolicitud()</text>
<text text-anchor="start" x="8" y="-51" font-family="Helvetica,sans-Serif" font-size="10.00">+ GetSolicitud()</text>
<text text-anchor="start" x="8" y="-40" font-family="Helvetica,sans-Serif" font-size="10.00">+ GetSolicitudes()</text>
<text text-anchor="start" x="8" y="-29" font-family="Helvetica,sans-Serif" font-size="10.00">+ GetInstance()</text>
<text text-anchor="start" x="8" y="-18" font-family="Helvetica,sans-Serif" font-size="10.00">+ Wipe()</text>
<text text-anchor="middle" x="66" y="-7" font-family="Helvetica,sans-Serif" font-size="10.00">}</text>
</a>
</g>
</g>
<!-- Node2 -->
<g id="node2" class="node">
<title>Node2</title>
<g id="a_node2"><a xlink:href="classLibrary_1_1SolicitudCatalog.html" target="_top" xlink:title="Clase para para manejar el catálogo de solicitudes">
<polygon fill="white" stroke="#666666" points="130,-250 2,-250 2,-165 130,-165 130,-250"/>
<text text-anchor="middle" x="66" y="-238" font-family="Helvetica,sans-Serif" font-size="10.00">{Library.SolicitudCatalog</text>
<text text-anchor="start" x="10" y="-227" font-family="Helvetica,sans-Serif" font-size="10.00">|+ Instance</text>
<text text-anchor="start" x="10" y="-216" font-family="Helvetica,sans-Serif" font-size="10.00">|+ AddSolicitud()</text>
<text text-anchor="start" x="10" y="-205" font-family="Helvetica,sans-Serif" font-size="10.00">+ RemoveSolicitud()</text>
<text text-anchor="start" x="10" y="-194" font-family="Helvetica,sans-Serif" font-size="10.00">+ Wipe()</text>
<text text-anchor="start" x="10" y="-183" font-family="Helvetica,sans-Serif" font-size="10.00">+ GetInstance()</text>
<text text-anchor="middle" x="66" y="-172" font-family="Helvetica,sans-Serif" font-size="10.00">}</text>
</a>
</g>
</g>
<!-- Node2&#45;&gt;Node1 -->
<g id="edge1" class="edge">
<title>Node2&#45;&gt;Node1</title>
<path fill="none" stroke="#404040" d="M66,-164.52C66,-154.08 66,-142.59 66,-131.17"/>
<polygon fill="none" stroke="#404040" points="66,-131.26 62,-125.26 66,-119.26 70,-125.26 66,-131.26"/>
<text text-anchor="middle" x="90.5" y="-139" font-family="Helvetica,sans-Serif" font-size="10.00"> +Catalogo</text>
</g>
<!-- Node3 -->
<g id="node3" class="node">
<title>Node3</title>
<g id="a_node3"><a xlink:title=" ">
<polygon fill="white" stroke="#bfbfbf" points="128.5,-327 3.5,-327 3.5,-297 128.5,-297 128.5,-327"/>
<text text-anchor="middle" x="66" y="-315" font-family="Helvetica,sans-Serif" font-size="10.00">{List&lt; Library.Solicitud &gt;</text>
<text text-anchor="middle" x="66" y="-304" font-family="Helvetica,sans-Serif" font-size="10.00">||}</text>
</a>
</g>
</g>
<!-- Node3&#45;&gt;Node2 -->
<g id="edge2" class="edge">
<title>Node3&#45;&gt;Node2</title>
<path fill="none" stroke="#404040" d="M66,-296.75C66,-287.77 66,-275.54 66,-263.05"/>
<polygon fill="none" stroke="#404040" points="66,-262.96 62,-256.96 66,-250.96 70,-256.96 66,-262.96"/>
<text text-anchor="middle" x="95" y="-271" font-family="Helvetica,sans-Serif" font-size="10.00"> +Solicitudes</text>
</g>
</g>
</svg>
