<?xml version="1.0" encoding="UTF-8" standalone="no"?>
<!DOCTYPE svg PUBLIC "-//W3C//DTD SVG 1.1//EN"
 "http://www.w3.org/Graphics/SVG/1.1/DTD/svg11.dtd">
<!-- Generated by graphviz version 7.0.2 (0)
 -->
<!-- Title: Library.OfertasHandler.Ofertar Pages: 1 -->
<svg width="511pt" height="76pt"
 viewBox="0.00 0.00 511.00 75.50" xmlns="http://www.w3.org/2000/svg" xmlns:xlink="http://www.w3.org/1999/xlink">
<g id="graph0" class="graph" transform="scale(1 1) rotate(0) translate(4 71.5)">
<title>Library.OfertasHandler.Ofertar</title>
<!-- Node1 -->
<g id="node1" class="node">
<title>Node1</title>
<g id="a_node1"><a xlink:title="Constructor de la clase">
<polygon fill="#999999" stroke="#666666" points="158,-45.5 0,-45.5 0,-26.5 158,-26.5 158,-45.5"/>
<text text-anchor="middle" x="79" y="-33.5" font-family="Helvetica,sans-Serif" font-size="10.00">Library.OfertasHandler.Ofertar</text>
</a>
</g>
</g>
<!-- Node2 -->
<g id="node2" class="node">
<title>Node2</title>
<g id="a_node2"><a xlink:href="classLibrary_1_1Categoria.html#a76625bf1c77b7b7be79bb18dc30317a7" target="_top" xlink:title="Método para agregar una oferta en caso de que la misma no exista todavía en la lista">
<polygon fill="white" stroke="#666666" points="342,-67.5 194,-67.5 194,-48.5 342,-48.5 342,-67.5"/>
<text text-anchor="middle" x="268" y="-55.5" font-family="Helvetica,sans-Serif" font-size="10.00">Library.Categoria.AddOferta</text>
</a>
</g>
</g>
<!-- Node1&#45;&gt;Node2 -->
<g id="edge1" class="edge">
<title>Node1&#45;&gt;Node2</title>
<path fill="none" stroke="#63b8ff" d="M158.49,-45.23C166.44,-46.17 174.54,-47.12 182.55,-48.06"/>
<polygon fill="#63b8ff" stroke="#63b8ff" points="181.94,-51.52 192.28,-49.21 182.76,-44.56 181.94,-51.52"/>
</g>
<!-- Node3 -->
<g id="node3" class="node">
<title>Node3</title>
<g id="a_node3"><a xlink:href="classLibrary_1_1CategoriasCatalog.html#a9bedf1f8b23af24ef3515c48b7d05200" target="_top" xlink:title="Método para obtener una categoría por id">
<polygon fill="white" stroke="#666666" points="336.5,-30 199.5,-30 199.5,0 336.5,0 336.5,-30"/>
<text text-anchor="start" x="207.5" y="-18" font-family="Helvetica,sans-Serif" font-size="10.00">Library.CategoriasCatalog.</text>
<text text-anchor="middle" x="268" y="-7" font-family="Helvetica,sans-Serif" font-size="10.00">GetCategoriaById</text>
</a>
</g>
</g>
<!-- Node1&#45;&gt;Node3 -->
<g id="edge2" class="edge">
<title>Node1&#45;&gt;Node3</title>
<path fill="none" stroke="#63b8ff" d="M158.49,-27.19C168.19,-26.1 178.11,-24.98 187.82,-23.89"/>
<polygon fill="#63b8ff" stroke="#63b8ff" points="188.04,-27.39 197.59,-22.79 187.26,-20.43 188.04,-27.39"/>
</g>
<!-- Node4 -->
<g id="node4" class="node">
<title>Node4</title>
<g id="a_node4"><a xlink:href="classLibrary_1_1Categoria.html#a391925bcef104bf634b266e75310aedf" target="_top" xlink:title="Método para obtener el ID de una Categoria">
<polygon fill="white" stroke="#666666" points="503,-24.5 378,-24.5 378,-5.5 503,-5.5 503,-24.5"/>
<text text-anchor="middle" x="440.5" y="-12.5" font-family="Helvetica,sans-Serif" font-size="10.00">Library.Categoria.GetId</text>
</a>
</g>
</g>
<!-- Node3&#45;&gt;Node4 -->
<g id="edge3" class="edge">
<title>Node3&#45;&gt;Node4</title>
<path fill="none" stroke="#63b8ff" d="M336.88,-15C346.55,-15 356.54,-15 366.32,-15"/>
<polygon fill="#63b8ff" stroke="#63b8ff" points="366.15,-18.5 376.15,-15 366.15,-11.5 366.15,-18.5"/>
</g>
</g>
</svg>
