<?xml version="1.0" encoding="UTF-8" standalone="no"?>
<!DOCTYPE svg PUBLIC "-//W3C//DTD SVG 1.1//EN"
 "http://www.w3.org/Graphics/SVG/1.1/DTD/svg11.dtd">
<!-- Generated by graphviz version 7.0.2 (0)
 -->
<!-- Title: Library.ContratoHandler.RechazarSolicitud Pages: 1 -->
<svg width="454pt" height="38pt"
 viewBox="0.00 0.00 454.00 38.00" xmlns="http://www.w3.org/2000/svg" xmlns:xlink="http://www.w3.org/1999/xlink">
<g id="graph0" class="graph" transform="scale(1 1) rotate(0) translate(4 34)">
<title>Library.ContratoHandler.RechazarSolicitud</title>
<!-- Node1 -->
<g id="node1" class="node">
<title>Node1</title>
<g id="a_node1"><a xlink:title="Método para rechazar una solicitud">
<polygon fill="#999999" stroke="#666666" points="129,-30 0,-30 0,0 129,0 129,-30"/>
<text text-anchor="start" x="8" y="-18" font-family="Helvetica,sans-Serif" font-size="10.00">Library.ContratoHandler.</text>
<text text-anchor="middle" x="64.5" y="-7" font-family="Helvetica,sans-Serif" font-size="10.00">RechazarSolicitud</text>
</a>
</g>
</g>
<!-- Node2 -->
<g id="node2" class="node">
<title>Node2</title>
<g id="a_node2"><a xlink:href="classLibrary_1_1Solicitud.html#af5a3701c9bf3a3272239cfdbad4ca44c" target="_top" xlink:title="Método para conocer el estado de una oferta">
<polygon fill="white" stroke="#666666" points="289,-30 165,-30 165,0 289,0 289,-30"/>
<text text-anchor="start" x="173" y="-18" font-family="Helvetica,sans-Serif" font-size="10.00">Library.Solicitud.Recibir</text>
<text text-anchor="middle" x="227" y="-7" font-family="Helvetica,sans-Serif" font-size="10.00">Respuesta</text>
</a>
</g>
</g>
<!-- Node1&#45;&gt;Node2 -->
<g id="edge1" class="edge">
<title>Node1&#45;&gt;Node2</title>
<path fill="none" stroke="#63b8ff" d="M129.4,-15C137.21,-15 145.23,-15 153.16,-15"/>
<polygon fill="#63b8ff" stroke="#63b8ff" points="153.16,-18.5 163.16,-15 153.16,-11.5 153.16,-18.5"/>
</g>
<!-- Node3 -->
<g id="node3" class="node">
<title>Node3</title>
<g id="a_node3"><a xlink:href="classLibrary_1_1Solicitud.html#abd52f9a5723d6d08e2b3c4b1effc3bb3" target="_top" xlink:title="Método que inicia un trabajo, settea la fecha que fue aceptada y la máxima para calificar También cam...">
<polygon fill="white" stroke="#666666" points="446,-30 325,-30 325,0 446,0 446,-30"/>
<text text-anchor="start" x="333" y="-18" font-family="Helvetica,sans-Serif" font-size="10.00">Library.Solicitud.Iniciar</text>
<text text-anchor="middle" x="385.5" y="-7" font-family="Helvetica,sans-Serif" font-size="10.00">Trabajo</text>
</a>
</g>
</g>
<!-- Node2&#45;&gt;Node3 -->
<g id="edge2" class="edge">
<title>Node2&#45;&gt;Node3</title>
<path fill="none" stroke="#63b8ff" d="M289.4,-15C297.17,-15 305.17,-15 313.08,-15"/>
<polygon fill="#63b8ff" stroke="#63b8ff" points="313.04,-18.5 323.04,-15 313.04,-11.5 313.04,-18.5"/>
</g>
</g>
</svg>
