<?xml version="1.0" encoding="UTF-8" standalone="no"?>
<!DOCTYPE svg PUBLIC "-//W3C//DTD SVG 1.1//EN"
 "http://www.w3.org/Graphics/SVG/1.1/DTD/svg11.dtd">
<!-- Generated by graphviz version 7.0.2 (0)
 -->
<!-- Title: Library.BaseHandler.Handle Pages: 1 -->
<svg width="350pt" height="113pt"
 viewBox="0.00 0.00 350.00 112.50" xmlns="http://www.w3.org/2000/svg" xmlns:xlink="http://www.w3.org/1999/xlink">
<g id="graph0" class="graph" transform="scale(1 1) rotate(0) translate(4 108.5)">
<title>Library.BaseHandler.Handle</title>
<!-- Node1 -->
<g id="node1" class="node">
<title>Node1</title>
<g id="a_node1"><a xlink:title="Procesa el mensaje o lo pasa al siguiente &quot;handler&quot; si existe.">
<polygon fill="#999999" stroke="#666666" points="145,-67.5 0,-67.5 0,-48.5 145,-48.5 145,-67.5"/>
<text text-anchor="middle" x="72.5" y="-55.5" font-family="Helvetica,sans-Serif" font-size="10.00">Library.BaseHandler.Handle</text>
</a>
</g>
</g>
<!-- Node2 -->
<g id="node2" class="node">
<title>Node2</title>
<g id="a_node2"><a xlink:href="classLibrary_1_1BaseHandler.html#a77cfb55207412de295f3e038dd63b9a6" target="_top" xlink:title="Determina si este &quot;handler&quot; puede procesar el mensaje. En la clase base se utiliza el array BaseHandl...">
<polygon fill="white" stroke="#666666" points="342,-104.5 181,-104.5 181,-85.5 342,-85.5 342,-104.5"/>
<text text-anchor="middle" x="261.5" y="-92.5" font-family="Helvetica,sans-Serif" font-size="10.00">Library.BaseHandler.CanHandle</text>
</a>
</g>
</g>
<!-- Node1&#45;&gt;Node2 -->
<g id="edge1" class="edge">
<title>Node1&#45;&gt;Node2</title>
<path fill="none" stroke="#63b8ff" d="M123.61,-67.92C146.88,-72.52 174.75,-78.03 199.26,-82.88"/>
<polygon fill="#63b8ff" stroke="#63b8ff" points="198.28,-86.26 208.76,-84.76 199.63,-79.39 198.28,-86.26"/>
</g>
<!-- Node3 -->
<g id="node3" class="node">
<title>Node3</title>
<g id="a_node3"><a xlink:href="interfaceLibrary_1_1IHandler.html#abd9d7320dc805f417992ab74f2c70777" target="_top" xlink:title="Procesa el mensaje o la pasa al siguiente &quot;handler&quot; si existe.">
<polygon fill="white" stroke="#666666" points="324.5,-67.5 198.5,-67.5 198.5,-48.5 324.5,-48.5 324.5,-67.5"/>
<text text-anchor="middle" x="261.5" y="-55.5" font-family="Helvetica,sans-Serif" font-size="10.00">Library.IHandler.Handle</text>
</a>
</g>
</g>
<!-- Node1&#45;&gt;Node3 -->
<g id="edge2" class="edge">
<title>Node1&#45;&gt;Node3</title>
<path fill="none" stroke="#63b8ff" d="M145.26,-58C158.86,-58 173.11,-58 186.77,-58"/>
<polygon fill="#63b8ff" stroke="#63b8ff" points="186.56,-61.5 196.56,-58 186.56,-54.5 186.56,-61.5"/>
</g>
<!-- Node4 -->
<g id="node4" class="node">
<title>Node4</title>
<g id="a_node4"><a xlink:href="classLibrary_1_1BaseHandler.html#a3c9be9c87d458588b108790b13758887" target="_top" xlink:title="Este método debe ser sobreescrito por las clases sucesores. La clase sucesora procesa el mensaje y as...">
<polygon fill="white" stroke="#666666" points="336,-30 187,-30 187,0 336,0 336,-30"/>
<text text-anchor="start" x="195" y="-18" font-family="Helvetica,sans-Serif" font-size="10.00">Library.BaseHandler.Internal</text>
<text text-anchor="middle" x="261.5" y="-7" font-family="Helvetica,sans-Serif" font-size="10.00">Handle</text>
</a>
</g>
</g>
<!-- Node1&#45;&gt;Node4 -->
<g id="edge3" class="edge">
<title>Node1&#45;&gt;Node4</title>
<path fill="none" stroke="#63b8ff" d="M116.87,-48.03C136.25,-43.57 159.72,-38.17 182.01,-33.05"/>
<polygon fill="#63b8ff" stroke="#63b8ff" points="182.75,-36.47 191.71,-30.82 181.18,-29.65 182.75,-36.47"/>
</g>
</g>
</svg>
