<?xml version="1.0" encoding="UTF-8" standalone="no"?>
<!DOCTYPE svg PUBLIC "-//W3C//DTD SVG 1.1//EN"
 "http://www.w3.org/Graphics/SVG/1.1/DTD/svg11.dtd">
<!-- Generated by graphviz version 7.0.2 (0)
 -->
<!-- Title: Library.OfertaDeServicio.GetCalificacion Pages: 1 -->
<svg width="521pt" height="85pt"
 viewBox="0.00 0.00 521.00 85.00" xmlns="http://www.w3.org/2000/svg" xmlns:xlink="http://www.w3.org/1999/xlink">
<g id="graph0" class="graph" transform="scale(1 1) rotate(0) translate(4 81)">
<title>Library.OfertaDeServicio.GetCalificacion</title>
<!-- Node1 -->
<g id="node1" class="node">
<title>Node1</title>
<g id="a_node1"><a xlink:title="Método para obtener la calificación dada a la oferta tras ser finalizada">
<polygon fill="#999999" stroke="#666666" points="513,-63.5 379,-63.5 379,-33.5 513,-33.5 513,-63.5"/>
<text text-anchor="start" x="387" y="-51.5" font-family="Helvetica,sans-Serif" font-size="10.00">Library.OfertaDeServicio.</text>
<text text-anchor="middle" x="446" y="-40.5" font-family="Helvetica,sans-Serif" font-size="10.00">GetCalificacion</text>
</a>
</g>
</g>
<!-- Node2 -->
<g id="node2" class="node">
<title>Node2</title>
<g id="a_node2"><a xlink:href="classLibrary_1_1Solicitud.html#a9c37895e75e674a5ea4667bb8aee1d4d" target="_top" xlink:title="Método para obtener el promedio de calificación de un trabajador">
<polygon fill="white" stroke="#666666" points="343,-77 164,-77 164,-58 343,-58 343,-77"/>
<text text-anchor="middle" x="253.5" y="-65" font-family="Helvetica,sans-Serif" font-size="10.00">Library.Solicitud.GetTrabajadorRate</text>
</a>
</g>
</g>
<!-- Node1&#45;&gt;Node2 -->
<g id="edge1" class="edge">
<title>Node1&#45;&gt;Node2</title>
<path fill="none" stroke="#63b8ff" d="M367.27,-56.25C359.4,-57.04 351.38,-57.84 343.41,-58.63"/>
<polygon fill="#63b8ff" stroke="#63b8ff" points="367.53,-59.74 377.13,-55.27 366.84,-52.78 367.53,-59.74"/>
</g>
<!-- Node3 -->
<g id="node3" class="node">
<title>Node3</title>
<g id="a_node3"><a xlink:href="classLibrary_1_1Solicitud.html#a3f28506b2bd1231cf55a2652d876d2ea" target="_top" xlink:title="Método para conocer si una oferta fue calificada">
<polygon fill="white" stroke="#666666" points="317.5,-40 189.5,-40 189.5,-21 317.5,-21 317.5,-40"/>
<text text-anchor="middle" x="253.5" y="-28" font-family="Helvetica,sans-Serif" font-size="10.00">Library.Solicitud.IsRated</text>
</a>
</g>
</g>
<!-- Node1&#45;&gt;Node3 -->
<g id="edge2" class="edge">
<title>Node1&#45;&gt;Node3</title>
<path fill="none" stroke="#63b8ff" d="M367.36,-41.16C350.86,-39.6 333.63,-37.98 317.74,-36.48"/>
<polygon fill="#63b8ff" stroke="#63b8ff" points="366.85,-44.63 377.13,-42.09 367.51,-37.66 366.85,-44.63"/>
</g>
<!-- Node4 -->
<g id="node4" class="node">
<title>Node4</title>
<g id="a_node4"><a xlink:href="classLibrary_1_1Solicitud.html#a7f50425869d0aad5d0c0f7e6abe42492" target="_top" xlink:title="Método para calificar un trabajador">
<polygon fill="white" stroke="#666666" points="128,-67.5 0,-67.5 0,-37.5 128,-37.5 128,-67.5"/>
<text text-anchor="start" x="8" y="-55.5" font-family="Helvetica,sans-Serif" font-size="10.00">Library.Solicitud.Calificar</text>
<text text-anchor="middle" x="64" y="-44.5" font-family="Helvetica,sans-Serif" font-size="10.00">Trabajador</text>
</a>
</g>
</g>
<!-- Node3&#45;&gt;Node4 -->
<g id="edge3" class="edge">
<title>Node3&#45;&gt;Node4</title>
<path fill="none" stroke="#63b8ff" d="M177.84,-39.26C161.47,-41.18 144.29,-43.2 128.41,-45.06"/>
<polygon fill="#63b8ff" stroke="#63b8ff" points="177.99,-42.77 187.52,-38.12 177.18,-35.81 177.99,-42.77"/>
</g>
<!-- Node5 -->
<g id="node5" class="node">
<title>Node5</title>
<g id="a_node5"><a xlink:href="classLibrary_1_1Solicitud.html#a2b9a4efefd35c16aca1099d7997c286e" target="_top" xlink:title="Método para actualizar una calificación en caso que se haga dentro del plazo. Si excede la fecha lími...">
<polygon fill="white" stroke="#666666" points="127,-19 1,-19 1,0 127,0 127,-19"/>
<text text-anchor="middle" x="64" y="-7" font-family="Helvetica,sans-Serif" font-size="10.00">Library.Solicitud.Update</text>
</a>
</g>
</g>
<!-- Node3&#45;&gt;Node5 -->
<g id="edge4" class="edge">
<title>Node3&#45;&gt;Node5</title>
<path fill="none" stroke="#63b8ff" d="M177.66,-22.12C161.02,-20.25 143.54,-18.3 127.46,-16.5"/>
<polygon fill="#63b8ff" stroke="#63b8ff" points="177.19,-25.59 187.52,-23.22 177.97,-18.63 177.19,-25.59"/>
</g>
</g>
</svg>
