<?xml version="1.0" encoding="UTF-8" standalone="no"?>
<!DOCTYPE svg PUBLIC "-//W3C//DTD SVG 1.1//EN"
 "http://www.w3.org/Graphics/SVG/1.1/DTD/svg11.dtd">
<!-- Generated by graphviz version 7.0.2 (0)
 -->
<!-- Title: Library.CategoriasCatalog.RemoveCategoria Pages: 1 -->
<svg width="491pt" height="52pt"
 viewBox="0.00 0.00 491.00 51.50" xmlns="http://www.w3.org/2000/svg" xmlns:xlink="http://www.w3.org/1999/xlink">
<g id="graph0" class="graph" transform="scale(1 1) rotate(0) translate(4 47.5)">
<title>Library.CategoriasCatalog.RemoveCategoria</title>
<!-- Node1 -->
<g id="node1" class="node">
<title>Node1</title>
<g id="a_node1"><a xlink:title="Método para eliminar una categoría">
<polygon fill="#999999" stroke="#666666" points="137,-30 0,-30 0,0 137,0 137,-30"/>
<text text-anchor="start" x="8" y="-18" font-family="Helvetica,sans-Serif" font-size="10.00">Library.CategoriasCatalog.</text>
<text text-anchor="middle" x="68.5" y="-7" font-family="Helvetica,sans-Serif" font-size="10.00">RemoveCategoria</text>
</a>
</g>
</g>
<!-- Node2 -->
<g id="node2" class="node">
<title>Node2</title>
<g id="a_node2"><a xlink:href="classLibrary_1_1Categoria.html#ac49a20997f4a7ca69f06e9e7e5914e94" target="_top" xlink:title="Método para dar de baja la categoría">
<polygon fill="white" stroke="#666666" points="322,-43.5 173,-43.5 173,-24.5 322,-24.5 322,-43.5"/>
<text text-anchor="middle" x="247.5" y="-31.5" font-family="Helvetica,sans-Serif" font-size="10.00">Library.Categoria.DarDeBaja</text>
</a>
</g>
</g>
<!-- Node1&#45;&gt;Node2 -->
<g id="edge1" class="edge">
<title>Node1&#45;&gt;Node2</title>
<path fill="none" stroke="#63b8ff" d="M137.43,-22.29C145.25,-23.13 153.29,-23.99 161.3,-24.85"/>
<polygon fill="#63b8ff" stroke="#63b8ff" points="160.75,-28.32 171.07,-25.9 161.5,-21.36 160.75,-28.32"/>
</g>
<!-- Node3 -->
<g id="node3" class="node">
<title>Node3</title>
<g id="a_node3"><a xlink:href="classLibrary_1_1Usuario.html#a33099664c3da6b61454db7c3343deceb" target="_top" xlink:title="Checkea que tipo de usuario es, puede ser Administrador, Trabajador o Empleador">
<polygon fill="white" stroke="#666666" points="483,-24.5 358,-24.5 358,-5.5 483,-5.5 483,-24.5"/>
<text text-anchor="middle" x="420.5" y="-12.5" font-family="Helvetica,sans-Serif" font-size="10.00">Library.Usuario.GetTipo</text>
</a>
</g>
</g>
<!-- Node1&#45;&gt;Node3 -->
<g id="edge3" class="edge">
<title>Node1&#45;&gt;Node3</title>
<path fill="none" stroke="#63b8ff" d="M137.4,-15C197.47,-15 284.9,-15 346.47,-15"/>
<polygon fill="#63b8ff" stroke="#63b8ff" points="346.14,-18.5 356.14,-15 346.14,-11.5 346.14,-18.5"/>
</g>
<!-- Node2&#45;&gt;Node3 -->
<g id="edge2" class="edge">
<title>Node2&#45;&gt;Node3</title>
<path fill="none" stroke="#63b8ff" d="M322.01,-25.83C330.07,-24.94 338.28,-24.02 346.33,-23.13"/>
<polygon fill="#63b8ff" stroke="#63b8ff" points="346.53,-26.63 356.09,-22.05 345.76,-19.67 346.53,-26.63"/>
</g>
</g>
</svg>
