<?xml version="1.0" encoding="UTF-8" standalone="no"?>
<!DOCTYPE svg PUBLIC "-//W3C//DTD SVG 1.1//EN"
 "http://www.w3.org/Graphics/SVG/1.1/DTD/svg11.dtd">
<!-- Generated by graphviz version 7.0.2 (0)
 -->
<!-- Title: RegistrarHandler Pages: 1 -->
<svg width="124pt" height="170pt"
 viewBox="0.00 0.00 124.00 170.00" xmlns="http://www.w3.org/2000/svg" xmlns:xlink="http://www.w3.org/1999/xlink">
<g id="graph0" class="graph" transform="scale(1 1) rotate(0) translate(4 166)">
<title>RegistrarHandler</title>
<!-- Node1 -->
<g id="node1" class="node">
<title>Node1</title>
<g id="a_node1"><a xlink:title=" ">
<polygon fill="#999999" stroke="#666666" points="116,-96 0,-96 0,0 116,0 116,-96"/>
<text text-anchor="middle" x="58" y="-84" font-family="Helvetica,sans-Serif" font-size="10.00">{RegistrarHandler</text>
<text text-anchor="start" x="8" y="-73" font-family="Helvetica,sans-Serif" font-size="10.00">|+ TempInfo</text>
<text text-anchor="start" x="8" y="-62" font-family="Helvetica,sans-Serif" font-size="10.00">+ TempTipo</text>
<text text-anchor="start" x="8" y="-51" font-family="Helvetica,sans-Serif" font-size="10.00">+ State</text>
<text text-anchor="start" x="8" y="-40" font-family="Helvetica,sans-Serif" font-size="10.00">|+ RegistrarHandler()</text>
<text text-anchor="start" x="8" y="-29" font-family="Helvetica,sans-Serif" font-size="10.00"># CanHandle()</text>
<text text-anchor="start" x="8" y="-18" font-family="Helvetica,sans-Serif" font-size="10.00"># InternalHandle()</text>
<text text-anchor="middle" x="58" y="-7" font-family="Helvetica,sans-Serif" font-size="10.00">}</text>
</a>
</g>
</g>
<!-- Node2 -->
<g id="node2" class="node">
<title>Node2</title>
<g id="a_node2"><a xlink:href="classBaseHandler.html" target="_top" xlink:title=" ">
<polygon fill="white" stroke="#bfbfbf" points="98,-162 18,-162 18,-132 98,-132 98,-162"/>
<text text-anchor="middle" x="58" y="-150" font-family="Helvetica,sans-Serif" font-size="10.00">{BaseHandler</text>
<text text-anchor="middle" x="58" y="-139" font-family="Helvetica,sans-Serif" font-size="10.00">||}</text>
</a>
</g>
</g>
<!-- Node2&#45;&gt;Node1 -->
<g id="edge1" class="edge">
<title>Node2&#45;&gt;Node1</title>
<path fill="none" stroke="#63b8ff" d="M58,-120.26C58,-112.85 58,-104.52 58,-96.25"/>
<polygon fill="none" stroke="#63b8ff" points="54.5,-120.17 58,-130.17 61.5,-120.17 54.5,-120.17"/>
</g>
</g>
</svg>
