<?xml version="1.0" encoding="UTF-8" standalone="no"?>
<!DOCTYPE svg PUBLIC "-//W3C//DTD SVG 1.1//EN"
 "http://www.w3.org/Graphics/SVG/1.1/DTD/svg11.dtd">
<!-- Generated by graphviz version 7.0.2 (0)
 -->
<!-- Title: Library.Solicitud.Update Pages: 1 -->
<svg width="501pt" height="301pt"
 viewBox="0.00 0.00 501.00 300.50" xmlns="http://www.w3.org/2000/svg" xmlns:xlink="http://www.w3.org/1999/xlink">
<g id="graph0" class="graph" transform="scale(1 1) rotate(0) translate(4 296.5)">
<title>Library.Solicitud.Update</title>
<!-- Node1 -->
<g id="node1" class="node">
<title>Node1</title>
<g id="a_node1"><a xlink:title="Método para actualizar una calificación en caso que se haga dentro del plazo. Si excede la fecha lími...">
<polygon fill="#999999" stroke="#666666" points="126,-177.5 0,-177.5 0,-158.5 126,-158.5 126,-177.5"/>
<text text-anchor="middle" x="63" y="-165.5" font-family="Helvetica,sans-Serif" font-size="10.00">Library.Solicitud.Update</text>
</a>
</g>
</g>
<!-- Node2 -->
<g id="node2" class="node">
<title>Node2</title>
<g id="a_node2"><a xlink:href="classLibrary_1_1Empleador.html#af855415550ea99a1f69bad954292d916" target="_top" xlink:title="Método para calificar un usuario">
<polygon fill="white" stroke="#666666" points="310,-292.5 173,-292.5 173,-273.5 310,-273.5 310,-292.5"/>
<text text-anchor="middle" x="241.5" y="-280.5" font-family="Helvetica,sans-Serif" font-size="10.00">Library.Empleador.Calificar</text>
</a>
</g>
</g>
<!-- Node1&#45;&gt;Node2 -->
<g id="edge1" class="edge">
<title>Node1&#45;&gt;Node2</title>
<path fill="none" stroke="#63b8ff" d="M71.12,-177.92C85.78,-197.57 121.38,-241.48 162,-264 165.41,-265.89 169.01,-267.6 172.72,-269.14"/>
<polygon fill="#63b8ff" stroke="#63b8ff" points="171.36,-272.37 181.95,-272.52 173.77,-265.79 171.36,-272.37"/>
</g>
<!-- Node3 -->
<g id="node3" class="node">
<title>Node3</title>
<g id="a_node3"><a xlink:href="classLibrary_1_1Solicitud.html#abef8160453ba23dd43195d34d5dab535" target="_top" xlink:title="Compara la fecha actual con la fecha límite para calificar">
<polygon fill="white" stroke="#666666" points="321,-255 162,-255 162,-225 321,-225 321,-255"/>
<text text-anchor="start" x="170" y="-243" font-family="Helvetica,sans-Serif" font-size="10.00">Library.Solicitud.CanEmpleador</text>
<text text-anchor="middle" x="241.5" y="-232" font-family="Helvetica,sans-Serif" font-size="10.00">BeAutoRated</text>
</a>
</g>
</g>
<!-- Node1&#45;&gt;Node3 -->
<g id="edge2" class="edge">
<title>Node1&#45;&gt;Node3</title>
<path fill="none" stroke="#63b8ff" d="M82.03,-177.91C101.4,-188.3 133.28,-204.66 162,-216 166.32,-217.71 170.82,-219.37 175.38,-220.97"/>
<polygon fill="#63b8ff" stroke="#63b8ff" points="174.03,-224.21 184.63,-224.1 176.28,-217.58 174.03,-224.21"/>
</g>
<!-- Node4 -->
<g id="node4" class="node">
<title>Node4</title>
<g id="a_node4"><a xlink:href="classLibrary_1_1Solicitud.html#a055dea1c122c135f738e6d9d0a7df76f" target="_top" xlink:title="Compara la fecha actual con la fecha límite para calificar">
<polygon fill="white" stroke="#666666" points="320.5,-207 162.5,-207 162.5,-177 320.5,-177 320.5,-207"/>
<text text-anchor="start" x="170.5" y="-195" font-family="Helvetica,sans-Serif" font-size="10.00">Library.Solicitud.CanTrabajador</text>
<text text-anchor="middle" x="241.5" y="-184" font-family="Helvetica,sans-Serif" font-size="10.00">BeAutoRated</text>
</a>
</g>
</g>
<!-- Node1&#45;&gt;Node4 -->
<g id="edge3" class="edge">
<title>Node1&#45;&gt;Node4</title>
<path fill="none" stroke="#63b8ff" d="M126.23,-176.46C134.21,-177.55 142.51,-178.68 150.82,-179.81"/>
<polygon fill="#63b8ff" stroke="#63b8ff" points="150.26,-183.26 160.64,-181.14 151.2,-176.32 150.26,-183.26"/>
</g>
<!-- Node5 -->
<g id="node5" class="node">
<title>Node5</title>
<g id="a_node5"><a xlink:href="classLibrary_1_1Solicitud.html#ad96bd18918513d6785345cda681fd644" target="_top" xlink:title="Método para conocer si un empleador fue calificado">
<polygon fill="white" stroke="#666666" points="317,-159 166,-159 166,-129 317,-129 317,-159"/>
<text text-anchor="start" x="174" y="-147" font-family="Helvetica,sans-Serif" font-size="10.00">Library.Solicitud.IsEmpleador</text>
<text text-anchor="middle" x="241.5" y="-136" font-family="Helvetica,sans-Serif" font-size="10.00">Rated</text>
</a>
</g>
</g>
<!-- Node1&#45;&gt;Node5 -->
<g id="edge4" class="edge">
<title>Node1&#45;&gt;Node5</title>
<path fill="none" stroke="#63b8ff" d="M126.23,-159.54C135.36,-158.3 144.9,-157 154.4,-155.71"/>
<polygon fill="#63b8ff" stroke="#63b8ff" points="154.58,-159.22 164.02,-154.4 153.64,-152.28 154.58,-159.22"/>
</g>
<!-- Node6 -->
<g id="node6" class="node">
<title>Node6</title>
<g id="a_node6"><a xlink:href="classLibrary_1_1Solicitud.html#a3f28506b2bd1231cf55a2652d876d2ea" target="_top" xlink:title="Método para conocer si una oferta fue calificada">
<polygon fill="white" stroke="#666666" points="305.5,-110.5 177.5,-110.5 177.5,-91.5 305.5,-91.5 305.5,-110.5"/>
<text text-anchor="middle" x="241.5" y="-98.5" font-family="Helvetica,sans-Serif" font-size="10.00">Library.Solicitud.IsRated</text>
</a>
</g>
</g>
<!-- Node1&#45;&gt;Node6 -->
<g id="edge5" class="edge">
<title>Node1&#45;&gt;Node6</title>
<path fill="none" stroke="#63b8ff" d="M81.2,-158.14C100.39,-147.49 132.6,-130.61 162,-120 168.17,-117.77 174.7,-115.73 181.26,-113.87"/>
<polygon fill="#63b8ff" stroke="#63b8ff" points="182.05,-117.28 190.81,-111.31 180.24,-110.52 182.05,-117.28"/>
</g>
<!-- Node8 -->
<g id="node8" class="node">
<title>Node8</title>
<g id="a_node8"><a xlink:href="classLibrary_1_1OfertaDeServicio.html#aeed25698e68c88cf5374dd5afe732b5f" target="_top" xlink:title="Método para calificar la oferta en cuestión">
<polygon fill="white" stroke="#666666" points="308.5,-73 174.5,-73 174.5,-43 308.5,-43 308.5,-73"/>
<text text-anchor="start" x="182.5" y="-61" font-family="Helvetica,sans-Serif" font-size="10.00">Library.OfertaDeServicio.</text>
<text text-anchor="middle" x="241.5" y="-50" font-family="Helvetica,sans-Serif" font-size="10.00">RateMe</text>
</a>
</g>
</g>
<!-- Node1&#45;&gt;Node8 -->
<g id="edge7" class="edge">
<title>Node1&#45;&gt;Node8</title>
<path fill="none" stroke="#63b8ff" d="M72.74,-158.14C88.78,-140.62 124.68,-103.94 162,-83 165.34,-81.12 168.85,-79.37 172.44,-77.72"/>
<polygon fill="#63b8ff" stroke="#63b8ff" points="173.5,-81.08 181.36,-73.98 170.79,-74.62 173.5,-81.08"/>
</g>
<!-- Node7 -->
<g id="node7" class="node">
<title>Node7</title>
<g id="a_node7"><a xlink:href="classLibrary_1_1OfertaDeServicio.html#a7d3b09276de28b53109097ca44c76ac8" target="_top" xlink:title="Método para obtener la calificación dada a la oferta tras ser finalizada">
<polygon fill="white" stroke="#666666" points="492,-116 358,-116 358,-86 492,-86 492,-116"/>
<text text-anchor="start" x="366" y="-104" font-family="Helvetica,sans-Serif" font-size="10.00">Library.OfertaDeServicio.</text>
<text text-anchor="middle" x="425" y="-93" font-family="Helvetica,sans-Serif" font-size="10.00">GetCalificacion</text>
</a>
</g>
</g>
<!-- Node6&#45;&gt;Node7 -->
<g id="edge6" class="edge">
<title>Node6&#45;&gt;Node7</title>
<path fill="none" stroke="#63b8ff" d="M305.98,-101C319.08,-101 333.01,-101 346.54,-101"/>
<polygon fill="#63b8ff" stroke="#63b8ff" points="346.27,-104.5 356.27,-101 346.27,-97.5 346.27,-104.5"/>
</g>
<!-- Node9 -->
<g id="node9" class="node">
<title>Node9</title>
<g id="a_node9"><a xlink:href="classLibrary_1_1Trabajador.html#a6f55f5fa1d9bdd301639a0ac3d87b58e" target="_top" xlink:title="Método para calificar un usuario">
<polygon fill="white" stroke="#666666" points="493,-67.5 357,-67.5 357,-48.5 493,-48.5 493,-67.5"/>
<text text-anchor="middle" x="425" y="-55.5" font-family="Helvetica,sans-Serif" font-size="10.00">Library.Trabajador.Calificar</text>
</a>
</g>
</g>
<!-- Node8&#45;&gt;Node9 -->
<g id="edge8" class="edge">
<title>Node8&#45;&gt;Node9</title>
<path fill="none" stroke="#63b8ff" d="M308.8,-58C320.61,-58 333.03,-58 345.16,-58"/>
<polygon fill="#63b8ff" stroke="#63b8ff" points="345.15,-61.5 355.15,-58 345.15,-54.5 345.15,-61.5"/>
</g>
<!-- Node10 -->
<g id="node10" class="node">
<title>Node10</title>
<g id="a_node10"><a xlink:href="classLibrary_1_1OfertaDeServicio.html#a492d374e602fdcdc4053c1dc182ad32c" target="_top" xlink:title="Método para verificar si fue calificada la oferta">
<polygon fill="white" stroke="#666666" points="492,-30 358,-30 358,0 492,0 492,-30"/>
<text text-anchor="start" x="366" y="-18" font-family="Helvetica,sans-Serif" font-size="10.00">Library.OfertaDeServicio.</text>
<text text-anchor="middle" x="425" y="-7" font-family="Helvetica,sans-Serif" font-size="10.00">IsRated</text>
</a>
</g>
</g>
<!-- Node8&#45;&gt;Node10 -->
<g id="edge9" class="edge">
<title>Node8&#45;&gt;Node10</title>
<path fill="none" stroke="#63b8ff" d="M307.77,-42.54C320.71,-39.47 334.41,-36.23 347.68,-33.08"/>
<polygon fill="#63b8ff" stroke="#63b8ff" points="348.3,-36.53 357.23,-30.82 346.69,-29.72 348.3,-36.53"/>
</g>
</g>
</svg>
