<?xml version="1.0" encoding="UTF-8" standalone="no"?>
<!DOCTYPE svg PUBLIC "-//W3C//DTD SVG 1.1//EN"
 "http://www.w3.org/Graphics/SVG/1.1/DTD/svg11.dtd">
<!-- Generated by graphviz version 7.0.2 (0)
 -->
<!-- Title: Library.BaseHandler.Cancel Pages: 1 -->
<svg width="334pt" height="76pt"
 viewBox="0.00 0.00 334.00 75.50" xmlns="http://www.w3.org/2000/svg" xmlns:xlink="http://www.w3.org/1999/xlink">
<g id="graph0" class="graph" transform="scale(1 1) rotate(0) translate(4 71.5)">
<title>Library.BaseHandler.Cancel</title>
<!-- Node1 -->
<g id="node1" class="node">
<title>Node1</title>
<g id="a_node1"><a xlink:title="Retorna este &quot;handler&quot; al estado inicial. En los &quot;handler&quot; sin estado no hace nada....">
<polygon fill="#999999" stroke="#666666" points="141,-45.5 0,-45.5 0,-26.5 141,-26.5 141,-45.5"/>
<text text-anchor="middle" x="70.5" y="-33.5" font-family="Helvetica,sans-Serif" font-size="10.00">Library.BaseHandler.Cancel</text>
</a>
</g>
</g>
<!-- Node2 -->
<g id="node2" class="node">
<title>Node2</title>
<g id="a_node2"><a xlink:href="interfaceLibrary_1_1IHandler.html#a02b03dede9d3e26c294d15d8f6163dcd" target="_top" xlink:title="Retorna este &quot;handler&quot; al estado inicial y cancela el próximo &quot;handler&quot; si existe....">
<polygon fill="white" stroke="#666666" points="312.5,-67.5 190.5,-67.5 190.5,-48.5 312.5,-48.5 312.5,-67.5"/>
<text text-anchor="middle" x="251.5" y="-55.5" font-family="Helvetica,sans-Serif" font-size="10.00">Library.IHandler.Cancel</text>
</a>
</g>
</g>
<!-- Node1&#45;&gt;Node2 -->
<g id="edge1" class="edge">
<title>Node1&#45;&gt;Node2</title>
<path fill="none" stroke="#63b8ff" d="M141.48,-44.6C153.79,-46.11 166.62,-47.69 178.97,-49.21"/>
<polygon fill="#63b8ff" stroke="#63b8ff" points="178.3,-52.65 188.65,-50.4 179.15,-45.7 178.3,-52.65"/>
</g>
<!-- Node3 -->
<g id="node3" class="node">
<title>Node3</title>
<g id="a_node3"><a xlink:href="classLibrary_1_1BaseHandler.html#a573ceb3115be4331dc60c0dd94ebf74a" target="_top" xlink:title="Este método puede ser sobreescrito en las clases sucesores que procesan varios mensajes cambiando de ...">
<polygon fill="white" stroke="#666666" points="326,-30 177,-30 177,0 326,0 326,-30"/>
<text text-anchor="start" x="185" y="-18" font-family="Helvetica,sans-Serif" font-size="10.00">Library.BaseHandler.Internal</text>
<text text-anchor="middle" x="251.5" y="-7" font-family="Helvetica,sans-Serif" font-size="10.00">Cancel</text>
</a>
</g>
</g>
<!-- Node1&#45;&gt;Node3 -->
<g id="edge2" class="edge">
<title>Node1&#45;&gt;Node3</title>
<path fill="none" stroke="#63b8ff" d="M141.48,-27.79C149.34,-26.87 157.42,-25.92 165.44,-24.98"/>
<polygon fill="#63b8ff" stroke="#63b8ff" points="165.71,-28.47 175.23,-23.83 164.89,-21.52 165.71,-28.47"/>
</g>
</g>
</svg>
