<?xml version="1.0" encoding="UTF-8" standalone="no"?>
<!DOCTYPE svg PUBLIC "-//W3C//DTD SVG 1.1//EN"
 "http://www.w3.org/Graphics/SVG/1.1/DTD/svg11.dtd">
<!-- Generated by graphviz version 7.0.2 (0)
 -->
<!-- Title: Library.Usuario.GetContacto Pages: 1 -->
<svg width="325pt" height="86pt"
 viewBox="0.00 0.00 325.00 86.00" xmlns="http://www.w3.org/2000/svg" xmlns:xlink="http://www.w3.org/1999/xlink">
<g id="graph0" class="graph" transform="scale(1 1) rotate(0) translate(4 82)">
<title>Library.Usuario.GetContacto</title>
<!-- Node1 -->
<g id="node1" class="node">
<title>Node1</title>
<g id="a_node1"><a xlink:title="Método para obtener el contacto de un usuario">
<polygon fill="#999999" stroke="#666666" points="317,-48.5 170,-48.5 170,-29.5 317,-29.5 317,-48.5"/>
<text text-anchor="middle" x="243.5" y="-36.5" font-family="Helvetica,sans-Serif" font-size="10.00">Library.Usuario.GetContacto</text>
</a>
</g>
</g>
<!-- Node2 -->
<g id="node2" class="node">
<title>Node2</title>
<g id="a_node2"><a xlink:href="classLibrary_1_1OfertaDeServicio.html#a824cec6c78534e0886ad48df4aad4387" target="_top" xlink:title="Método para obtener el contacto del ofertante">
<polygon fill="white" stroke="#666666" points="134,-78 0,-78 0,-48 134,-48 134,-78"/>
<text text-anchor="start" x="8" y="-66" font-family="Helvetica,sans-Serif" font-size="10.00">Library.OfertaDeServicio.</text>
<text text-anchor="middle" x="67" y="-55" font-family="Helvetica,sans-Serif" font-size="10.00">GetContacto</text>
</a>
</g>
</g>
<!-- Node1&#45;&gt;Node2 -->
<g id="edge1" class="edge">
<title>Node1&#45;&gt;Node2</title>
<path fill="none" stroke="#63b8ff" d="M158.87,-50.5C150.66,-51.63 142.41,-52.77 134.4,-53.87"/>
<polygon fill="#63b8ff" stroke="#63b8ff" points="159.08,-54.01 168.51,-49.18 158.13,-47.07 159.08,-54.01"/>
</g>
<!-- Node3 -->
<g id="node3" class="node">
<title>Node3</title>
<g id="a_node3"><a xlink:href="classLibrary_1_1RegistryHandler.html#a84981fb8a897e98895cbe8b06763f324" target="_top" xlink:title="Método para obtener el contacto de un usuario">
<polygon fill="white" stroke="#666666" points="131,-30 3,-30 3,0 131,0 131,-30"/>
<text text-anchor="start" x="11" y="-18" font-family="Helvetica,sans-Serif" font-size="10.00">Library.RegistryHandler.</text>
<text text-anchor="middle" x="67" y="-7" font-family="Helvetica,sans-Serif" font-size="10.00">GetUserContact</text>
</a>
</g>
</g>
<!-- Node1&#45;&gt;Node3 -->
<g id="edge2" class="edge">
<title>Node1&#45;&gt;Node3</title>
<path fill="none" stroke="#63b8ff" d="M158.81,-27.49C149.57,-26.22 140.29,-24.94 131.36,-23.71"/>
<polygon fill="#63b8ff" stroke="#63b8ff" points="158.13,-30.93 168.51,-28.82 159.08,-23.99 158.13,-30.93"/>
</g>
</g>
</svg>
