<?xml version="1.0" encoding="UTF-8" standalone="no"?>
<!DOCTYPE svg PUBLIC "-//W3C//DTD SVG 1.1//EN"
 "http://www.w3.org/Graphics/SVG/1.1/DTD/svg11.dtd">
<!-- Generated by graphviz version 7.0.2 (0)
 -->
<!-- Title: Library.Usuario.SetContraseña Pages: 1 -->
<svg width="385pt" height="101pt"
 viewBox="0.00 0.00 385.00 101.00" xmlns="http://www.w3.org/2000/svg" xmlns:xlink="http://www.w3.org/1999/xlink">
<g id="graph0" class="graph" transform="scale(1 1) rotate(0) translate(4 97)">
<title>Library.Usuario.SetContraseña</title>
<!-- Node1 -->
<g id="node1" class="node">
<title>Node1</title>
<g id="a_node1"><a xlink:title="Método para settear la contraseña">
<polygon fill="#999999" stroke="#666666" points="377,-56 220,-56 220,-37 377,-37 377,-56"/>
<text text-anchor="middle" x="298.5" y="-44" font-family="Helvetica,sans-Serif" font-size="10.00">Library.Usuario.SetContraseña</text>
</a>
</g>
</g>
<!-- Node2 -->
<g id="node2" class="node">
<title>Node2</title>
<g id="a_node2"><a xlink:href="classLibrary_1_1Administrador.html#a49887c9b642fad80228af502edf6f8ca" target="_top" xlink:title="Constructor de la clase Administrador">
<polygon fill="white" stroke="#666666" points="184,-93 0,-93 0,-74 184,-74 184,-93"/>
<text text-anchor="middle" x="92" y="-81" font-family="Helvetica,sans-Serif" font-size="10.00">Library.Administrador.Administrador</text>
</a>
</g>
</g>
<!-- Node1&#45;&gt;Node2 -->
<g id="edge1" class="edge">
<title>Node1&#45;&gt;Node2</title>
<path fill="none" stroke="#63b8ff" d="M231.19,-58.5C204.36,-63.35 173.75,-68.89 148.17,-73.52"/>
<polygon fill="#63b8ff" stroke="#63b8ff" points="231.72,-61.96 240.94,-56.73 230.48,-55.07 231.72,-61.96"/>
</g>
<!-- Node3 -->
<g id="node3" class="node">
<title>Node3</title>
<g id="a_node3"><a xlink:href="classLibrary_1_1Empleador.html#a0455b7b82f05b0dae6f8e08ef4d50c72" target="_top" xlink:title="Constructor de la clase Empleador">
<polygon fill="white" stroke="#666666" points="168,-56 16,-56 16,-37 168,-37 168,-56"/>
<text text-anchor="middle" x="92" y="-44" font-family="Helvetica,sans-Serif" font-size="10.00">Library.Empleador.Empleador</text>
</a>
</g>
</g>
<!-- Node1&#45;&gt;Node3 -->
<g id="edge2" class="edge">
<title>Node1&#45;&gt;Node3</title>
<path fill="none" stroke="#63b8ff" d="M208.45,-46.5C195.07,-46.5 181.38,-46.5 168.32,-46.5"/>
<polygon fill="#63b8ff" stroke="#63b8ff" points="208.09,-50 218.09,-46.5 208.09,-43 208.09,-50"/>
</g>
<!-- Node4 -->
<g id="node4" class="node">
<title>Node4</title>
<g id="a_node4"><a xlink:href="classLibrary_1_1Trabajador.html#a97983678e5335fd1fa6080459376a51b" target="_top" xlink:title="Constructor de la clase">
<polygon fill="white" stroke="#666666" points="166.5,-19 17.5,-19 17.5,0 166.5,0 166.5,-19"/>
<text text-anchor="middle" x="92" y="-7" font-family="Helvetica,sans-Serif" font-size="10.00">Library.Trabajador.Trabajador</text>
</a>
</g>
</g>
<!-- Node1&#45;&gt;Node4 -->
<g id="edge3" class="edge">
<title>Node1&#45;&gt;Node4</title>
<path fill="none" stroke="#63b8ff" d="M231.19,-34.5C204.36,-29.65 173.75,-24.11 148.17,-19.48"/>
<polygon fill="#63b8ff" stroke="#63b8ff" points="230.48,-37.93 240.94,-36.27 231.72,-31.04 230.48,-37.93"/>
</g>
</g>
</svg>
