<?xml version="1.0" encoding="UTF-8" standalone="no"?>
<!DOCTYPE svg PUBLIC "-//W3C//DTD SVG 1.1//EN"
 "http://www.w3.org/Graphics/SVG/1.1/DTD/svg11.dtd">
<!-- Generated by graphviz version 7.0.2 (0)
 -->
<!-- Title: Library.OfertasHandler.EliminarCategoria Pages: 1 -->
<svg width="688pt" height="87pt"
 viewBox="0.00 0.00 688.00 86.50" xmlns="http://www.w3.org/2000/svg" xmlns:xlink="http://www.w3.org/1999/xlink">
<g id="graph0" class="graph" transform="scale(1 1) rotate(0) translate(4 82.5)">
<title>Library.OfertasHandler.EliminarCategoria</title>
<!-- Node1 -->
<g id="node1" class="node">
<title>Node1</title>
<g id="a_node1"><a xlink:title="Método para eliminar una categoría">
<polygon fill="#999999" stroke="#666666" points="161,-78.5 0,-78.5 0,-48.5 161,-48.5 161,-78.5"/>
<text text-anchor="start" x="8" y="-66.5" font-family="Helvetica,sans-Serif" font-size="10.00">Library.OfertasHandler.Eliminar</text>
<text text-anchor="middle" x="80.5" y="-55.5" font-family="Helvetica,sans-Serif" font-size="10.00">Categoria</text>
</a>
</g>
</g>
<!-- Node2 -->
<g id="node2" class="node">
<title>Node2</title>
<g id="a_node2"><a xlink:href="classLibrary_1_1Usuario.html#a33099664c3da6b61454db7c3343deceb" target="_top" xlink:title="Checkea que tipo de usuario es, puede ser Administrador, Trabajador o Empleador">
<polygon fill="white" stroke="#666666" points="680,-57 555,-57 555,-38 680,-38 680,-57"/>
<text text-anchor="middle" x="617.5" y="-45" font-family="Helvetica,sans-Serif" font-size="10.00">Library.Usuario.GetTipo</text>
</a>
</g>
</g>
<!-- Node1&#45;&gt;Node2 -->
<g id="edge1" class="edge">
<title>Node1&#45;&gt;Node2</title>
<path fill="none" stroke="#63b8ff" d="M161.34,-65.84C173.29,-66.12 185.47,-66.35 197,-66.5 340.13,-68.36 376.31,-70.96 519,-59.5 526.95,-58.86 535.24,-58.06 543.5,-57.17"/>
<polygon fill="#63b8ff" stroke="#63b8ff" points="543.64,-60.67 553.18,-56.08 542.85,-53.72 543.64,-60.67"/>
</g>
<!-- Node3 -->
<g id="node3" class="node">
<title>Node3</title>
<g id="a_node3"><a xlink:href="classLibrary_1_1CategoriasCatalog.html#a3e0b35f2e1dbf53a7dddd9f46fd038b8" target="_top" xlink:title="Método para eliminar una categoría">
<polygon fill="white" stroke="#666666" points="334,-57.5 197,-57.5 197,-27.5 334,-27.5 334,-57.5"/>
<text text-anchor="start" x="205" y="-45.5" font-family="Helvetica,sans-Serif" font-size="10.00">Library.CategoriasCatalog.</text>
<text text-anchor="middle" x="265.5" y="-34.5" font-family="Helvetica,sans-Serif" font-size="10.00">RemoveCategoria</text>
</a>
</g>
</g>
<!-- Node1&#45;&gt;Node3 -->
<g id="edge2" class="edge">
<title>Node1&#45;&gt;Node3</title>
<path fill="none" stroke="#63b8ff" d="M161.23,-54.35C169.29,-53.43 177.46,-52.49 185.51,-51.56"/>
<polygon fill="#63b8ff" stroke="#63b8ff" points="185.73,-55.06 195.26,-50.45 184.93,-48.11 185.73,-55.06"/>
</g>
<!-- Node3&#45;&gt;Node2 -->
<g id="edge5" class="edge">
<title>Node3&#45;&gt;Node2</title>
<path fill="none" stroke="#63b8ff" d="M334.4,-43.47C394.47,-44.33 481.9,-45.58 543.47,-46.46"/>
<polygon fill="#63b8ff" stroke="#63b8ff" points="543.09,-49.95 553.14,-46.59 543.19,-42.95 543.09,-49.95"/>
</g>
<!-- Node4 -->
<g id="node4" class="node">
<title>Node4</title>
<g id="a_node4"><a xlink:href="classLibrary_1_1Categoria.html#ac49a20997f4a7ca69f06e9e7e5914e94" target="_top" xlink:title="Método para dar de baja la categoría">
<polygon fill="white" stroke="#666666" points="519,-19 370,-19 370,0 519,0 519,-19"/>
<text text-anchor="middle" x="444.5" y="-7" font-family="Helvetica,sans-Serif" font-size="10.00">Library.Categoria.DarDeBaja</text>
</a>
</g>
</g>
<!-- Node3&#45;&gt;Node4 -->
<g id="edge3" class="edge">
<title>Node3&#45;&gt;Node4</title>
<path fill="none" stroke="#63b8ff" d="M334.43,-29.84C349.11,-27.1 364.59,-24.21 379.13,-21.5"/>
<polygon fill="#63b8ff" stroke="#63b8ff" points="379.36,-25.02 388.55,-19.74 378.08,-18.14 379.36,-25.02"/>
</g>
<!-- Node4&#45;&gt;Node2 -->
<g id="edge4" class="edge">
<title>Node4&#45;&gt;Node2</title>
<path fill="none" stroke="#63b8ff" d="M490.43,-19.48C511.85,-24.24 537.68,-29.99 560.38,-35.03"/>
<polygon fill="#63b8ff" stroke="#63b8ff" points="559.58,-38.44 570.1,-37.19 561.1,-31.6 559.58,-38.44"/>
</g>
</g>
</svg>
