<?xml version="1.0" encoding="UTF-8" standalone="no"?>
<!DOCTYPE svg PUBLIC "-//W3C//DTD SVG 1.1//EN"
 "http://www.w3.org/Graphics/SVG/1.1/DTD/svg11.dtd">
<!-- Generated by graphviz version 7.0.2 (0)
 -->
<!-- Title: Library.OfertasHandler.GetCategoriaById Pages: 1 -->
<svg width="482pt" height="38pt"
 viewBox="0.00 0.00 482.00 38.00" xmlns="http://www.w3.org/2000/svg" xmlns:xlink="http://www.w3.org/1999/xlink">
<g id="graph0" class="graph" transform="scale(1 1) rotate(0) translate(4 34)">
<title>Library.OfertasHandler.GetCategoriaById</title>
<!-- Node1 -->
<g id="node1" class="node">
<title>Node1</title>
<g id="a_node1"><a xlink:title="Método para obtener una Categoria por id">
<polygon fill="#999999" stroke="#666666" points="140,-30 0,-30 0,0 140,0 140,-30"/>
<text text-anchor="start" x="8" y="-18" font-family="Helvetica,sans-Serif" font-size="10.00">Library.OfertasHandler.Get</text>
<text text-anchor="middle" x="70" y="-7" font-family="Helvetica,sans-Serif" font-size="10.00">CategoriaById</text>
</a>
</g>
</g>
<!-- Node2 -->
<g id="node2" class="node">
<title>Node2</title>
<g id="a_node2"><a xlink:href="classLibrary_1_1CategoriasCatalog.html#a9bedf1f8b23af24ef3515c48b7d05200" target="_top" xlink:title="Método para obtener una categoría por id">
<polygon fill="white" stroke="#666666" points="313,-30 176,-30 176,0 313,0 313,-30"/>
<text text-anchor="start" x="184" y="-18" font-family="Helvetica,sans-Serif" font-size="10.00">Library.CategoriasCatalog.</text>
<text text-anchor="middle" x="244.5" y="-7" font-family="Helvetica,sans-Serif" font-size="10.00">GetCategoriaById</text>
</a>
</g>
</g>
<!-- Node1&#45;&gt;Node2 -->
<g id="edge1" class="edge">
<title>Node1&#45;&gt;Node2</title>
<path fill="none" stroke="#63b8ff" d="M140.17,-15C148.13,-15 156.3,-15 164.38,-15"/>
<polygon fill="#63b8ff" stroke="#63b8ff" points="164.21,-18.5 174.21,-15 164.21,-11.5 164.21,-18.5"/>
</g>
<!-- Node3 -->
<g id="node3" class="node">
<title>Node3</title>
<g id="a_node3"><a xlink:href="classLibrary_1_1Categoria.html#a391925bcef104bf634b266e75310aedf" target="_top" xlink:title="Método para obtener el ID de una Categoria">
<polygon fill="white" stroke="#666666" points="474,-24.5 349,-24.5 349,-5.5 474,-5.5 474,-24.5"/>
<text text-anchor="middle" x="411.5" y="-12.5" font-family="Helvetica,sans-Serif" font-size="10.00">Library.Categoria.GetId</text>
</a>
</g>
</g>
<!-- Node2&#45;&gt;Node3 -->
<g id="edge2" class="edge">
<title>Node2&#45;&gt;Node3</title>
<path fill="none" stroke="#63b8ff" d="M313.09,-15C321.07,-15 329.25,-15 337.31,-15"/>
<polygon fill="#63b8ff" stroke="#63b8ff" points="337.07,-18.5 347.07,-15 337.07,-11.5 337.07,-18.5"/>
</g>
</g>
</svg>
