<?xml version="1.0" encoding="UTF-8" standalone="no"?>
<!DOCTYPE svg PUBLIC "-//W3C//DTD SVG 1.1//EN"
 "http://www.w3.org/Graphics/SVG/1.1/DTD/svg11.dtd">
<!-- Generated by graphviz version 7.0.2 (0)
 -->
<!-- Title: Library.UsuariosCatalog Pages: 1 -->
<svg width="137pt" height="203pt"
 viewBox="0.00 0.00 137.00 203.00" xmlns="http://www.w3.org/2000/svg" xmlns:xlink="http://www.w3.org/1999/xlink">
<g id="graph0" class="graph" transform="scale(1 1) rotate(0) translate(4 199)">
<title>Library.UsuariosCatalog</title>
<!-- Node1 -->
<g id="node1" class="node">
<title>Node1</title>
<g id="a_node1"><a xlink:title="Método para el manejo del catálogo del usuario">
<polygon fill="#999999" stroke="#666666" points="129,-118 0,-118 0,0 129,0 129,-118"/>
<text text-anchor="middle" x="64.5" y="-106" font-family="Helvetica,sans-Serif" font-size="10.00">{Library.UsuariosCatalog</text>
<text text-anchor="start" x="8" y="-95" font-family="Helvetica,sans-Serif" font-size="10.00">|+ Instance</text>
<text text-anchor="start" x="8" y="-84" font-family="Helvetica,sans-Serif" font-size="10.00">|+ GetUsuarios()</text>
<text text-anchor="start" x="8" y="-73" font-family="Helvetica,sans-Serif" font-size="10.00">+ GetUsuarioById()</text>
<text text-anchor="start" x="8" y="-62" font-family="Helvetica,sans-Serif" font-size="10.00">+ AddUsuario()</text>
<text text-anchor="start" x="8" y="-51" font-family="Helvetica,sans-Serif" font-size="10.00">+ AddAdminstrador()</text>
<text text-anchor="start" x="8" y="-40" font-family="Helvetica,sans-Serif" font-size="10.00">+ RemoveUsuario()</text>
<text text-anchor="start" x="8" y="-29" font-family="Helvetica,sans-Serif" font-size="10.00">+ Wipe()</text>
<text text-anchor="start" x="8" y="-18" font-family="Helvetica,sans-Serif" font-size="10.00">+ GetInstance()</text>
<text text-anchor="middle" x="64.5" y="-7" font-family="Helvetica,sans-Serif" font-size="10.00">}</text>
</a>
</g>
</g>
<!-- Node2 -->
<g id="node2" class="node">
<title>Node2</title>
<g id="a_node2"><a xlink:title=" ">
<polygon fill="white" stroke="#bfbfbf" points="125.5,-195 3.5,-195 3.5,-165 125.5,-165 125.5,-195"/>
<text text-anchor="middle" x="64.5" y="-183" font-family="Helvetica,sans-Serif" font-size="10.00">{List&lt; Library.Usuario &gt;</text>
<text text-anchor="middle" x="64.5" y="-172" font-family="Helvetica,sans-Serif" font-size="10.00">||}</text>
</a>
</g>
</g>
<!-- Node2&#45;&gt;Node1 -->
<g id="edge1" class="edge">
<title>Node2&#45;&gt;Node1</title>
<path fill="none" stroke="#404040" d="M64.5,-164.88C64.5,-156.11 64.5,-144.09 64.5,-131.32"/>
<polygon fill="none" stroke="#404040" points="64.5,-131.29 60.5,-125.29 64.5,-119.29 68.5,-125.29 64.5,-131.29"/>
<text text-anchor="middle" x="89.5" y="-139" font-family="Helvetica,sans-Serif" font-size="10.00"> #Usuarios</text>
</g>
</g>
</svg>
