<?xml version="1.0" encoding="UTF-8" standalone="no"?>
<!DOCTYPE svg PUBLIC "-//W3C//DTD SVG 1.1//EN"
 "http://www.w3.org/Graphics/SVG/1.1/DTD/svg11.dtd">
<!-- Generated by graphviz version 7.0.2 (0)
 -->
<!-- Title: Library.Solicitud.CalificarEmpleador Pages: 1 -->
<svg width="323pt" height="76pt"
 viewBox="0.00 0.00 323.00 75.50" xmlns="http://www.w3.org/2000/svg" xmlns:xlink="http://www.w3.org/1999/xlink">
<g id="graph0" class="graph" transform="scale(1 1) rotate(0) translate(4 71.5)">
<title>Library.Solicitud.CalificarEmpleador</title>
<!-- Node1 -->
<g id="node1" class="node">
<title>Node1</title>
<g id="a_node1"><a xlink:title="Método para calificar un empleador">
<polygon fill="#999999" stroke="#666666" points="128,-51 0,-51 0,-21 128,-21 128,-51"/>
<text text-anchor="start" x="8" y="-39" font-family="Helvetica,sans-Serif" font-size="10.00">Library.Solicitud.Calificar</text>
<text text-anchor="middle" x="64" y="-28" font-family="Helvetica,sans-Serif" font-size="10.00">Empleador</text>
</a>
</g>
</g>
<!-- Node2 -->
<g id="node2" class="node">
<title>Node2</title>
<g id="a_node2"><a xlink:href="classLibrary_1_1Empleador.html#af855415550ea99a1f69bad954292d916" target="_top" xlink:title="Método para calificar un usuario">
<polygon fill="white" stroke="#666666" points="308,-67.5 171,-67.5 171,-48.5 308,-48.5 308,-67.5"/>
<text text-anchor="middle" x="239.5" y="-55.5" font-family="Helvetica,sans-Serif" font-size="10.00">Library.Empleador.Calificar</text>
</a>
</g>
</g>
<!-- Node1&#45;&gt;Node2 -->
<g id="edge1" class="edge">
<title>Node1&#45;&gt;Node2</title>
<path fill="none" stroke="#63b8ff" d="M128.13,-44C138.3,-45.29 148.95,-46.64 159.44,-47.98"/>
<polygon fill="#63b8ff" stroke="#63b8ff" points="158.88,-51.43 169.24,-49.22 159.76,-44.49 158.88,-51.43"/>
</g>
<!-- Node3 -->
<g id="node3" class="node">
<title>Node3</title>
<g id="a_node3"><a xlink:href="classLibrary_1_1Solicitud.html#ad96bd18918513d6785345cda681fd644" target="_top" xlink:title="Método para conocer si un empleador fue calificado">
<polygon fill="white" stroke="#666666" points="315,-30 164,-30 164,0 315,0 315,-30"/>
<text text-anchor="start" x="172" y="-18" font-family="Helvetica,sans-Serif" font-size="10.00">Library.Solicitud.IsEmpleador</text>
<text text-anchor="middle" x="239.5" y="-7" font-family="Helvetica,sans-Serif" font-size="10.00">Rated</text>
</a>
</g>
</g>
<!-- Node1&#45;&gt;Node3 -->
<g id="edge2" class="edge">
<title>Node1&#45;&gt;Node3</title>
<path fill="none" stroke="#63b8ff" d="M128.13,-28.36C136.06,-27.4 144.27,-26.41 152.47,-25.41"/>
<polygon fill="#63b8ff" stroke="#63b8ff" points="152.61,-28.92 162.12,-24.24 151.77,-21.97 152.61,-28.92"/>
</g>
</g>
</svg>
