<?xml version="1.0" encoding="UTF-8" standalone="no"?>
<!DOCTYPE svg PUBLIC "-//W3C//DTD SVG 1.1//EN"
 "http://www.w3.org/Graphics/SVG/1.1/DTD/svg11.dtd">
<!-- Generated by graphviz version 7.0.2 (0)
 -->
<!-- Title: Library.Usuario.GetTipo Pages: 1 -->
<!--zoomable 889 -->
<svg id="main" version="1.1" xmlns="http://www.w3.org/2000/svg" xmlns:xlink="http://www.w3.org/1999/xlink" xml:space="preserve" onload="init(evt)">
<style type="text/css"><![CDATA[
.edge:hover path { stroke: red; }
.edge:hover polygon { stroke: red; fill: red; }
]]></style>
<script type="text/javascript"><![CDATA[
var edges = document.getElementsByTagName('g');
if (edges && edges.length) {
  for (var i=0;i<edges.length;i++) {
    if (edges[i].id.substr(0,4)=='edge') {
      edges[i].setAttribute('class','edge');
    }
  }
}
]]></script>
        <defs>
                <circle id="rim" cx="0" cy="0" r="7"/>
                <circle id="rim2" cx="0" cy="0" r="3.5"/>
                <g id="zoomPlus">
                        <use xlink:href="#rim" fill="#404040">
                                <set attributeName="fill" to="#808080" begin="zoomplus.mouseover" end="zoomplus.mouseout"/>
                        </use>
                        <path d="M-4,0h8M0,-4v8" fill="none" stroke="white" stroke-width="1.5" pointer-events="none"/>
                </g>
                <g id="zoomMin">
                        <use xlink:href="#rim" fill="#404040">
                                <set attributeName="fill" to="#808080" begin="zoomminus.mouseover" end="zoomminus.mouseout"/>
                        </use>
                        <path d="M-4,0h8" fill="none" stroke="white" stroke-width="1.5" pointer-events="none"/>
                </g>
                <g id="dirArrow">
                        <path fill="none" stroke="white" stroke-width="1.5" d="M0,-3.0v7 M-2.5,-0.5L0,-3.0L2.5,-0.5"/>
                </g>
               <g id="resetDef">
                       <use xlink:href="#rim2" fill="#404040">
                               <set attributeName="fill" to="#808080" begin="reset.mouseover" end="reset.mouseout"/>
                       </use>
               </g>
        </defs>

<script type="text/javascript">
var viewWidth = 711;
var viewHeight = 889;
var sectionId = 'dynsection-5';
</script>
<script xlink:href="svgpan.js"/>
<svg id="graph" class="graph">
<g id="viewport">
<title>Library.Usuario.GetTipo</title>
<!-- Node1 -->
<g id="node1" class="node">
<title>Node1</title>
<g id="a_node1"><a xlink:title="Checkea que tipo de usuario es, puede ser Administrador, Trabajador o Empleador">
<polygon fill="#999999" stroke="#666666" points="703,-442 578,-442 578,-423 703,-423 703,-442"/>
<text text-anchor="middle" x="640.5" y="-430" font-family="Helvetica,sans-Serif" font-size="10.00">Library.Usuario.GetTipo</text>
</a>
</g>
</g>
<!-- Node2 -->
<g id="node2" class="node">
<title>Node2</title>
<g id="a_node2"><a xlink:href="classLibrary_1_1CategoriasCatalog.html#a9cfffa528cb849e731015b40d8040672" target="_top" xlink:title="Método para agregar una nueva categoría al catálogo">
<polygon fill="white" stroke="#666666" points="530.5,-880.5 393.5,-880.5 393.5,-850.5 530.5,-850.5 530.5,-880.5"/>
<text text-anchor="start" x="401.5" y="-868.5" font-family="Helvetica,sans-Serif" font-size="10.00">Library.CategoriasCatalog.</text>
<text text-anchor="middle" x="462" y="-857.5" font-family="Helvetica,sans-Serif" font-size="10.00">AddCategoria</text>
</a>
</g>
</g>
<!-- Node1&#45;&gt;Node2 -->
<g id="edge1" class="edge">
<title>Node1&#45;&gt;Node2</title>
<path fill="none" stroke="#63b8ff" d="M637.08,-453.27C628.06,-527.44 594.18,-777.94 542,-836.5 537.04,-842.06 530.93,-846.56 524.31,-850.2"/>
<polygon fill="#63b8ff" stroke="#63b8ff" points="640.51,-454.09 638.22,-443.74 633.56,-453.26 640.51,-454.09"/>
</g>
<!-- Node3 -->
<g id="node3" class="node">
<title>Node3</title>
<g id="a_node3"><a xlink:href="classLibrary_1_1OfertasHandler.html#af6bfbc799ee8cd3666cd54ae25667b29" target="_top" xlink:title="Método para crear una categoria">
<polygon fill="white" stroke="#666666" points="346,-858.5 197,-858.5 197,-828.5 346,-828.5 346,-858.5"/>
<text text-anchor="start" x="205" y="-846.5" font-family="Helvetica,sans-Serif" font-size="10.00">Library.OfertasHandler.Crear</text>
<text text-anchor="middle" x="271.5" y="-835.5" font-family="Helvetica,sans-Serif" font-size="10.00">Categoria</text>
</a>
</g>
</g>
<!-- Node1&#45;&gt;Node3 -->
<g id="edge3" class="edge">
<title>Node1&#45;&gt;Node3</title>
<path fill="none" stroke="#63b8ff" d="M637.03,-453.3C628.16,-524.32 595.58,-755.5 542,-803.5 513.86,-828.71 415.9,-838.03 346.21,-841.48"/>
<polygon fill="#63b8ff" stroke="#63b8ff" points="640.45,-454.16 638.19,-443.81 633.5,-453.32 640.45,-454.16"/>
</g>
<!-- Node4 -->
<g id="node4" class="node">
<title>Node4</title>
<g id="a_node4"><a xlink:href="classLibrary_1_1Categoria.html#ac49a20997f4a7ca69f06e9e7e5914e94" target="_top" xlink:title="Método para dar de baja la categoría">
<polygon fill="white" stroke="#666666" points="536.5,-794 387.5,-794 387.5,-775 536.5,-775 536.5,-794"/>
<text text-anchor="middle" x="462" y="-782" font-family="Helvetica,sans-Serif" font-size="10.00">Library.Categoria.DarDeBaja</text>
</a>
</g>
</g>
<!-- Node1&#45;&gt;Node4 -->
<g id="edge4" class="edge">
<title>Node1&#45;&gt;Node4</title>
<path fill="none" stroke="#63b8ff" d="M639.69,-453.71C639.01,-511.44 629.02,-672.95 542,-760.5 535.94,-766.6 528.38,-771.16 520.35,-774.56"/>
<polygon fill="#63b8ff" stroke="#63b8ff" points="643.19,-453.98 639.71,-443.98 636.19,-453.97 643.19,-453.98"/>
</g>
<!-- Node5 -->
<g id="node5" class="node">
<title>Node5</title>
<g id="a_node5"><a xlink:href="classLibrary_1_1CategoriasCatalog.html#a3e0b35f2e1dbf53a7dddd9f46fd038b8" target="_top" xlink:title="Método para eliminar una categoría">
<polygon fill="white" stroke="#666666" points="340,-782.5 203,-782.5 203,-752.5 340,-752.5 340,-782.5"/>
<text text-anchor="start" x="211" y="-770.5" font-family="Helvetica,sans-Serif" font-size="10.00">Library.CategoriasCatalog.</text>
<text text-anchor="middle" x="271.5" y="-759.5" font-family="Helvetica,sans-Serif" font-size="10.00">RemoveCategoria</text>
</a>
</g>
</g>
<!-- Node1&#45;&gt;Node5 -->
<g id="edge23" class="edge">
<title>Node1&#45;&gt;Node5</title>
<path fill="none" stroke="#63b8ff" d="M639.31,-453.62C637.6,-507.66 625.08,-651.68 542,-722.5 512.4,-747.74 410.12,-759.11 340.43,-764.02"/>
<polygon fill="#63b8ff" stroke="#63b8ff" points="642.8,-454.02 639.51,-443.95 635.81,-453.88 642.8,-454.02"/>
</g>
<!-- Node6 -->
<g id="node6" class="node">
<title>Node6</title>
<g id="a_node6"><a xlink:href="classLibrary_1_1OfertasHandler.html#afefa462e1fe30165a2985f3ec5daa760" target="_top" xlink:title="Método para eliminar una categoría">
<polygon fill="white" stroke="#666666" points="161,-760.5 0,-760.5 0,-730.5 161,-730.5 161,-760.5"/>
<text text-anchor="start" x="8" y="-748.5" font-family="Helvetica,sans-Serif" font-size="10.00">Library.OfertasHandler.Eliminar</text>
<text text-anchor="middle" x="80.5" y="-737.5" font-family="Helvetica,sans-Serif" font-size="10.00">Categoria</text>
</a>
</g>
</g>
<!-- Node1&#45;&gt;Node6 -->
<g id="edge14" class="edge">
<title>Node1&#45;&gt;Node6</title>
<path fill="none" stroke="#63b8ff" d="M638.47,-453.76C634.78,-503.93 618.02,-629.94 542,-689.5 512.68,-712.47 285.25,-731.49 161.35,-740.27"/>
<polygon fill="#63b8ff" stroke="#63b8ff" points="641.95,-454.18 639.07,-443.99 634.96,-453.75 641.95,-454.18"/>
</g>
<!-- Node7 -->
<g id="node7" class="node">
<title>Node7</title>
<g id="a_node7"><a xlink:href="classLibrary_1_1OfertaDeServicio.html#a05fd36175b1f8f268eca50f06be8931f" target="_top" xlink:title="Método para dar de baja un Usuario">
<polygon fill="white" stroke="#666666" points="529,-680.5 395,-680.5 395,-650.5 529,-650.5 529,-680.5"/>
<text text-anchor="start" x="403" y="-668.5" font-family="Helvetica,sans-Serif" font-size="10.00">Library.OfertaDeServicio.</text>
<text text-anchor="middle" x="462" y="-657.5" font-family="Helvetica,sans-Serif" font-size="10.00">DarDeBaja</text>
</a>
</g>
</g>
<!-- Node1&#45;&gt;Node7 -->
<g id="edge7" class="edge">
<title>Node1&#45;&gt;Node7</title>
<path fill="none" stroke="#63b8ff" d="M635.68,-453.25C626.87,-495.12 601.2,-590.14 542,-641.5 538.1,-644.88 533.74,-647.79 529.12,-650.28"/>
<polygon fill="#63b8ff" stroke="#63b8ff" points="639.09,-454.04 637.59,-443.55 632.22,-452.68 639.09,-454.04"/>
</g>
<!-- Node10 -->
<g id="node10" class="node">
<title>Node10</title>
<g id="a_node10"><a xlink:href="classLibrary_1_1Solicitud.html#a8626ea612862185a6564d14d4804b51a" target="_top" xlink:title="Método para dar de baja una solicitud">
<polygon fill="white" stroke="#666666" points="533.5,-632 390.5,-632 390.5,-613 533.5,-613 533.5,-632"/>
<text text-anchor="middle" x="462" y="-620" font-family="Helvetica,sans-Serif" font-size="10.00">Library.Solicitud.DarDeBaja</text>
</a>
</g>
</g>
<!-- Node1&#45;&gt;Node10 -->
<g id="edge10" class="edge">
<title>Node1&#45;&gt;Node10</title>
<path fill="none" stroke="#63b8ff" d="M633.92,-452.87C622.83,-489.31 594.46,-565.48 542,-604.5 537.71,-607.69 532.95,-610.33 527.96,-612.51"/>
<polygon fill="#63b8ff" stroke="#63b8ff" points="637.18,-454.18 636.6,-443.6 630.46,-452.23 637.18,-454.18"/>
</g>
<!-- Node11 -->
<g id="node11" class="node">
<title>Node11</title>
<g id="a_node11"><a xlink:href="classLibrary_1_1Usuario.html#a94ab2e6613b6d2127c8fc90d161cd127" target="_top" xlink:title="Método para desactivar un usuario">
<polygon fill="white" stroke="#666666" points="532,-595 392,-595 392,-576 532,-576 532,-595"/>
<text text-anchor="middle" x="462" y="-583" font-family="Helvetica,sans-Serif" font-size="10.00">Library.Usuario.DarDeBaja</text>
</a>
</g>
</g>
<!-- Node1&#45;&gt;Node11 -->
<g id="edge11" class="edge">
<title>Node1&#45;&gt;Node11</title>
<path fill="none" stroke="#63b8ff" d="M629.8,-452.17C614.84,-480.5 583.46,-532.57 542,-561.5 533.3,-567.57 523.03,-572.14 512.82,-575.56"/>
<polygon fill="#63b8ff" stroke="#63b8ff" points="632.75,-454.09 634.19,-443.6 626.52,-450.9 632.75,-454.09"/>
</g>
<!-- Node13 -->
<g id="node13" class="node">
<title>Node13</title>
<g id="a_node13"><a xlink:href="classLibrary_1_1RegistryHandler.html#a5437661b3a2bc53db95ce02947b4a59a" target="_top" xlink:title="Método para eliminar un Usuario">
<polygon fill="white" stroke="#666666" points="144.5,-579.5 16.5,-579.5 16.5,-549.5 144.5,-549.5 144.5,-579.5"/>
<text text-anchor="start" x="24.5" y="-567.5" font-family="Helvetica,sans-Serif" font-size="10.00">Library.RegistryHandler.</text>
<text text-anchor="middle" x="80.5" y="-556.5" font-family="Helvetica,sans-Serif" font-size="10.00">RemoveUsuario</text>
</a>
</g>
</g>
<!-- Node1&#45;&gt;Node13 -->
<g id="edge24" class="edge">
<title>Node1&#45;&gt;Node13</title>
<path fill="none" stroke="#63b8ff" d="M626.57,-451.71C609.99,-474.55 578.92,-511.66 542,-528.5 506.75,-544.57 262.3,-556.89 144.59,-561.97"/>
<polygon fill="#63b8ff" stroke="#63b8ff" points="629.39,-453.79 632.27,-443.59 623.66,-449.77 629.39,-453.79"/>
</g>
<!-- Node14 -->
<g id="node14" class="node">
<title>Node14</title>
<g id="a_node14"><a xlink:href="classLibrary_1_1RegistryHandler.html#a1a2cd2aa0e0c52e9edf3f7fa1d532d9e" target="_top" xlink:title="Método para obtener la lista de empleadores">
<polygon fill="white" stroke="#666666" points="526,-519.5 398,-519.5 398,-489.5 526,-489.5 526,-519.5"/>
<text text-anchor="start" x="406" y="-507.5" font-family="Helvetica,sans-Serif" font-size="10.00">Library.RegistryHandler.</text>
<text text-anchor="middle" x="462" y="-496.5" font-family="Helvetica,sans-Serif" font-size="10.00">GetEmpleadores</text>
</a>
</g>
</g>
<!-- Node1&#45;&gt;Node14 -->
<g id="edge15" class="edge">
<title>Node1&#45;&gt;Node14</title>
<path fill="none" stroke="#63b8ff" d="M611.42,-447.84C592.23,-457.94 566.02,-471.01 542,-480.5 534.27,-483.55 525.98,-486.46 517.8,-489.12"/>
<polygon fill="#63b8ff" stroke="#63b8ff" points="613.06,-450.93 620.24,-443.14 609.77,-444.76 613.06,-450.93"/>
</g>
<!-- Node15 -->
<g id="node15" class="node">
<title>Node15</title>
<g id="a_node15"><a xlink:href="classLibrary_1_1ContratoHandler.html#a7d07db24f12c446d1983ad27466fcd92" target="_top" xlink:title="Método para mostrar solicitudes">
<polygon fill="white" stroke="#666666" points="526.5,-471.5 397.5,-471.5 397.5,-441.5 526.5,-441.5 526.5,-471.5"/>
<text text-anchor="start" x="405.5" y="-459.5" font-family="Helvetica,sans-Serif" font-size="10.00">Library.ContratoHandler.</text>
<text text-anchor="middle" x="462" y="-448.5" font-family="Helvetica,sans-Serif" font-size="10.00">GetSolicitudes</text>
</a>
</g>
</g>
<!-- Node1&#45;&gt;Node15 -->
<g id="edge16" class="edge">
<title>Node1&#45;&gt;Node15</title>
<path fill="none" stroke="#63b8ff" d="M566.37,-442.44C553.24,-444.23 539.64,-446.08 526.79,-447.83"/>
<polygon fill="#63b8ff" stroke="#63b8ff" points="566.83,-445.91 576.27,-441.1 565.89,-438.98 566.83,-445.91"/>
</g>
<!-- Node16 -->
<g id="node16" class="node">
<title>Node16</title>
<g id="a_node16"><a xlink:href="classLibrary_1_1RegistryHandler.html#ae52d7593bb8a63139a1d4aed856a61c6" target="_top" xlink:title="Método para obtener la lista de trabajadores">
<polygon fill="white" stroke="#666666" points="526,-423.5 398,-423.5 398,-393.5 526,-393.5 526,-423.5"/>
<text text-anchor="start" x="406" y="-411.5" font-family="Helvetica,sans-Serif" font-size="10.00">Library.RegistryHandler.</text>
<text text-anchor="middle" x="462" y="-400.5" font-family="Helvetica,sans-Serif" font-size="10.00">GetTrabajadores</text>
</a>
</g>
</g>
<!-- Node1&#45;&gt;Node16 -->
<g id="edge17" class="edge">
<title>Node1&#45;&gt;Node16</title>
<path fill="none" stroke="#63b8ff" d="M566.7,-422.6C553.36,-420.79 539.53,-418.91 526.49,-417.13"/>
<polygon fill="#63b8ff" stroke="#63b8ff" points="565.89,-426.02 576.27,-423.9 566.83,-419.09 565.89,-426.02"/>
</g>
<!-- Node17 -->
<g id="node17" class="node">
<title>Node17</title>
<g id="a_node17"><a xlink:href="classLibrary_1_1SolicitudPrinter.html#a3d190eb143238e9d17c85c7f05485fd8" target="_top" xlink:title="Método que imprime el texto de la lista">
<polygon fill="white" stroke="#666666" points="523.5,-375.5 400.5,-375.5 400.5,-345.5 523.5,-345.5 523.5,-375.5"/>
<text text-anchor="start" x="408.5" y="-363.5" font-family="Helvetica,sans-Serif" font-size="10.00">Library.SolicitudPrinter.</text>
<text text-anchor="middle" x="462" y="-352.5" font-family="Helvetica,sans-Serif" font-size="10.00">PrintCatalog</text>
</a>
</g>
</g>
<!-- Node1&#45;&gt;Node17 -->
<g id="edge18" class="edge">
<title>Node1&#45;&gt;Node17</title>
<path fill="none" stroke="#63b8ff" d="M611.42,-417.16C592.23,-407.06 566.02,-393.99 542,-384.5 534.27,-381.45 525.98,-378.54 517.8,-375.88"/>
<polygon fill="#63b8ff" stroke="#63b8ff" points="609.77,-420.24 620.24,-421.86 613.06,-414.07 609.77,-420.24"/>
</g>
<!-- Node18 -->
<g id="node18" class="node">
<title>Node18</title>
<g id="a_node18"><a xlink:href="classLibrary_1_1Categoria.html#a9a5b4899556f8bab9818dfb288b51287" target="_top" xlink:title="Método para reactivar una categoría">
<polygon fill="white" stroke="#666666" points="532.5,-327 391.5,-327 391.5,-308 532.5,-308 532.5,-327"/>
<text text-anchor="middle" x="462" y="-315" font-family="Helvetica,sans-Serif" font-size="10.00">Library.Categoria.Reactivar</text>
</a>
</g>
</g>
<!-- Node1&#45;&gt;Node18 -->
<g id="edge19" class="edge">
<title>Node1&#45;&gt;Node18</title>
<path fill="none" stroke="#63b8ff" d="M625.56,-413.57C608.39,-391.63 577.12,-356 542,-336.5 535.34,-332.8 527.97,-329.82 520.5,-327.41"/>
<polygon fill="#63b8ff" stroke="#63b8ff" points="622.67,-415.54 631.51,-421.37 628.24,-411.3 622.67,-415.54"/>
</g>
<!-- Node19 -->
<g id="node19" class="node">
<title>Node19</title>
<g id="a_node19"><a xlink:href="classLibrary_1_1OfertaDeServicio.html#a789ed2d43fbd73c8379894f7f12eb96f" target="_top" xlink:title="Método para reactivar un Usuario">
<polygon fill="white" stroke="#666666" points="529,-289.5 395,-289.5 395,-259.5 529,-259.5 529,-289.5"/>
<text text-anchor="start" x="403" y="-277.5" font-family="Helvetica,sans-Serif" font-size="10.00">Library.OfertaDeServicio.</text>
<text text-anchor="middle" x="462" y="-266.5" font-family="Helvetica,sans-Serif" font-size="10.00">Reactivar</text>
</a>
</g>
</g>
<!-- Node1&#45;&gt;Node19 -->
<g id="edge20" class="edge">
<title>Node1&#45;&gt;Node19</title>
<path fill="none" stroke="#63b8ff" d="M630.22,-412.5C615.59,-383.16 584.43,-328.68 542,-298.5 537.33,-295.18 532.19,-292.31 526.84,-289.83"/>
<polygon fill="#63b8ff" stroke="#63b8ff" points="627,-413.88 634.5,-421.37 633.31,-410.84 627,-413.88"/>
</g>
<!-- Node20 -->
<g id="node20" class="node">
<title>Node20</title>
<g id="a_node20"><a xlink:href="classLibrary_1_1Solicitud.html#ab49e18741e69a23545ed6de3e3b4670b" target="_top" xlink:title="Método para reactivar una solicitud">
<polygon fill="white" stroke="#666666" points="529.5,-241 394.5,-241 394.5,-222 529.5,-222 529.5,-241"/>
<text text-anchor="middle" x="462" y="-229" font-family="Helvetica,sans-Serif" font-size="10.00">Library.Solicitud.Reactivar</text>
</a>
</g>
</g>
<!-- Node1&#45;&gt;Node20 -->
<g id="edge21" class="edge">
<title>Node1&#45;&gt;Node20</title>
<path fill="none" stroke="#63b8ff" d="M634.51,-412.07C624.14,-374.07 596.53,-292.6 542,-250.5 537.2,-246.79 531.78,-243.8 526.09,-241.37"/>
<polygon fill="#63b8ff" stroke="#63b8ff" points="631.01,-412.5 636.91,-421.3 637.79,-410.75 631.01,-412.5"/>
</g>
<!-- Node21 -->
<g id="node21" class="node">
<title>Node21</title>
<g id="a_node21"><a xlink:href="classLibrary_1_1Usuario.html#afd7b0ccc30d52e82c804873c15fc65a3" target="_top" xlink:title="Método para activar un usuario">
<polygon fill="white" stroke="#666666" points="528,-204 396,-204 396,-185 528,-185 528,-204"/>
<text text-anchor="middle" x="462" y="-192" font-family="Helvetica,sans-Serif" font-size="10.00">Library.Usuario.Reactivar</text>
</a>
</g>
</g>
<!-- Node1&#45;&gt;Node21 -->
<g id="edge22" class="edge">
<title>Node1&#45;&gt;Node21</title>
<path fill="none" stroke="#63b8ff" d="M636.53,-411.5C629.14,-367.41 605.7,-264.95 542,-212.5 537.87,-209.1 533.23,-206.32 528.32,-204.04"/>
<polygon fill="#63b8ff" stroke="#63b8ff" points="633.05,-411.91 638.04,-421.25 639.97,-410.84 633.05,-411.91"/>
</g>
<!-- Node22 -->
<g id="node22" class="node">
<title>Node22</title>
<g id="a_node22"><a xlink:href="classLibrary_1_1ContratoHandler.html#ad630defa0fa3d95a1261855d4a96e8c0" target="_top" xlink:title="Método para borrar los datos de la clase">
<polygon fill="white" stroke="#666666" points="538,-167 386,-167 386,-148 538,-148 538,-167"/>
<text text-anchor="middle" x="462" y="-155" font-family="Helvetica,sans-Serif" font-size="10.00">Library.ContratoHandler.Wipe</text>
</a>
</g>
</g>
<!-- Node1&#45;&gt;Node22 -->
<g id="edge25" class="edge">
<title>Node1&#45;&gt;Node22</title>
<path fill="none" stroke="#63b8ff" d="M637.99,-411.09C633.29,-361.59 614.54,-238.62 542,-175.5 538.29,-172.27 534.11,-169.58 529.67,-167.36"/>
<polygon fill="#63b8ff" stroke="#63b8ff" points="634.49,-411.33 638.81,-421 641.47,-410.75 634.49,-411.33"/>
</g>
<!-- Node23 -->
<g id="node23" class="node">
<title>Node23</title>
<g id="a_node23"><a xlink:href="classLibrary_1_1CategoriasCatalog.html#a545c5fa5e182ff288af5f7a6679e380a" target="_top" xlink:title="Método para borrar los datos de la clase">
<polygon fill="white" stroke="#666666" points="542,-130 382,-130 382,-111 542,-111 542,-130"/>
<text text-anchor="middle" x="462" y="-118" font-family="Helvetica,sans-Serif" font-size="10.00">Library.CategoriasCatalog.Wipe</text>
</a>
</g>
</g>
<!-- Node1&#45;&gt;Node23 -->
<g id="edge26" class="edge">
<title>Node1&#45;&gt;Node23</title>
<path fill="none" stroke="#63b8ff" d="M639.17,-411.38C637.11,-357.29 623.82,-212.8 542,-138.5 538.46,-135.28 534.47,-132.61 530.2,-130.38"/>
<polygon fill="#63b8ff" stroke="#63b8ff" points="635.66,-411.15 639.43,-421.05 642.66,-410.96 635.66,-411.15"/>
</g>
<!-- Node24 -->
<g id="node24" class="node">
<title>Node24</title>
<g id="a_node24"><a xlink:href="classLibrary_1_1OfertasHandler.html#a85e8f00c4e9c7e5b72cbac541b55f754" target="_top" xlink:title="Método para borrar los datos de la clase">
<polygon fill="white" stroke="#666666" points="535,-93 389,-93 389,-74 535,-74 535,-93"/>
<text text-anchor="middle" x="462" y="-81" font-family="Helvetica,sans-Serif" font-size="10.00">Library.OfertasHandler.Wipe</text>
</a>
</g>
</g>
<!-- Node1&#45;&gt;Node24 -->
<g id="edge27" class="edge">
<title>Node1&#45;&gt;Node24</title>
<path fill="none" stroke="#63b8ff" d="M640.08,-411.16C640.44,-352.4 632.93,-186.92 542,-101.5 538.62,-98.32 534.79,-95.66 530.7,-93.44"/>
<polygon fill="#63b8ff" stroke="#63b8ff" points="636.58,-411.02 639.92,-421.07 643.58,-411.13 636.58,-411.02"/>
</g>
<!-- Node25 -->
<g id="node25" class="node">
<title>Node25</title>
<g id="a_node25"><a xlink:href="classLibrary_1_1RegistryHandler.html#a0c29a69500a72355605df52f11f2ef1a" target="_top" xlink:title="Método para borrar los datos de la clase">
<polygon fill="white" stroke="#666666" points="537,-56 387,-56 387,-37 537,-37 537,-56"/>
<text text-anchor="middle" x="462" y="-44" font-family="Helvetica,sans-Serif" font-size="10.00">Library.RegistryHandler.Wipe</text>
</a>
</g>
</g>
<!-- Node1&#45;&gt;Node25 -->
<g id="edge28" class="edge">
<title>Node1&#45;&gt;Node25</title>
<path fill="none" stroke="#63b8ff" d="M636.81,-411.58C627.33,-341.1 593.25,-113.99 542,-64.5 538.66,-61.28 534.87,-58.58 530.8,-56.34"/>
<polygon fill="#63b8ff" stroke="#63b8ff" points="633.32,-411.88 638.09,-421.34 640.26,-410.97 633.32,-411.88"/>
</g>
<!-- Node26 -->
<g id="node26" class="node">
<title>Node26</title>
<g id="a_node26"><a xlink:href="classLibrary_1_1SolicitudCatalog.html#a499d23028c51c6420baa6b0d74558524" target="_top" xlink:title="Método para borrar los datos de la clase">
<polygon fill="white" stroke="#666666" points="536.5,-19 387.5,-19 387.5,0 536.5,0 536.5,-19"/>
<text text-anchor="middle" x="462" y="-7" font-family="Helvetica,sans-Serif" font-size="10.00">Library.SolicitudCatalog.Wipe</text>
</a>
</g>
</g>
<!-- Node1&#45;&gt;Node26 -->
<g id="edge29" class="edge">
<title>Node1&#45;&gt;Node26</title>
<path fill="none" stroke="#63b8ff" d="M637.34,-411.44C629.19,-336.29 597.93,-82.75 542,-27.5 538.8,-24.34 535.16,-21.68 531.25,-19.46"/>
<polygon fill="#63b8ff" stroke="#63b8ff" points="633.83,-411.54 638.36,-421.12 640.79,-410.81 633.83,-411.54"/>
</g>
<!-- Node2&#45;&gt;Node3 -->
<g id="edge2" class="edge">
<title>Node2&#45;&gt;Node3</title>
<path fill="none" stroke="#63b8ff" d="M382.02,-856.28C370.21,-854.9 358.08,-853.49 346.38,-852.12"/>
<polygon fill="#63b8ff" stroke="#63b8ff" points="381.37,-859.73 391.71,-857.41 382.18,-852.78 381.37,-859.73"/>
</g>
<!-- Node4&#45;&gt;Node5 -->
<g id="edge5" class="edge">
<title>Node4&#45;&gt;Node5</title>
<path fill="none" stroke="#63b8ff" d="M375.77,-776.81C363.92,-775.74 351.88,-774.66 340.41,-773.62"/>
<polygon fill="#63b8ff" stroke="#63b8ff" points="375.26,-780.28 385.53,-777.69 375.89,-773.31 375.26,-780.28"/>
</g>
<!-- Node5&#45;&gt;Node6 -->
<g id="edge6" class="edge">
<title>Node5&#45;&gt;Node6</title>
<path fill="none" stroke="#63b8ff" d="M191.13,-758.26C181.3,-757.12 171.25,-755.95 161.41,-754.8"/>
<polygon fill="#63b8ff" stroke="#63b8ff" points="190.69,-761.73 201.03,-759.41 191.5,-754.78 190.69,-761.73"/>
</g>
<!-- Node8 -->
<g id="node8" class="node">
<title>Node8</title>
<g id="a_node8"><a xlink:href="classLibrary_1_1OfertasHandler.html#a419fc6b93ef7235e39449f38494d7d1f" target="_top" xlink:title="Método para dar de baja una OfertaDeServicio">
<polygon fill="white" stroke="#666666" points="342,-696.5 201,-696.5 201,-666.5 342,-666.5 342,-696.5"/>
<text text-anchor="start" x="209" y="-684.5" font-family="Helvetica,sans-Serif" font-size="10.00">Library.OfertasHandler.Dar</text>
<text text-anchor="middle" x="271.5" y="-673.5" font-family="Helvetica,sans-Serif" font-size="10.00">DeBajaOferta</text>
</a>
</g>
</g>
<!-- Node7&#45;&gt;Node8 -->
<g id="edge8" class="edge">
<title>Node7&#45;&gt;Node8</title>
<path fill="none" stroke="#63b8ff" d="M383.25,-672.1C369.64,-673.25 355.56,-674.45 342.19,-675.58"/>
<polygon fill="#63b8ff" stroke="#63b8ff" points="383.37,-675.6 393.03,-671.27 382.77,-668.63 383.37,-675.6"/>
</g>
<!-- Node9 -->
<g id="node9" class="node">
<title>Node9</title>
<g id="a_node9"><a xlink:href="classLibrary_1_1Categoria.html#a395e51b351aeb577b6371110ceec8abd" target="_top" xlink:title="Método para quitar una oferta, en caso de que la misma no exista no hará nada">
<polygon fill="white" stroke="#666666" points="340,-648.5 203,-648.5 203,-618.5 340,-618.5 340,-648.5"/>
<text text-anchor="start" x="211" y="-636.5" font-family="Helvetica,sans-Serif" font-size="10.00">Library.Categoria.Remove</text>
<text text-anchor="middle" x="271.5" y="-625.5" font-family="Helvetica,sans-Serif" font-size="10.00">Oferta</text>
</a>
</g>
</g>
<!-- Node7&#45;&gt;Node9 -->
<g id="edge9" class="edge">
<title>Node7&#45;&gt;Node9</title>
<path fill="none" stroke="#63b8ff" d="M383.24,-652.3C368.98,-649.88 354.21,-647.37 340.27,-645"/>
<polygon fill="#63b8ff" stroke="#63b8ff" points="382.61,-655.74 393.05,-653.96 383.78,-648.84 382.61,-655.74"/>
</g>
<!-- Node12 -->
<g id="node12" class="node">
<title>Node12</title>
<g id="a_node12"><a xlink:href="classLibrary_1_1UsuariosCatalog.html#af152d7cc2e78b41cd23e27834cb69dbd" target="_top" xlink:title="Método para eliminar un usuario">
<polygon fill="white" stroke="#666666" points="335.5,-600.5 207.5,-600.5 207.5,-570.5 335.5,-570.5 335.5,-600.5"/>
<text text-anchor="start" x="215.5" y="-588.5" font-family="Helvetica,sans-Serif" font-size="10.00">Library.UsuariosCatalog.</text>
<text text-anchor="middle" x="271.5" y="-577.5" font-family="Helvetica,sans-Serif" font-size="10.00">RemoveUsuario</text>
</a>
</g>
</g>
<!-- Node11&#45;&gt;Node12 -->
<g id="edge12" class="edge">
<title>Node11&#45;&gt;Node12</title>
<path fill="none" stroke="#63b8ff" d="M380.34,-585.5C365.45,-585.5 350.1,-585.5 335.81,-585.5"/>
<polygon fill="#63b8ff" stroke="#63b8ff" points="380.1,-589 390.1,-585.5 380.1,-582 380.1,-589"/>
</g>
<!-- Node12&#45;&gt;Node13 -->
<g id="edge13" class="edge">
<title>Node12&#45;&gt;Node13</title>
<path fill="none" stroke="#63b8ff" d="M196.05,-577.23C179.09,-575.34 161.23,-573.36 144.79,-571.53"/>
<polygon fill="#63b8ff" stroke="#63b8ff" points="195.21,-580.66 205.54,-578.28 195.98,-573.7 195.21,-580.66"/>
</g>
</g>
</svg>
        <g id="navigator" transform="translate(0 0)" fill="#404254">
                <rect fill="#f2f5e9" fill-opacity="0.5" stroke="#606060" stroke-width=".5" x="0" y="0" width="60" height="60"/>
                <use id="zoomplus" xlink:href="#zoomPlus" x="17" y="9" onmousedown="handleZoom(evt,'in')"/>
                <use id="zoomminus" xlink:href="#zoomMin" x="42" y="9" onmousedown="handleZoom(evt,'out')"/>
                <use id="reset" xlink:href="#resetDef" x="30" y="36" onmousedown="handleReset()"/>
                <g id="arrowUp" xlink:href="#dirArrow" transform="translate(30 24)" onmousedown="handlePan(0,-1)">
                  <use xlink:href="#rim" fill="#404040">
                        <set attributeName="fill" to="#808080" begin="arrowUp.mouseover" end="arrowUp.mouseout"/>
                  </use>
                  <path fill="none" stroke="white" stroke-width="1.5" d="M0,-3.0v7 M-2.5,-0.5L0,-3.0L2.5,-0.5"/>
                </g>
                <g id="arrowRight" xlink:href="#dirArrow" transform="rotate(90) translate(36 -43)" onmousedown="handlePan(1,0)">
                  <use xlink:href="#rim" fill="#404040">
                        <set attributeName="fill" to="#808080" begin="arrowRight.mouseover" end="arrowRight.mouseout"/>
                  </use>
                  <path fill="none" stroke="white" stroke-width="1.5" d="M0,-3.0v7 M-2.5,-0.5L0,-3.0L2.5,-0.5"/>
                </g>
                <g id="arrowDown" xlink:href="#dirArrow" transform="rotate(180) translate(-30 -48)" onmousedown="handlePan(0,1)">
                  <use xlink:href="#rim" fill="#404040">
                        <set attributeName="fill" to="#808080" begin="arrowDown.mouseover" end="arrowDown.mouseout"/>
                  </use>
                  <path fill="none" stroke="white" stroke-width="1.5" d="M0,-3.0v7 M-2.5,-0.5L0,-3.0L2.5,-0.5"/>
                </g>
                <g id="arrowLeft" xlink:href="#dirArrow" transform="rotate(270) translate(-36 17)" onmousedown="handlePan(-1,0)">
                  <use xlink:href="#rim" fill="#404040">
                        <set attributeName="fill" to="#808080" begin="arrowLeft.mouseover" end="arrowLeft.mouseout"/>
                  </use>
                  <path fill="none" stroke="white" stroke-width="1.5" d="M0,-3.0v7 M-2.5,-0.5L0,-3.0L2.5,-0.5"/>
                </g>
        </g>
        <svg viewBox="0 0 15 15" width="100%" height="30px" preserveAspectRatio="xMaxYMin meet">
         <g id="arrow_out" transform="scale(0.3 0.3)">
          <a xlink:href="classLibrary_1_1Usuario_a33099664c3da6b61454db7c3343deceb_icgraph_org.svg" target="_base">
           <rect id="button" ry="5" rx="5" y="6" x="6" height="38" width="38"
                fill="#f2f5e9" fill-opacity="0.5" stroke="#606060" stroke-width="1.0"/>
           <path id="arrow"
             d="M 11.500037,31.436501 C 11.940474,20.09759 22.043105,11.32322 32.158766,21.979434 L 37.068811,17.246167 C 37.068811,17.246167 37.088388,32 37.088388,32 L 22.160133,31.978069 C 22.160133,31.978069 26.997745,27.140456 26.997745,27.140456 C 18.528582,18.264221 13.291696,25.230495 11.500037,31.436501 z"
             style="fill:#404040;"/>
          </a>
         </g>
        </svg>
</svg>
