<?xml version="1.0" encoding="UTF-8" standalone="no"?>
<!DOCTYPE svg PUBLIC "-//W3C//DTD SVG 1.1//EN"
 "http://www.w3.org/Graphics/SVG/1.1/DTD/svg11.dtd">
<!-- Generated by graphviz version 7.0.2 (0)
 -->
<!-- Title: Library.RegistryHandler.RegistrarAdministrador Pages: 1 -->
<svg width="464pt" height="134pt"
 viewBox="0.00 0.00 464.00 134.00" xmlns="http://www.w3.org/2000/svg" xmlns:xlink="http://www.w3.org/1999/xlink">
<g id="graph0" class="graph" transform="scale(1 1) rotate(0) translate(4 130)">
<title>Library.RegistryHandler.RegistrarAdministrador</title>
<!-- Node1 -->
<g id="node1" class="node">
<title>Node1</title>
<g id="a_node1"><a xlink:title="Método para registrar un administrador">
<polygon fill="#999999" stroke="#666666" points="128,-78 0,-78 0,-48 128,-48 128,-78"/>
<text text-anchor="start" x="8" y="-66" font-family="Helvetica,sans-Serif" font-size="10.00">Library.RegistryHandler.</text>
<text text-anchor="middle" x="64" y="-55" font-family="Helvetica,sans-Serif" font-size="10.00">RegistrarAdministrador</text>
</a>
</g>
</g>
<!-- Node2 -->
<g id="node2" class="node">
<title>Node2</title>
<g id="a_node2"><a xlink:href="classLibrary_1_1UsuariosCatalog.html#a0bc70b7565dd52d48a63682c567ab902" target="_top" xlink:title="Método para agregar un administrador">
<polygon fill="white" stroke="#666666" points="292,-126 164,-126 164,-96 292,-96 292,-126"/>
<text text-anchor="start" x="172" y="-114" font-family="Helvetica,sans-Serif" font-size="10.00">Library.UsuariosCatalog.</text>
<text text-anchor="middle" x="228" y="-103" font-family="Helvetica,sans-Serif" font-size="10.00">AddAdminstrador</text>
</a>
</g>
</g>
<!-- Node1&#45;&gt;Node2 -->
<g id="edge1" class="edge">
<title>Node1&#45;&gt;Node2</title>
<path fill="none" stroke="#63b8ff" d="M117.15,-78.45C132.18,-82.91 148.74,-87.81 164.33,-92.43"/>
<polygon fill="#63b8ff" stroke="#63b8ff" points="162.91,-95.66 173.5,-95.15 164.9,-88.95 162.91,-95.66"/>
</g>
<!-- Node3 -->
<g id="node3" class="node">
<title>Node3</title>
<g id="a_node3"><a xlink:href="classLibrary_1_1RegistryHandler.html#a8a92d13456238efd340e8e3c678763e0" target="_top" xlink:title="Método para verificar un correo">
<polygon fill="white" stroke="#666666" points="292,-78 164,-78 164,-48 292,-48 292,-78"/>
<text text-anchor="start" x="172" y="-66" font-family="Helvetica,sans-Serif" font-size="10.00">Library.RegistryHandler.</text>
<text text-anchor="middle" x="228" y="-55" font-family="Helvetica,sans-Serif" font-size="10.00">VerificarCorreo</text>
</a>
</g>
</g>
<!-- Node1&#45;&gt;Node3 -->
<g id="edge2" class="edge">
<title>Node1&#45;&gt;Node3</title>
<path fill="none" stroke="#63b8ff" d="M128.1,-63C136.01,-63 144.16,-63 152.23,-63"/>
<polygon fill="#63b8ff" stroke="#63b8ff" points="152.03,-66.5 162.03,-63 152.03,-59.5 152.03,-66.5"/>
</g>
<!-- Node4 -->
<g id="node4" class="node">
<title>Node4</title>
<g id="a_node4"><a xlink:href="classLibrary_1_1RegistryHandler.html#ab807cbae1dac0a1a8d26a3d3dab44b20" target="_top" xlink:title="Método para verificar el nickname de un Usuario">
<polygon fill="white" stroke="#666666" points="292,-30 164,-30 164,0 292,0 292,-30"/>
<text text-anchor="start" x="172" y="-18" font-family="Helvetica,sans-Serif" font-size="10.00">Library.RegistryHandler.</text>
<text text-anchor="middle" x="228" y="-7" font-family="Helvetica,sans-Serif" font-size="10.00">VerificarNick</text>
</a>
</g>
</g>
<!-- Node1&#45;&gt;Node4 -->
<g id="edge3" class="edge">
<title>Node1&#45;&gt;Node4</title>
<path fill="none" stroke="#63b8ff" d="M117.15,-47.55C132.18,-43.09 148.74,-38.19 164.33,-33.57"/>
<polygon fill="#63b8ff" stroke="#63b8ff" points="164.9,-37.05 173.5,-30.85 162.91,-30.34 164.9,-37.05"/>
</g>
<!-- Node5 -->
<g id="node5" class="node">
<title>Node5</title>
<g id="a_node5"><a xlink:href="classLibrary_1_1UsuariosCatalog.html#a6a3f81b438afc68cd3809e603728f9bb" target="_top" xlink:title="Método para conocer los usuarios">
<polygon fill="white" stroke="#666666" points="456,-30 328,-30 328,0 456,0 456,-30"/>
<text text-anchor="start" x="336" y="-18" font-family="Helvetica,sans-Serif" font-size="10.00">Library.UsuariosCatalog.</text>
<text text-anchor="middle" x="392" y="-7" font-family="Helvetica,sans-Serif" font-size="10.00">GetUsuarios</text>
</a>
</g>
</g>
<!-- Node4&#45;&gt;Node5 -->
<g id="edge4" class="edge">
<title>Node4&#45;&gt;Node5</title>
<path fill="none" stroke="#63b8ff" d="M292.1,-15C300.01,-15 308.16,-15 316.23,-15"/>
<polygon fill="#63b8ff" stroke="#63b8ff" points="316.03,-18.5 326.03,-15 316.03,-11.5 316.03,-18.5"/>
</g>
</g>
</svg>
