<?xml version="1.0" encoding="UTF-8" standalone="no"?>
<!DOCTYPE svg PUBLIC "-//W3C//DTD SVG 1.1//EN"
 "http://www.w3.org/Graphics/SVG/1.1/DTD/svg11.dtd">
<!-- Generated by graphviz version 7.0.2 (0)
 -->
<!-- Title: Library.UsuariosCatalog.RemoveUsuario Pages: 1 -->
<svg width="473pt" height="64pt"
 viewBox="0.00 0.00 473.00 64.00" xmlns="http://www.w3.org/2000/svg" xmlns:xlink="http://www.w3.org/1999/xlink">
<g id="graph0" class="graph" transform="scale(1 1) rotate(0) translate(4 60)">
<title>Library.UsuariosCatalog.RemoveUsuario</title>
<!-- Node1 -->
<g id="node1" class="node">
<title>Node1</title>
<g id="a_node1"><a xlink:title="Método para eliminar un usuario">
<polygon fill="#999999" stroke="#666666" points="128,-42.5 0,-42.5 0,-12.5 128,-12.5 128,-42.5"/>
<text text-anchor="start" x="8" y="-30.5" font-family="Helvetica,sans-Serif" font-size="10.00">Library.UsuariosCatalog.</text>
<text text-anchor="middle" x="64" y="-19.5" font-family="Helvetica,sans-Serif" font-size="10.00">RemoveUsuario</text>
</a>
</g>
</g>
<!-- Node2 -->
<g id="node2" class="node">
<title>Node2</title>
<g id="a_node2"><a xlink:href="classLibrary_1_1Usuario.html#a94ab2e6613b6d2127c8fc90d161cd127" target="_top" xlink:title="Método para desactivar un usuario">
<polygon fill="white" stroke="#666666" points="304,-56 164,-56 164,-37 304,-37 304,-56"/>
<text text-anchor="middle" x="234" y="-44" font-family="Helvetica,sans-Serif" font-size="10.00">Library.Usuario.DarDeBaja</text>
</a>
</g>
</g>
<!-- Node1&#45;&gt;Node2 -->
<g id="edge1" class="edge">
<title>Node1&#45;&gt;Node2</title>
<path fill="none" stroke="#63b8ff" d="M128.03,-34.63C136.04,-35.53 144.31,-36.47 152.54,-37.4"/>
<polygon fill="#63b8ff" stroke="#63b8ff" points="151.86,-40.85 162.19,-38.49 152.65,-33.89 151.86,-40.85"/>
</g>
<!-- Node4 -->
<g id="node4" class="node">
<title>Node4</title>
<g id="a_node4"><a xlink:href="classLibrary_1_1Usuario.html#ac8b2eb0988dacbb62b09f0abfdd8e3f6" target="_top" xlink:title="Checkea si el usuario está activo">
<polygon fill="white" stroke="#666666" points="297,-19 171,-19 171,0 297,0 297,-19"/>
<text text-anchor="middle" x="234" y="-7" font-family="Helvetica,sans-Serif" font-size="10.00">Library.Usuario.IsActive</text>
</a>
</g>
</g>
<!-- Node1&#45;&gt;Node4 -->
<g id="edge3" class="edge">
<title>Node1&#45;&gt;Node4</title>
<path fill="none" stroke="#63b8ff" d="M128.03,-20.75C138.29,-19.65 148.99,-18.5 159.47,-17.38"/>
<polygon fill="#63b8ff" stroke="#63b8ff" points="159.65,-20.88 169.22,-16.33 158.91,-13.92 159.65,-20.88"/>
</g>
<!-- Node3 -->
<g id="node3" class="node">
<title>Node3</title>
<g id="a_node3"><a xlink:href="classLibrary_1_1Usuario.html#a33099664c3da6b61454db7c3343deceb" target="_top" xlink:title="Checkea que tipo de usuario es, puede ser Administrador, Trabajador o Empleador">
<polygon fill="white" stroke="#666666" points="465,-56 340,-56 340,-37 465,-37 465,-56"/>
<text text-anchor="middle" x="402.5" y="-44" font-family="Helvetica,sans-Serif" font-size="10.00">Library.Usuario.GetTipo</text>
</a>
</g>
</g>
<!-- Node2&#45;&gt;Node3 -->
<g id="edge2" class="edge">
<title>Node2&#45;&gt;Node3</title>
<path fill="none" stroke="#63b8ff" d="M304.16,-46.5C312.18,-46.5 320.38,-46.5 328.44,-46.5"/>
<polygon fill="#63b8ff" stroke="#63b8ff" points="328.21,-50 338.21,-46.5 328.21,-43 328.21,-50"/>
</g>
</g>
</svg>
