<?xml version="1.0" encoding="UTF-8" standalone="no"?>
<!DOCTYPE svg PUBLIC "-//W3C//DTD SVG 1.1//EN"
 "http://www.w3.org/Graphics/SVG/1.1/DTD/svg11.dtd">
<!-- Generated by graphviz version 7.0.2 (0)
 -->
<!-- Title: Library.Solicitud.IsRated Pages: 1 -->
<svg width="300pt" height="76pt"
 viewBox="0.00 0.00 300.00 75.50" xmlns="http://www.w3.org/2000/svg" xmlns:xlink="http://www.w3.org/1999/xlink">
<g id="graph0" class="graph" transform="scale(1 1) rotate(0) translate(4 71.5)">
<title>Library.Solicitud.IsRated</title>
<!-- Node1 -->
<g id="node1" class="node">
<title>Node1</title>
<g id="a_node1"><a xlink:title="Método para conocer si una oferta fue calificada">
<polygon fill="#999999" stroke="#666666" points="292,-40 164,-40 164,-21 292,-21 292,-40"/>
<text text-anchor="middle" x="228" y="-28" font-family="Helvetica,sans-Serif" font-size="10.00">Library.Solicitud.IsRated</text>
</a>
</g>
</g>
<!-- Node2 -->
<g id="node2" class="node">
<title>Node2</title>
<g id="a_node2"><a xlink:href="classLibrary_1_1Solicitud.html#a7f50425869d0aad5d0c0f7e6abe42492" target="_top" xlink:title="Método para calificar un trabajador">
<polygon fill="white" stroke="#666666" points="128,-67.5 0,-67.5 0,-37.5 128,-37.5 128,-67.5"/>
<text text-anchor="start" x="8" y="-55.5" font-family="Helvetica,sans-Serif" font-size="10.00">Library.Solicitud.Calificar</text>
<text text-anchor="middle" x="64" y="-44.5" font-family="Helvetica,sans-Serif" font-size="10.00">Trabajador</text>
</a>
</g>
</g>
<!-- Node1&#45;&gt;Node2 -->
<g id="edge1" class="edge">
<title>Node1&#45;&gt;Node2</title>
<path fill="none" stroke="#63b8ff" d="M152.59,-40.6C144.53,-41.7 136.38,-42.81 128.46,-43.88"/>
<polygon fill="#63b8ff" stroke="#63b8ff" points="152.96,-44.09 162.4,-39.27 152.02,-37.15 152.96,-44.09"/>
</g>
<!-- Node3 -->
<g id="node3" class="node">
<title>Node3</title>
<g id="a_node3"><a xlink:href="classLibrary_1_1Solicitud.html#a2b9a4efefd35c16aca1099d7997c286e" target="_top" xlink:title="Método para actualizar una calificación en caso que se haga dentro del plazo. Si excede la fecha lími...">
<polygon fill="white" stroke="#666666" points="127,-19 1,-19 1,0 127,0 127,-19"/>
<text text-anchor="middle" x="64" y="-7" font-family="Helvetica,sans-Serif" font-size="10.00">Library.Solicitud.Update</text>
</a>
</g>
</g>
<!-- Node1&#45;&gt;Node3 -->
<g id="edge2" class="edge">
<title>Node1&#45;&gt;Node3</title>
<path fill="none" stroke="#63b8ff" d="M152.53,-20.85C144.12,-19.76 135.62,-18.65 127.39,-17.59"/>
<polygon fill="#63b8ff" stroke="#63b8ff" points="152.03,-24.31 162.4,-22.13 152.93,-17.37 152.03,-24.31"/>
</g>
</g>
</svg>
