<?xml version="1.0" encoding="UTF-8" standalone="no"?>
<!DOCTYPE svg PUBLIC "-//W3C//DTD SVG 1.1//EN"
 "http://www.w3.org/Graphics/SVG/1.1/DTD/svg11.dtd">
<!-- Generated by graphviz version 7.0.2 (0)
 -->
<!-- Title: BaseHandler Pages: 1 -->
<svg width="376pt" height="170pt"
 viewBox="0.00 0.00 375.50 170.00" xmlns="http://www.w3.org/2000/svg" xmlns:xlink="http://www.w3.org/1999/xlink">
<g id="graph0" class="graph" transform="scale(1 1) rotate(0) translate(4 166)">
<title>BaseHandler</title>
<!-- Node1 -->
<g id="node1" class="node">
<title>Node1</title>
<g id="a_node1"><a xlink:title=" ">
<polygon fill="#999999" stroke="#666666" points="222.5,-162 142.5,-162 142.5,-132 222.5,-132 222.5,-162"/>
<text text-anchor="middle" x="182.5" y="-150" font-family="Helvetica,sans-Serif" font-size="10.00">{BaseHandler</text>
<text text-anchor="middle" x="182.5" y="-139" font-family="Helvetica,sans-Serif" font-size="10.00">||}</text>
</a>
</g>
</g>
<!-- Node2 -->
<g id="node2" class="node">
<title>Node2</title>
<g id="a_node2"><a xlink:href="classDefaultHandler.html" target="_top" xlink:title=" ">
<polygon fill="white" stroke="#bfbfbf" points="113,-79.5 0,-79.5 0,-16.5 113,-16.5 113,-79.5"/>
<text text-anchor="middle" x="56.5" y="-67.5" font-family="Helvetica,sans-Serif" font-size="10.00">{DefaultHandler</text>
<text text-anchor="start" x="8" y="-56.5" font-family="Helvetica,sans-Serif" font-size="10.00">||+ DefaultHandler()</text>
<text text-anchor="start" x="8" y="-45.5" font-family="Helvetica,sans-Serif" font-size="10.00"># CanHandle()</text>
<text text-anchor="start" x="8" y="-34.5" font-family="Helvetica,sans-Serif" font-size="10.00"># InternalHandle()</text>
<text text-anchor="middle" x="56.5" y="-23.5" font-family="Helvetica,sans-Serif" font-size="10.00">}</text>
</a>
</g>
</g>
<!-- Node1&#45;&gt;Node2 -->
<g id="edge1" class="edge">
<title>Node1&#45;&gt;Node2</title>
<path fill="none" stroke="#63b8ff" d="M154.99,-124.82C137.88,-111.65 115.58,-94.49 96.53,-79.82"/>
<polygon fill="none" stroke="#63b8ff" points="152.65,-127.44 162.71,-130.76 156.92,-121.89 152.65,-127.44"/>
</g>
<!-- Node3 -->
<g id="node3" class="node">
<title>Node3</title>
<g id="a_node3"><a xlink:href="classInicioHandler.html" target="_top" xlink:title="Dependiendo del TipoDeUsuario del Usuario muestra distintas opciones. Para un Trabajador muestra Ofer...">
<polygon fill="white" stroke="#666666" points="233.5,-85 131.5,-85 131.5,-11 233.5,-11 233.5,-85"/>
<text text-anchor="middle" x="182.5" y="-73" font-family="Helvetica,sans-Serif" font-size="10.00">{InicioHandler</text>
<text text-anchor="start" x="139.5" y="-62" font-family="Helvetica,sans-Serif" font-size="10.00">|+ State</text>
<text text-anchor="start" x="139.5" y="-51" font-family="Helvetica,sans-Serif" font-size="10.00">|+ InicioHandler()</text>
<text text-anchor="start" x="139.5" y="-40" font-family="Helvetica,sans-Serif" font-size="10.00"># CanHandle()</text>
<text text-anchor="start" x="139.5" y="-29" font-family="Helvetica,sans-Serif" font-size="10.00"># InternalHandle()</text>
<text text-anchor="middle" x="182.5" y="-18" font-family="Helvetica,sans-Serif" font-size="10.00">}</text>
</a>
</g>
</g>
<!-- Node1&#45;&gt;Node3 -->
<g id="edge2" class="edge">
<title>Node1&#45;&gt;Node3</title>
<path fill="none" stroke="#63b8ff" d="M182.5,-120.5C182.5,-109.7 182.5,-96.92 182.5,-85.17"/>
<polygon fill="none" stroke="#63b8ff" points="179,-120.17 182.5,-130.17 186,-120.17 179,-120.17"/>
</g>
<!-- Node4 -->
<g id="node4" class="node">
<title>Node4</title>
<g id="a_node4"><a xlink:href="classRegistrarHandler.html" target="_top" xlink:title=" ">
<polygon fill="white" stroke="#bfbfbf" points="367.5,-96 251.5,-96 251.5,0 367.5,0 367.5,-96"/>
<text text-anchor="middle" x="309.5" y="-84" font-family="Helvetica,sans-Serif" font-size="10.00">{RegistrarHandler</text>
<text text-anchor="start" x="259.5" y="-73" font-family="Helvetica,sans-Serif" font-size="10.00">|+ TempInfo</text>
<text text-anchor="start" x="259.5" y="-62" font-family="Helvetica,sans-Serif" font-size="10.00">+ TempTipo</text>
<text text-anchor="start" x="259.5" y="-51" font-family="Helvetica,sans-Serif" font-size="10.00">+ State</text>
<text text-anchor="start" x="259.5" y="-40" font-family="Helvetica,sans-Serif" font-size="10.00">|+ RegistrarHandler()</text>
<text text-anchor="start" x="259.5" y="-29" font-family="Helvetica,sans-Serif" font-size="10.00"># CanHandle()</text>
<text text-anchor="start" x="259.5" y="-18" font-family="Helvetica,sans-Serif" font-size="10.00"># InternalHandle()</text>
<text text-anchor="middle" x="309.5" y="-7" font-family="Helvetica,sans-Serif" font-size="10.00">}</text>
</a>
</g>
</g>
<!-- Node1&#45;&gt;Node4 -->
<g id="edge3" class="edge">
<title>Node1&#45;&gt;Node4</title>
<path fill="none" stroke="#63b8ff" d="M210.27,-124.79C222.28,-115.61 236.82,-104.51 251.02,-93.67"/>
<polygon fill="none" stroke="#63b8ff" points="208.26,-121.92 202.44,-130.77 212.51,-127.48 208.26,-121.92"/>
</g>
</g>
</svg>
