<?xml version="1.0" encoding="UTF-8" standalone="no"?>
<!DOCTYPE svg PUBLIC "-//W3C//DTD SVG 1.1//EN"
 "http://www.w3.org/Graphics/SVG/1.1/DTD/svg11.dtd">
<!-- Generated by graphviz version 7.0.2 (0)
 -->
<!-- Title: Library.OfertasHandler.GetOfertas Pages: 1 -->
<svg width="668pt" height="76pt"
 viewBox="0.00 0.00 668.00 75.50" xmlns="http://www.w3.org/2000/svg" xmlns:xlink="http://www.w3.org/1999/xlink">
<g id="graph0" class="graph" transform="scale(1 1) rotate(0) translate(4 71.5)">
<title>Library.OfertasHandler.GetOfertas</title>
<!-- Node1 -->
<g id="node1" class="node">
<title>Node1</title>
<g id="a_node1"><a xlink:title="Método para obtener OfertaDeServicio">
<polygon fill="#999999" stroke="#666666" points="140,-45.5 0,-45.5 0,-15.5 140,-15.5 140,-45.5"/>
<text text-anchor="start" x="8" y="-33.5" font-family="Helvetica,sans-Serif" font-size="10.00">Library.OfertasHandler.Get</text>
<text text-anchor="middle" x="70" y="-22.5" font-family="Helvetica,sans-Serif" font-size="10.00">Ofertas</text>
</a>
</g>
</g>
<!-- Node2 -->
<g id="node2" class="node">
<title>Node2</title>
<g id="a_node2"><a xlink:href="classLibrary_1_1OfertasHandler.html#a6de3d8aae171fe68766039aefcbd5bb4" target="_top" xlink:title="Método para obtener una Categoria por id">
<polygon fill="white" stroke="#666666" points="321,-67.5 181,-67.5 181,-37.5 321,-37.5 321,-67.5"/>
<text text-anchor="start" x="189" y="-55.5" font-family="Helvetica,sans-Serif" font-size="10.00">Library.OfertasHandler.Get</text>
<text text-anchor="middle" x="251" y="-44.5" font-family="Helvetica,sans-Serif" font-size="10.00">CategoriaById</text>
</a>
</g>
</g>
<!-- Node1&#45;&gt;Node2 -->
<g id="edge1" class="edge">
<title>Node1&#45;&gt;Node2</title>
<path fill="none" stroke="#63b8ff" d="M140.46,-39.04C149.93,-40.2 159.71,-41.4 169.35,-42.59"/>
<polygon fill="#63b8ff" stroke="#63b8ff" points="168.72,-46.04 179.07,-43.78 169.58,-39.09 168.72,-46.04"/>
</g>
<!-- Node5 -->
<g id="node5" class="node">
<title>Node5</title>
<g id="a_node5"><a xlink:href="classLibrary_1_1Categoria.html#a4afc53d36c30f85579ddec37db5698ba" target="_top" xlink:title="Método para conocer la lista de ofertas">
<polygon fill="white" stroke="#666666" points="326,-19 176,-19 176,0 326,0 326,-19"/>
<text text-anchor="middle" x="251" y="-7" font-family="Helvetica,sans-Serif" font-size="10.00">Library.Categoria.GetOfertas</text>
</a>
</g>
</g>
<!-- Node1&#45;&gt;Node5 -->
<g id="edge4" class="edge">
<title>Node1&#45;&gt;Node5</title>
<path fill="none" stroke="#63b8ff" d="M140.46,-22.35C148.28,-21.43 156.31,-20.49 164.3,-19.55"/>
<polygon fill="#63b8ff" stroke="#63b8ff" points="164.51,-23.05 174.04,-18.41 163.7,-16.1 164.51,-23.05"/>
</g>
<!-- Node3 -->
<g id="node3" class="node">
<title>Node3</title>
<g id="a_node3"><a xlink:href="classLibrary_1_1CategoriasCatalog.html#a9bedf1f8b23af24ef3515c48b7d05200" target="_top" xlink:title="Método para obtener una categoría por id">
<polygon fill="white" stroke="#666666" points="499,-67.5 362,-67.5 362,-37.5 499,-37.5 499,-67.5"/>
<text text-anchor="start" x="370" y="-55.5" font-family="Helvetica,sans-Serif" font-size="10.00">Library.CategoriasCatalog.</text>
<text text-anchor="middle" x="430.5" y="-44.5" font-family="Helvetica,sans-Serif" font-size="10.00">GetCategoriaById</text>
</a>
</g>
</g>
<!-- Node2&#45;&gt;Node3 -->
<g id="edge2" class="edge">
<title>Node2&#45;&gt;Node3</title>
<path fill="none" stroke="#63b8ff" d="M321.39,-52.5C330.89,-52.5 340.71,-52.5 350.37,-52.5"/>
<polygon fill="#63b8ff" stroke="#63b8ff" points="350.1,-56 360.1,-52.5 350.1,-49 350.1,-56"/>
</g>
<!-- Node4 -->
<g id="node4" class="node">
<title>Node4</title>
<g id="a_node4"><a xlink:href="classLibrary_1_1Categoria.html#a391925bcef104bf634b266e75310aedf" target="_top" xlink:title="Método para obtener el ID de una Categoria">
<polygon fill="white" stroke="#666666" points="660,-62 535,-62 535,-43 660,-43 660,-62"/>
<text text-anchor="middle" x="597.5" y="-50" font-family="Helvetica,sans-Serif" font-size="10.00">Library.Categoria.GetId</text>
</a>
</g>
</g>
<!-- Node3&#45;&gt;Node4 -->
<g id="edge3" class="edge">
<title>Node3&#45;&gt;Node4</title>
<path fill="none" stroke="#63b8ff" d="M499.09,-52.5C507.07,-52.5 515.25,-52.5 523.31,-52.5"/>
<polygon fill="#63b8ff" stroke="#63b8ff" points="523.07,-56 533.07,-52.5 523.07,-49 523.07,-56"/>
</g>
</g>
</svg>
