<?xml version="1.0" encoding="UTF-8" standalone="no"?>
<!DOCTYPE svg PUBLIC "-//W3C//DTD SVG 1.1//EN"
 "http://www.w3.org/Graphics/SVG/1.1/DTD/svg11.dtd">
<!-- Generated by graphviz version 7.0.2 (0)
 -->
<!-- Title: Library.RegistryHandler.RemoveUsuario Pages: 1 -->
<svg width="637pt" height="104pt"
 viewBox="0.00 0.00 637.00 103.63" xmlns="http://www.w3.org/2000/svg" xmlns:xlink="http://www.w3.org/1999/xlink">
<g id="graph0" class="graph" transform="scale(1 1) rotate(0) translate(4 99.63)">
<title>Library.RegistryHandler.RemoveUsuario</title>
<!-- Node1 -->
<g id="node1" class="node">
<title>Node1</title>
<g id="a_node1"><a xlink:title="Método para eliminar un Usuario">
<polygon fill="#999999" stroke="#666666" points="128,-78 0,-78 0,-48 128,-48 128,-78"/>
<text text-anchor="start" x="8" y="-66" font-family="Helvetica,sans-Serif" font-size="10.00">Library.RegistryHandler.</text>
<text text-anchor="middle" x="64" y="-55" font-family="Helvetica,sans-Serif" font-size="10.00">RemoveUsuario</text>
</a>
</g>
</g>
<!-- Node2 -->
<g id="node2" class="node">
<title>Node2</title>
<g id="a_node2"><a xlink:href="classLibrary_1_1Usuario.html#a33099664c3da6b61454db7c3343deceb" target="_top" xlink:title="Checkea que tipo de usuario es, puede ser Administrador, Trabajador o Empleador">
<polygon fill="white" stroke="#666666" points="629,-92.5 504,-92.5 504,-73.5 629,-73.5 629,-92.5"/>
<text text-anchor="middle" x="566.5" y="-80.5" font-family="Helvetica,sans-Serif" font-size="10.00">Library.Usuario.GetTipo</text>
</a>
</g>
</g>
<!-- Node1&#45;&gt;Node2 -->
<g id="edge1" class="edge">
<title>Node1&#45;&gt;Node2</title>
<path fill="none" stroke="#63b8ff" d="M118.78,-78.49C133.33,-82.01 149.16,-85.23 164,-87 278.2,-100.64 411.97,-95.04 492.65,-89.33"/>
<polygon fill="#63b8ff" stroke="#63b8ff" points="492.44,-92.86 502.16,-88.64 491.93,-85.87 492.44,-92.86"/>
</g>
<!-- Node3 -->
<g id="node3" class="node">
<title>Node3</title>
<g id="a_node3"><a xlink:href="classLibrary_1_1UsuariosCatalog.html#a6a3f81b438afc68cd3809e603728f9bb" target="_top" xlink:title="Método para conocer los usuarios">
<polygon fill="white" stroke="#666666" points="292,-78 164,-78 164,-48 292,-48 292,-78"/>
<text text-anchor="start" x="172" y="-66" font-family="Helvetica,sans-Serif" font-size="10.00">Library.UsuariosCatalog.</text>
<text text-anchor="middle" x="228" y="-55" font-family="Helvetica,sans-Serif" font-size="10.00">GetUsuarios</text>
</a>
</g>
</g>
<!-- Node1&#45;&gt;Node3 -->
<g id="edge2" class="edge">
<title>Node1&#45;&gt;Node3</title>
<path fill="none" stroke="#63b8ff" d="M128.1,-63C136.01,-63 144.16,-63 152.23,-63"/>
<polygon fill="#63b8ff" stroke="#63b8ff" points="152.03,-66.5 162.03,-63 152.03,-59.5 152.03,-66.5"/>
</g>
<!-- Node4 -->
<g id="node4" class="node">
<title>Node4</title>
<g id="a_node4"><a xlink:href="classLibrary_1_1UsuariosCatalog.html#af152d7cc2e78b41cd23e27834cb69dbd" target="_top" xlink:title="Método para eliminar un usuario">
<polygon fill="white" stroke="#666666" points="292,-30 164,-30 164,0 292,0 292,-30"/>
<text text-anchor="start" x="172" y="-18" font-family="Helvetica,sans-Serif" font-size="10.00">Library.UsuariosCatalog.</text>
<text text-anchor="middle" x="228" y="-7" font-family="Helvetica,sans-Serif" font-size="10.00">RemoveUsuario</text>
</a>
</g>
</g>
<!-- Node1&#45;&gt;Node4 -->
<g id="edge3" class="edge">
<title>Node1&#45;&gt;Node4</title>
<path fill="none" stroke="#63b8ff" d="M117.15,-47.55C132.18,-43.09 148.74,-38.19 164.33,-33.57"/>
<polygon fill="#63b8ff" stroke="#63b8ff" points="164.9,-37.05 173.5,-30.85 162.91,-30.34 164.9,-37.05"/>
</g>
<!-- Node5 -->
<g id="node5" class="node">
<title>Node5</title>
<g id="a_node5"><a xlink:href="classLibrary_1_1Usuario.html#a94ab2e6613b6d2127c8fc90d161cd127" target="_top" xlink:title="Método para desactivar un usuario">
<polygon fill="white" stroke="#666666" points="468,-69.5 328,-69.5 328,-50.5 468,-50.5 468,-69.5"/>
<text text-anchor="middle" x="398" y="-57.5" font-family="Helvetica,sans-Serif" font-size="10.00">Library.Usuario.DarDeBaja</text>
</a>
</g>
</g>
<!-- Node4&#45;&gt;Node5 -->
<g id="edge4" class="edge">
<title>Node4&#45;&gt;Node5</title>
<path fill="none" stroke="#63b8ff" d="M286.82,-30.49C307.05,-35.91 329.53,-41.93 348.89,-47.11"/>
<polygon fill="#63b8ff" stroke="#63b8ff" points="347.85,-50.46 358.42,-49.67 349.66,-43.7 347.85,-50.46"/>
</g>
<!-- Node6 -->
<g id="node6" class="node">
<title>Node6</title>
<g id="a_node6"><a xlink:href="classLibrary_1_1Usuario.html#ac8b2eb0988dacbb62b09f0abfdd8e3f6" target="_top" xlink:title="Checkea si el usuario está activo">
<polygon fill="white" stroke="#666666" points="461,-24.5 335,-24.5 335,-5.5 461,-5.5 461,-24.5"/>
<text text-anchor="middle" x="398" y="-12.5" font-family="Helvetica,sans-Serif" font-size="10.00">Library.Usuario.IsActive</text>
</a>
</g>
</g>
<!-- Node4&#45;&gt;Node6 -->
<g id="edge6" class="edge">
<title>Node4&#45;&gt;Node6</title>
<path fill="none" stroke="#63b8ff" d="M292.03,-15C302.29,-15 312.99,-15 323.47,-15"/>
<polygon fill="#63b8ff" stroke="#63b8ff" points="323.21,-18.5 333.21,-15 323.21,-11.5 323.21,-18.5"/>
</g>
<!-- Node5&#45;&gt;Node2 -->
<g id="edge5" class="edge">
<title>Node5&#45;&gt;Node2</title>
<path fill="none" stroke="#63b8ff" d="M468.16,-69.55C476.18,-70.66 484.38,-71.79 492.44,-72.91"/>
<polygon fill="#63b8ff" stroke="#63b8ff" points="491.84,-76.36 502.23,-74.26 492.8,-69.42 491.84,-76.36"/>
</g>
</g>
</svg>
