<?xml version="1.0" encoding="UTF-8" standalone="no"?>
<!DOCTYPE svg PUBLIC "-//W3C//DTD SVG 1.1//EN"
 "http://www.w3.org/Graphics/SVG/1.1/DTD/svg11.dtd">
<!-- Generated by graphviz version 7.0.2 (0)
 -->
<!-- Title: Graphical Class Hierarchy Pages: 1 -->
<svg width="420pt" height="138pt"
 viewBox="0.00 0.00 420.00 138.00" xmlns="http://www.w3.org/2000/svg" xmlns:xlink="http://www.w3.org/1999/xlink">
<g id="graph0" class="graph" transform="scale(1 1) rotate(0) translate(4 134)">
<title>Graphical Class Hierarchy</title>
<!-- Node0 -->
<g id="node1" class="node">
<title>Node0</title>
<g id="a_node1"><a xlink:href="interfaceLibrary_1_1IHandler.html" target="_top" xlink:title="Interfaz para implementar el patrón Chain of Responsibility. En ese patrón se pasa un mensaje a travé...">
<polygon fill="white" stroke="#666666" points="92,-74 0,-74 0,-55 92,-55 92,-74"/>
<text text-anchor="middle" x="46" y="-62" font-family="Helvetica,sans-Serif" font-size="10.00">Library.IHandler</text>
</a>
</g>
</g>
<!-- Node1 -->
<g id="node2" class="node">
<title>Node1</title>
<g id="a_node2"><a xlink:href="classLibrary_1_1BaseHandler.html" target="_top" xlink:title="Clase base para implementar el patrón Chain of Responsibility. En ese patrón se pasa un mensaje a tra...">
<polygon fill="white" stroke="#666666" points="239,-74 128,-74 128,-55 239,-55 239,-74"/>
<text text-anchor="middle" x="183.5" y="-62" font-family="Helvetica,sans-Serif" font-size="10.00">Library.BaseHandler</text>
</a>
</g>
</g>
<!-- Node0&#45;&gt;Node1 -->
<g id="edge1" class="edge">
<title>Node0&#45;&gt;Node1</title>
<path fill="none" stroke="#63b8ff" d="M103.95,-64.5C111.9,-64.5 120.06,-64.5 127.96,-64.5"/>
<polygon fill="#63b8ff" stroke="#63b8ff" points="104.01,-61 94.01,-64.5 104.01,-68 104.01,-61"/>
</g>
<!-- Node2 -->
<g id="node3" class="node">
<title>Node2</title>
<g id="a_node3"><a xlink:href="classLibrary_1_1BuscarHandler.html" target="_top" xlink:title="Muestra una lista de OfertaDeServicio disponibles según su ID y el trabajo. El usuario puede seleccio...">
<polygon fill="white" stroke="#666666" points="403.5,-130 283.5,-130 283.5,-111 403.5,-111 403.5,-130"/>
<text text-anchor="middle" x="343.5" y="-118" font-family="Helvetica,sans-Serif" font-size="10.00">Library.BuscarHandler</text>
</a>
</g>
</g>
<!-- Node1&#45;&gt;Node2 -->
<g id="edge2" class="edge">
<title>Node1&#45;&gt;Node2</title>
<path fill="none" stroke="#63b8ff" d="M215.83,-78.9C233.07,-86.51 254.97,-95.66 275,-102.5 283.49,-105.4 292.72,-108.13 301.54,-110.54"/>
<polygon fill="#63b8ff" stroke="#63b8ff" points="217.7,-75.9 207.14,-75.02 214.84,-82.3 217.7,-75.9"/>
</g>
<!-- Node3 -->
<g id="node4" class="node">
<title>Node3</title>
<g id="a_node4"><a xlink:href="classLibrary_1_1CategoriasHandler.html" target="_top" xlink:title="Un &quot;handler&quot; del patrón Chain of Responsibility que implementa el comando &quot;categorias&quot;.">
<polygon fill="white" stroke="#666666" points="412,-93 275,-93 275,-74 412,-74 412,-93"/>
<text text-anchor="middle" x="343.5" y="-81" font-family="Helvetica,sans-Serif" font-size="10.00">Library.CategoriasHandler</text>
</a>
</g>
</g>
<!-- Node1&#45;&gt;Node3 -->
<g id="edge3" class="edge">
<title>Node1&#45;&gt;Node3</title>
<path fill="none" stroke="#63b8ff" d="M250.47,-72.43C258.48,-73.4 266.66,-74.38 274.69,-75.35"/>
<polygon fill="#63b8ff" stroke="#63b8ff" points="251.17,-68.99 240.82,-71.27 250.33,-75.94 251.17,-68.99"/>
</g>
<!-- Node4 -->
<g id="node5" class="node">
<title>Node4</title>
<g id="a_node5"><a xlink:href="classLibrary_1_1InfoHandler.html" target="_top" xlink:title="Un &quot;handler&quot; del patrón Chain of Responsibility que implementa el comando &quot;info&quot;.">
<polygon fill="white" stroke="#666666" points="397.5,-56 289.5,-56 289.5,-37 397.5,-37 397.5,-56"/>
<text text-anchor="middle" x="343.5" y="-44" font-family="Helvetica,sans-Serif" font-size="10.00">Library.InfoHandler</text>
</a>
</g>
</g>
<!-- Node1&#45;&gt;Node4 -->
<g id="edge4" class="edge">
<title>Node1&#45;&gt;Node4</title>
<path fill="none" stroke="#63b8ff" d="M250.48,-56.98C263.35,-55.52 276.71,-54 289.11,-52.58"/>
<polygon fill="#63b8ff" stroke="#63b8ff" points="250.36,-53.47 240.82,-58.08 251.15,-60.43 250.36,-53.47"/>
</g>
<!-- Node5 -->
<g id="node6" class="node">
<title>Node5</title>
<g id="a_node6"><a xlink:href="classLibrary_1_1StartHandler.html" target="_top" xlink:title="Un &quot;handler&quot; del patrón Chain of Responsibility que implementa el comando &quot;categorias&quot;.">
<polygon fill="white" stroke="#666666" points="399,-19 288,-19 288,0 399,0 399,-19"/>
<text text-anchor="middle" x="343.5" y="-7" font-family="Helvetica,sans-Serif" font-size="10.00">Library.StartHandler</text>
</a>
</g>
</g>
<!-- Node1&#45;&gt;Node5 -->
<g id="edge5" class="edge">
<title>Node1&#45;&gt;Node5</title>
<path fill="none" stroke="#63b8ff" d="M217.81,-50.28C234.78,-43.29 255.82,-35 275,-28.5 284.46,-25.3 294.78,-22.2 304.44,-19.46"/>
<polygon fill="#63b8ff" stroke="#63b8ff" points="216.6,-47 208.71,-54.08 219.29,-53.46 216.6,-47"/>
</g>
</g>
</svg>
