<?xml version="1.0" encoding="UTF-8" standalone="no"?>
<!DOCTYPE svg PUBLIC "-//W3C//DTD SVG 1.1//EN"
 "http://www.w3.org/Graphics/SVG/1.1/DTD/svg11.dtd">
<!-- Generated by graphviz version 7.0.2 (0)
 -->
<!-- Title: Graphical Class Hierarchy Pages: 1 -->
<svg width="441pt" height="175pt"
 viewBox="0.00 0.00 441.00 175.00" xmlns="http://www.w3.org/2000/svg" xmlns:xlink="http://www.w3.org/1999/xlink">
<g id="graph0" class="graph" transform="scale(1 1) rotate(0) translate(4 171)">
<title>Graphical Class Hierarchy</title>
<!-- Node0 -->
<g id="node1" class="node">
<title>Node0</title>
<g id="a_node1"><a xlink:href="interfaceLibrary_1_1ICalificable.html" target="_top" xlink:title="Interfaz para calificar entre Trabajador/es y Empleador/es">
<polygon fill="white" stroke="#666666" points="265,-167 164,-167 164,-148 265,-148 265,-167"/>
<text text-anchor="middle" x="214.5" y="-155" font-family="Helvetica,sans-Serif" font-size="10.00">Library.ICalificable</text>
</a>
</g>
</g>
<!-- Node1 -->
<g id="node2" class="node">
<title>Node1</title>
<g id="a_node2"><a xlink:href="classLibrary_1_1Empleador.html" target="_top" xlink:title="Clase Empleador que hereda de Usuario">
<polygon fill="white" stroke="#666666" points="425,-93 324,-93 324,-74 425,-74 425,-93"/>
<text text-anchor="middle" x="374.5" y="-81" font-family="Helvetica,sans-Serif" font-size="10.00">Library.Empleador</text>
</a>
</g>
</g>
<!-- Node0&#45;&gt;Node1 -->
<g id="edge1" class="edge">
<title>Node0&#45;&gt;Node1</title>
<path fill="none" stroke="#63b8ff" d="M268.15,-144.08C272.21,-142.66 276.2,-141.13 280,-139.5 295.73,-132.74 335.96,-107.54 358.18,-93.36"/>
<polygon fill="#63b8ff" stroke="#63b8ff" points="267.23,-140.7 258.8,-147.12 269.39,-147.36 267.23,-140.7"/>
</g>
<!-- Node4 -->
<g id="node3" class="node">
<title>Node4</title>
<g id="a_node3"><a xlink:href="classLibrary_1_1Trabajador.html" target="_top" xlink:title="Clase que hereda de">
<polygon fill="white" stroke="#666666" points="424.5,-148 324.5,-148 324.5,-129 424.5,-129 424.5,-148"/>
<text text-anchor="middle" x="374.5" y="-136" font-family="Helvetica,sans-Serif" font-size="10.00">Library.Trabajador</text>
</a>
</g>
</g>
<!-- Node0&#45;&gt;Node4 -->
<g id="edge2" class="edge">
<title>Node0&#45;&gt;Node4</title>
<path fill="none" stroke="#63b8ff" d="M276.71,-150.14C292.4,-148.25 309.09,-146.25 324.1,-144.44"/>
<polygon fill="#63b8ff" stroke="#63b8ff" points="276.51,-146.64 266.99,-151.31 277.34,-153.59 276.51,-146.64"/>
</g>
<!-- Node5 -->
<g id="node4" class="node">
<title>Node5</title>
<g id="a_node4"><a xlink:href="interfaceLibrary_1_1IDesactivable.html" target="_top" xlink:title="Interfaz para el manejo de actividad de un usuario, una categoría, etc.">
<polygon fill="white" stroke="#666666" points="113,-74 0,-74 0,-55 113,-55 113,-74"/>
<text text-anchor="middle" x="56.5" y="-62" font-family="Helvetica,sans-Serif" font-size="10.00">Library.IDesactivable</text>
</a>
</g>
</g>
<!-- Node6 -->
<g id="node5" class="node">
<title>Node6</title>
<g id="a_node5"><a xlink:href="classLibrary_1_1Categoria.html" target="_top" xlink:title="Clase para conocer y agregar categorias de ofertas de servicio">
<polygon fill="white" stroke="#666666" points="262,-130 167,-130 167,-111 262,-111 262,-130"/>
<text text-anchor="middle" x="214.5" y="-118" font-family="Helvetica,sans-Serif" font-size="10.00">Library.Categoria</text>
</a>
</g>
</g>
<!-- Node5&#45;&gt;Node6 -->
<g id="edge3" class="edge">
<title>Node5&#45;&gt;Node6</title>
<path fill="none" stroke="#63b8ff" d="M89.57,-78.94C106.96,-86.49 128.94,-95.56 149,-102.5 157.24,-105.35 166.19,-108.07 174.72,-110.5"/>
<polygon fill="#63b8ff" stroke="#63b8ff" points="91.35,-75.9 80.78,-75.09 88.53,-82.31 91.35,-75.9"/>
</g>
<!-- Node7 -->
<g id="node6" class="node">
<title>Node7</title>
<g id="a_node6"><a xlink:href="classLibrary_1_1OfertaDeServicio.html" target="_top" xlink:title="Clase que representa una oferta de servicio">
<polygon fill="white" stroke="#666666" points="280,-93 149,-93 149,-74 280,-74 280,-93"/>
<text text-anchor="middle" x="214.5" y="-81" font-family="Helvetica,sans-Serif" font-size="10.00">Library.OfertaDeServicio</text>
</a>
</g>
</g>
<!-- Node5&#45;&gt;Node7 -->
<g id="edge4" class="edge">
<title>Node5&#45;&gt;Node7</title>
<path fill="none" stroke="#63b8ff" d="M124.56,-72.67C132.57,-73.64 140.74,-74.64 148.71,-75.61"/>
<polygon fill="#63b8ff" stroke="#63b8ff" points="125.23,-69.22 114.88,-71.49 124.38,-76.17 125.23,-69.22"/>
</g>
<!-- Node8 -->
<g id="node7" class="node">
<title>Node8</title>
<g id="a_node7"><a xlink:href="classLibrary_1_1Solicitud.html" target="_top" xlink:title="Clase Solicitud para iniciar una OfertaDeServicio">
<polygon fill="white" stroke="#666666" points="259,-56 170,-56 170,-37 259,-37 259,-56"/>
<text text-anchor="middle" x="214.5" y="-44" font-family="Helvetica,sans-Serif" font-size="10.00">Library.Solicitud</text>
</a>
</g>
</g>
<!-- Node5&#45;&gt;Node8 -->
<g id="edge5" class="edge">
<title>Node5&#45;&gt;Node8</title>
<path fill="none" stroke="#63b8ff" d="M124.41,-56.78C139.75,-55.01 155.68,-53.17 169.75,-51.55"/>
<polygon fill="#63b8ff" stroke="#63b8ff" points="124.42,-53.26 114.88,-57.88 125.22,-60.21 124.42,-53.26"/>
</g>
<!-- Node2 -->
<g id="node8" class="node">
<title>Node2</title>
<g id="a_node8"><a xlink:href="classLibrary_1_1Usuario.html" target="_top" xlink:title="Clase abstracta Usuario para que luego hereden Administrador, Trabajador y Empleador">
<polygon fill="white" stroke="#666666" points="257.5,-19 171.5,-19 171.5,0 257.5,0 257.5,-19"/>
<text text-anchor="middle" x="214.5" y="-7" font-family="Helvetica,sans-Serif" font-size="10.00">Library.Usuario</text>
</a>
</g>
</g>
<!-- Node5&#45;&gt;Node2 -->
<g id="edge6" class="edge">
<title>Node5&#45;&gt;Node2</title>
<path fill="none" stroke="#63b8ff" d="M91.58,-50.26C108.68,-43.33 129.8,-35.09 149,-28.5 158.16,-25.35 168.17,-22.25 177.5,-19.49"/>
<polygon fill="#63b8ff" stroke="#63b8ff" points="90.32,-47 82.39,-54.02 92.97,-53.48 90.32,-47"/>
</g>
<!-- Node2&#45;&gt;Node1 -->
<g id="edge8" class="edge">
<title>Node2&#45;&gt;Node1</title>
<path fill="none" stroke="#63b8ff" d="M265.66,-22.95C270.57,-24.66 275.42,-26.51 280,-28.5 309.55,-41.31 341.34,-61.55 359.19,-73.57"/>
<polygon fill="#63b8ff" stroke="#63b8ff" points="266.96,-19.69 256.37,-19.91 264.79,-26.35 266.96,-19.69"/>
</g>
<!-- Node2&#45;&gt;Node4 -->
<g id="edge9" class="edge">
<title>Node2&#45;&gt;Node4</title>
<path fill="none" stroke="#63b8ff" d="M268.53,-21C272.65,-23.1 276.54,-25.57 280,-28.5 307.92,-52.12 291.55,-75.3 316,-102.5 325.92,-113.54 340,-122.43 351.75,-128.62"/>
<polygon fill="#63b8ff" stroke="#63b8ff" points="269.92,-17.79 259.35,-17.13 267.2,-24.24 269.92,-17.79"/>
</g>
<!-- Node3 -->
<g id="node9" class="node">
<title>Node3</title>
<g id="a_node9"><a xlink:href="classLibrary_1_1Administrador.html" target="_top" xlink:title="Clase Administrador que hereda de Usuario">
<polygon fill="white" stroke="#666666" points="433,-19 316,-19 316,0 433,0 433,-19"/>
<text text-anchor="middle" x="374.5" y="-7" font-family="Helvetica,sans-Serif" font-size="10.00">Library.Administrador</text>
</a>
</g>
</g>
<!-- Node2&#45;&gt;Node3 -->
<g id="edge7" class="edge">
<title>Node2&#45;&gt;Node3</title>
<path fill="none" stroke="#63b8ff" d="M269,-9.5C283.99,-9.5 300.36,-9.5 315.6,-9.5"/>
<polygon fill="#63b8ff" stroke="#63b8ff" points="269.35,-6 259.35,-9.5 269.35,-13 269.35,-6"/>
</g>
</g>
</svg>
