<?xml version="1.0" encoding="UTF-8" standalone="no"?>
<!DOCTYPE svg PUBLIC "-//W3C//DTD SVG 1.1//EN"
 "http://www.w3.org/Graphics/SVG/1.1/DTD/svg11.dtd">
<!-- Generated by graphviz version 7.0.2 (0)
 -->
<!-- Title: Graphical Class Hierarchy Pages: 1 -->
<svg width="217pt" height="101pt"
 viewBox="0.00 0.00 217.00 101.00" xmlns="http://www.w3.org/2000/svg" xmlns:xlink="http://www.w3.org/1999/xlink">
<g id="graph0" class="graph" transform="scale(1 1) rotate(0) translate(4 97)">
<title>Graphical Class Hierarchy</title>
<!-- Node0 -->
<g id="node1" class="node">
<title>Node0</title>
<g id="a_node1"><a xlink:href="classBaseHandler.html" target="_top" xlink:title=" ">
<polygon fill="white" stroke="#666666" points="77,-56 0,-56 0,-37 77,-37 77,-56"/>
<text text-anchor="middle" x="38.5" y="-44" font-family="Helvetica,sans-Serif" font-size="10.00">BaseHandler</text>
</a>
</g>
</g>
<!-- Node1 -->
<g id="node2" class="node">
<title>Node1</title>
<g id="a_node2"><a xlink:href="classDefaultHandler.html" target="_top" xlink:title=" ">
<polygon fill="white" stroke="#666666" points="205.5,-93 116.5,-93 116.5,-74 205.5,-74 205.5,-93"/>
<text text-anchor="middle" x="161" y="-81" font-family="Helvetica,sans-Serif" font-size="10.00">DefaultHandler</text>
</a>
</g>
</g>
<!-- Node0&#45;&gt;Node1 -->
<g id="edge1" class="edge">
<title>Node0&#45;&gt;Node1</title>
<path fill="none" stroke="#63b8ff" d="M82.75,-59.78C97.55,-64.32 113.83,-69.32 127.62,-73.56"/>
<polygon fill="#63b8ff" stroke="#63b8ff" points="83.83,-56.45 73.24,-56.86 81.77,-63.14 83.83,-56.45"/>
</g>
<!-- Node2 -->
<g id="node3" class="node">
<title>Node2</title>
<g id="a_node3"><a xlink:href="classInicioHandler.html" target="_top" xlink:title="Dependiendo del TipoDeUsuario del Usuario muestra distintas opciones. Para un Trabajador muestra Ofer...">
<polygon fill="white" stroke="#666666" points="200.5,-56 121.5,-56 121.5,-37 200.5,-37 200.5,-56"/>
<text text-anchor="middle" x="161" y="-44" font-family="Helvetica,sans-Serif" font-size="10.00">InicioHandler</text>
</a>
</g>
</g>
<!-- Node0&#45;&gt;Node2 -->
<g id="edge2" class="edge">
<title>Node0&#45;&gt;Node2</title>
<path fill="none" stroke="#63b8ff" d="M88.73,-46.5C99.51,-46.5 110.78,-46.5 121.09,-46.5"/>
<polygon fill="#63b8ff" stroke="#63b8ff" points="88.81,-43 78.81,-46.5 88.81,-50 88.81,-43"/>
</g>
<!-- Node3 -->
<g id="node4" class="node">
<title>Node3</title>
<g id="a_node4"><a xlink:href="classRegistrarHandler.html" target="_top" xlink:title=" ">
<polygon fill="white" stroke="#666666" points="209,-19 113,-19 113,0 209,0 209,-19"/>
<text text-anchor="middle" x="161" y="-7" font-family="Helvetica,sans-Serif" font-size="10.00">RegistrarHandler</text>
</a>
</g>
</g>
<!-- Node0&#45;&gt;Node3 -->
<g id="edge3" class="edge">
<title>Node0&#45;&gt;Node3</title>
<path fill="none" stroke="#63b8ff" d="M82.75,-33.22C97.55,-28.68 113.83,-23.68 127.62,-19.44"/>
<polygon fill="#63b8ff" stroke="#63b8ff" points="81.77,-29.86 73.24,-36.14 83.83,-36.55 81.77,-29.86"/>
</g>
</g>
</svg>
