<?xml version="1.0" encoding="UTF-8" standalone="no"?>
<!DOCTYPE svg PUBLIC "-//W3C//DTD SVG 1.1//EN"
 "http://www.w3.org/Graphics/SVG/1.1/DTD/svg11.dtd">
<!-- Generated by graphviz version 7.0.2 (0)
 -->
<!-- Title: Library.ICalificable Pages: 1 -->
<svg width="236pt" height="192pt"
 viewBox="0.00 0.00 235.50 192.00" xmlns="http://www.w3.org/2000/svg" xmlns:xlink="http://www.w3.org/1999/xlink">
<g id="graph0" class="graph" transform="scale(1 1) rotate(0) translate(4 188)">
<title>Library.ICalificable</title>
<!-- Node1 -->
<g id="node1" class="node">
<title>Node1</title>
<g id="a_node1"><a xlink:title="Interfaz para calificar entre Trabajador/es y Empleador/es">
<polygon fill="#999999" stroke="#666666" points="168.5,-184 58.5,-184 58.5,-132 168.5,-132 168.5,-184"/>
<text text-anchor="middle" x="113.5" y="-172" font-family="Helvetica,sans-Serif" font-size="10.00">{Library.ICalificable</text>
<text text-anchor="start" x="66.5" y="-161" font-family="Helvetica,sans-Serif" font-size="10.00">||+ GetReputacion()</text>
<text text-anchor="start" x="66.5" y="-150" font-family="Helvetica,sans-Serif" font-size="10.00">+ Calificar()</text>
<text text-anchor="middle" x="113.5" y="-139" font-family="Helvetica,sans-Serif" font-size="10.00">}</text>
</a>
</g>
</g>
<!-- Node2 -->
<g id="node2" class="node">
<title>Node2</title>
<g id="a_node2"><a xlink:href="classLibrary_1_1Empleador.html" target="_top" xlink:title="Clase Empleador que hereda de Usuario">
<polygon fill="white" stroke="#666666" points="105,-85 0,-85 0,-11 105,-11 105,-85"/>
<text text-anchor="middle" x="52.5" y="-73" font-family="Helvetica,sans-Serif" font-size="10.00">{Library.Empleador</text>
<text text-anchor="start" x="8" y="-62" font-family="Helvetica,sans-Serif" font-size="10.00">|+ Reputacion</text>
<text text-anchor="start" x="8" y="-51" font-family="Helvetica,sans-Serif" font-size="10.00">|+ Empleador()</text>
<text text-anchor="start" x="8" y="-40" font-family="Helvetica,sans-Serif" font-size="10.00">+ Calificar()</text>
<text text-anchor="start" x="8" y="-29" font-family="Helvetica,sans-Serif" font-size="10.00">+ GetReputacion()</text>
<text text-anchor="middle" x="52.5" y="-18" font-family="Helvetica,sans-Serif" font-size="10.00">}</text>
</a>
</g>
</g>
<!-- Node1&#45;&gt;Node2 -->
<g id="edge1" class="edge">
<title>Node1&#45;&gt;Node2</title>
<path fill="none" stroke="#63b8ff" d="M93.61,-121.79C86.99,-110.07 79.61,-97 72.95,-85.21"/>
<polygon fill="none" stroke="#63b8ff" points="90.49,-123.38 98.45,-130.36 96.58,-119.93 90.49,-123.38"/>
</g>
<!-- Node3 -->
<g id="node3" class="node">
<title>Node3</title>
<g id="a_node3"><a xlink:href="classLibrary_1_1Trabajador.html" target="_top" xlink:title="Clase que hereda de">
<polygon fill="white" stroke="#666666" points="227.5,-96 123.5,-96 123.5,0 227.5,0 227.5,-96"/>
<text text-anchor="middle" x="175.5" y="-84" font-family="Helvetica,sans-Serif" font-size="10.00">{Library.Trabajador</text>
<text text-anchor="start" x="131.5" y="-73" font-family="Helvetica,sans-Serif" font-size="10.00">|+ Reputacion</text>
<text text-anchor="start" x="131.5" y="-62" font-family="Helvetica,sans-Serif" font-size="10.00">+ Activo</text>
<text text-anchor="start" x="131.5" y="-51" font-family="Helvetica,sans-Serif" font-size="10.00">|+ Trabajador()</text>
<text text-anchor="start" x="131.5" y="-40" font-family="Helvetica,sans-Serif" font-size="10.00">+ Calificar()</text>
<text text-anchor="start" x="131.5" y="-29" font-family="Helvetica,sans-Serif" font-size="10.00">+ GetReputacion()</text>
<text text-anchor="start" x="131.5" y="-18" font-family="Helvetica,sans-Serif" font-size="10.00">+ GetContecto()</text>
<text text-anchor="middle" x="175.5" y="-7" font-family="Helvetica,sans-Serif" font-size="10.00">}</text>
</a>
</g>
</g>
<!-- Node1&#45;&gt;Node3 -->
<g id="edge2" class="edge">
<title>Node1&#45;&gt;Node3</title>
<path fill="none" stroke="#63b8ff" d="M133.73,-121.76C138.42,-113.6 143.48,-104.78 148.4,-96.2"/>
<polygon fill="none" stroke="#63b8ff" points="130.73,-119.95 128.79,-130.37 136.8,-123.44 130.73,-119.95"/>
</g>
</g>
</svg>
