<?xml version="1.0" encoding="UTF-8" standalone="no"?>
<!DOCTYPE svg PUBLIC "-//W3C//DTD SVG 1.1//EN"
 "http://www.w3.org/Graphics/SVG/1.1/DTD/svg11.dtd">
<!-- Generated by graphviz version 7.0.2 (0)
 -->
<!-- Title: Library.IHandler Pages: 1 -->
<svg width="556pt" height="379pt"
 viewBox="0.00 0.00 555.50 379.00" xmlns="http://www.w3.org/2000/svg" xmlns:xlink="http://www.w3.org/1999/xlink">
<g id="graph0" class="graph" transform="scale(1 1) rotate(0) translate(4 375)">
<title>Library.IHandler</title>
<!-- Node1 -->
<g id="node1" class="node">
<title>Node1</title>
<g id="a_node1"><a xlink:title="Interfaz para implementar el patrón Chain of Responsibility. En ese patrón se pasa un mensaje a travé...">
<polygon fill="#999999" stroke="#666666" points="333,-371 237,-371 237,-308 333,-308 333,-371"/>
<text text-anchor="middle" x="285" y="-359" font-family="Helvetica,sans-Serif" font-size="10.00">{Library.IHandler</text>
<text text-anchor="start" x="245" y="-348" font-family="Helvetica,sans-Serif" font-size="10.00">|+ Next</text>
<text text-anchor="start" x="245" y="-337" font-family="Helvetica,sans-Serif" font-size="10.00">|+ Handle()</text>
<text text-anchor="start" x="245" y="-326" font-family="Helvetica,sans-Serif" font-size="10.00">+ Cancel()</text>
<text text-anchor="middle" x="285" y="-315" font-family="Helvetica,sans-Serif" font-size="10.00">}</text>
</a>
</g>
</g>
<!-- Node2 -->
<g id="node2" class="node">
<title>Node2</title>
<g id="a_node2"><a xlink:href="classLibrary_1_1BaseHandler.html" target="_top" xlink:title="Clase base para implementar el patrón Chain of Responsibility. En ese patrón se pasa un mensaje a tra...">
<polygon fill="white" stroke="#666666" points="342.5,-272 227.5,-272 227.5,-121 342.5,-121 342.5,-272"/>
<text text-anchor="middle" x="285" y="-260" font-family="Helvetica,sans-Serif" font-size="10.00">{Library.BaseHandler</text>
<text text-anchor="start" x="235.5" y="-249" font-family="Helvetica,sans-Serif" font-size="10.00">|+ _id</text>
<text text-anchor="start" x="235.5" y="-238" font-family="Helvetica,sans-Serif" font-size="10.00">+ Next</text>
<text text-anchor="start" x="235.5" y="-227" font-family="Helvetica,sans-Serif" font-size="10.00">+ Keywords</text>
<text text-anchor="start" x="235.5" y="-216" font-family="Helvetica,sans-Serif" font-size="10.00">|+ GetId()</text>
<text text-anchor="start" x="235.5" y="-205" font-family="Helvetica,sans-Serif" font-size="10.00">+ BaseHandler()</text>
<text text-anchor="start" x="235.5" y="-194" font-family="Helvetica,sans-Serif" font-size="10.00">+ BaseHandler()</text>
<text text-anchor="start" x="235.5" y="-183" font-family="Helvetica,sans-Serif" font-size="10.00">+ Handle()</text>
<text text-anchor="start" x="235.5" y="-172" font-family="Helvetica,sans-Serif" font-size="10.00">+ Cancel()</text>
<text text-anchor="start" x="235.5" y="-161" font-family="Helvetica,sans-Serif" font-size="10.00"># InternalHandle()</text>
<text text-anchor="start" x="235.5" y="-150" font-family="Helvetica,sans-Serif" font-size="10.00"># InternalCancel()</text>
<text text-anchor="start" x="235.5" y="-139" font-family="Helvetica,sans-Serif" font-size="10.00"># CanHandle()</text>
<text text-anchor="middle" x="285" y="-128" font-family="Helvetica,sans-Serif" font-size="10.00">}</text>
</a>
</g>
</g>
<!-- Node1&#45;&gt;Node2 -->
<g id="edge1" class="edge">
<title>Node1&#45;&gt;Node2</title>
<path fill="none" stroke="#63b8ff" d="M285,-296.13C285,-288.55 285,-280.45 285,-272.28"/>
<polygon fill="none" stroke="#63b8ff" points="281.5,-296.04 285,-306.04 288.5,-296.04 281.5,-296.04"/>
</g>
<!-- Node3 -->
<g id="node3" class="node">
<title>Node3</title>
<g id="a_node3"><a xlink:href="classLibrary_1_1BuscarHandler.html" target="_top" xlink:title="Muestra una lista de OfertaDeServicio disponibles según su ID y el trabajo. El usuario puede seleccio...">
<polygon fill="white" stroke="#666666" points="124,-85 0,-85 0,0 124,0 124,-85"/>
<text text-anchor="middle" x="62" y="-73" font-family="Helvetica,sans-Serif" font-size="10.00">{Library.BuscarHandler</text>
<text text-anchor="start" x="8" y="-62" font-family="Helvetica,sans-Serif" font-size="10.00">|+ Oferta</text>
<text text-anchor="start" x="8" y="-51" font-family="Helvetica,sans-Serif" font-size="10.00">+ State</text>
<text text-anchor="start" x="8" y="-40" font-family="Helvetica,sans-Serif" font-size="10.00">|+ BuscarHandler()</text>
<text text-anchor="start" x="8" y="-29" font-family="Helvetica,sans-Serif" font-size="10.00"># CanHandle()</text>
<text text-anchor="start" x="8" y="-18" font-family="Helvetica,sans-Serif" font-size="10.00"># InternalHandle()</text>
<text text-anchor="middle" x="62" y="-7" font-family="Helvetica,sans-Serif" font-size="10.00">}</text>
</a>
</g>
</g>
<!-- Node2&#45;&gt;Node3 -->
<g id="edge2" class="edge">
<title>Node2&#45;&gt;Node3</title>
<path fill="none" stroke="#63b8ff" d="M218.13,-149.92C188.05,-129.42 152.78,-105.38 123.38,-85.34"/>
<polygon fill="none" stroke="#63b8ff" points="215.8,-152.57 226.03,-155.31 219.74,-146.78 215.8,-152.57"/>
</g>
<!-- Node4 -->
<g id="node4" class="node">
<title>Node4</title>
<g id="a_node4"><a xlink:href="classLibrary_1_1CategoriasHandler.html" target="_top" xlink:title="Un &quot;handler&quot; del patrón Chain of Responsibility que implementa el comando &quot;categorias&quot;.">
<polygon fill="white" stroke="#666666" points="283.5,-68.5 142.5,-68.5 142.5,-16.5 283.5,-16.5 283.5,-68.5"/>
<text text-anchor="middle" x="213" y="-56.5" font-family="Helvetica,sans-Serif" font-size="10.00">{Library.CategoriasHandler</text>
<text text-anchor="start" x="150.5" y="-45.5" font-family="Helvetica,sans-Serif" font-size="10.00">||+ CategoriasHandler()</text>
<text text-anchor="start" x="150.5" y="-34.5" font-family="Helvetica,sans-Serif" font-size="10.00"># InternalHandle()</text>
<text text-anchor="middle" x="213" y="-23.5" font-family="Helvetica,sans-Serif" font-size="10.00">}</text>
</a>
</g>
</g>
<!-- Node2&#45;&gt;Node4 -->
<g id="edge3" class="edge">
<title>Node2&#45;&gt;Node4</title>
<path fill="none" stroke="#63b8ff" d="M244.85,-110.73C237.6,-95.43 230.57,-80.6 224.98,-68.78"/>
<polygon fill="none" stroke="#63b8ff" points="241.54,-111.93 248.98,-119.47 247.87,-108.93 241.54,-111.93"/>
</g>
<!-- Node5 -->
<g id="node5" class="node">
<title>Node5</title>
<g id="a_node5"><a xlink:href="classLibrary_1_1InfoHandler.html" target="_top" xlink:title="Un &quot;handler&quot; del patrón Chain of Responsibility que implementa el comando &quot;info&quot;.">
<polygon fill="white" stroke="#666666" points="414,-68.5 302,-68.5 302,-16.5 414,-16.5 414,-68.5"/>
<text text-anchor="middle" x="358" y="-56.5" font-family="Helvetica,sans-Serif" font-size="10.00">{Library.InfoHandler</text>
<text text-anchor="start" x="310" y="-45.5" font-family="Helvetica,sans-Serif" font-size="10.00">||+ InfoHandler()</text>
<text text-anchor="start" x="310" y="-34.5" font-family="Helvetica,sans-Serif" font-size="10.00"># InternalHandle()</text>
<text text-anchor="middle" x="358" y="-23.5" font-family="Helvetica,sans-Serif" font-size="10.00">}</text>
</a>
</g>
</g>
<!-- Node2&#45;&gt;Node5 -->
<g id="edge4" class="edge">
<title>Node2&#45;&gt;Node5</title>
<path fill="none" stroke="#63b8ff" d="M325.71,-110.73C333.06,-95.43 340.18,-80.6 345.86,-68.78"/>
<polygon fill="none" stroke="#63b8ff" points="322.69,-108.94 321.51,-119.47 329,-111.97 322.69,-108.94"/>
</g>
<!-- Node6 -->
<g id="node6" class="node">
<title>Node6</title>
<g id="a_node6"><a xlink:href="classLibrary_1_1StartHandler.html" target="_top" xlink:title="Un &quot;handler&quot; del patrón Chain of Responsibility que implementa el comando &quot;categorias&quot;.">
<polygon fill="white" stroke="#666666" points="547.5,-68.5 432.5,-68.5 432.5,-16.5 547.5,-16.5 547.5,-68.5"/>
<text text-anchor="middle" x="490" y="-56.5" font-family="Helvetica,sans-Serif" font-size="10.00">{Library.StartHandler</text>
<text text-anchor="start" x="440.5" y="-45.5" font-family="Helvetica,sans-Serif" font-size="10.00">||+ StartHandler()</text>
<text text-anchor="start" x="440.5" y="-34.5" font-family="Helvetica,sans-Serif" font-size="10.00"># InternalHandle()</text>
<text text-anchor="middle" x="490" y="-23.5" font-family="Helvetica,sans-Serif" font-size="10.00">}</text>
</a>
</g>
</g>
<!-- Node2&#45;&gt;Node6 -->
<g id="edge5" class="edge">
<title>Node2&#45;&gt;Node6</title>
<path fill="none" stroke="#63b8ff" d="M352.04,-145.79C386.66,-120.12 427.43,-89.89 455.63,-68.99"/>
<polygon fill="none" stroke="#63b8ff" points="350.09,-142.88 344.14,-151.65 354.26,-148.51 350.09,-142.88"/>
</g>
</g>
</svg>
